<svg width="179" height="41" viewBox="0 0 179 41" fill="none" xmlns="http://www.w3.org/2000/svg">
<g clip-path="url(#clip0_112_3401)">
<path d="M53.5246 15.6102C52.8643 15.2233 52.1628 14.9223 51.4612 14.6859C50.7596 14.471 50.12 14.299 49.5629 14.1701L45.1059 13.1169C44.5282 12.9879 43.9711 12.816 43.3933 12.6225C42.8156 12.4291 42.341 12.1496 41.9489 11.8057C41.5569 11.4618 41.3712 11.0105 41.3712 10.4516C41.3712 9.89279 41.5981 9.37694 42.0315 8.94707C42.4648 8.51719 43.0632 8.17329 43.806 7.93686C44.5488 7.70042 45.3742 7.59295 46.2614 7.59295C47.19 7.59295 48.0566 7.7649 48.8407 8.04432C49.6248 8.34524 50.3057 8.75362 50.8422 9.29097C51.3993 9.82831 51.7501 10.4946 51.9151 11.2469L55.6705 10.7096C55.3404 9.46292 54.7626 8.40972 53.896 7.54997C53.0294 6.66872 51.9771 6.00241 50.6771 5.55104C49.3978 5.07818 47.9328 4.84175 46.3027 4.82025C44.6726 4.82025 43.2076 5.03519 41.9077 5.48656C40.6077 5.93793 39.5554 6.58274 38.7919 7.4425C38.0285 8.30225 37.6364 9.35545 37.6364 10.6021C37.6364 11.4189 37.8015 12.1282 38.1316 12.687C38.4618 13.2673 38.8745 13.7402 39.3903 14.1271C39.9062 14.514 40.4839 14.8149 41.1029 15.0728C41.722 15.3092 42.341 15.5027 42.9394 15.6531L49.1296 17.1792C49.5835 17.2867 49.9962 17.4156 50.3676 17.5876C50.739 17.738 51.0485 17.9315 51.3168 18.1249C51.585 18.3399 51.7913 18.5763 51.9358 18.8557C52.0802 19.1351 52.1628 19.4575 52.1628 19.8229C52.1628 20.4892 51.9152 21.0696 51.4199 21.5424C50.9247 22.0153 50.2644 22.3807 49.4391 22.6386C48.6137 22.8966 47.7264 23.0255 46.7566 23.0255C45.1885 23.0255 43.8266 22.6816 42.6505 21.9938C41.4743 21.306 40.7109 20.3603 40.3395 19.1136L36.6873 19.565C36.9555 20.8331 37.5332 21.9508 38.4411 22.8751C39.349 23.7993 40.4839 24.5086 41.887 25.0029C43.2695 25.4973 44.8377 25.7552 46.5709 25.7552C47.809 25.7552 48.9851 25.6263 50.0994 25.3683C51.2136 25.1104 52.204 24.7235 53.05 24.2077C53.896 23.6918 54.5769 23.047 55.0722 22.2732C55.5674 21.4995 55.815 20.6182 55.815 19.608C55.815 18.5978 55.588 17.824 55.1547 17.1792C54.7214 16.5344 54.1643 16.0185 53.504 15.6316L53.5246 15.6102Z" fill="white"/>
<path d="M64.3781 6.06689H60.8497V10.2582H57.3832V12.601H60.8497V19.4146C60.8497 20.2313 60.8497 20.9621 60.891 21.6069C60.9322 22.2517 61.1386 22.8966 61.51 23.5199C61.9433 24.2292 62.6036 24.7235 63.4496 25.0459C64.3162 25.3683 65.286 25.5403 66.3796 25.5833C67.4732 25.6048 68.5874 25.5403 69.7223 25.3469V22.8751C68.5462 23.004 67.5145 23.047 66.6272 22.961C65.7606 22.8751 65.1003 22.5527 64.7083 21.9723C64.5019 21.6714 64.3781 21.2845 64.3575 20.8331C64.3368 20.3818 64.3368 19.8659 64.3368 19.2641V12.601H69.7223V10.2582H64.3368V6.06689H64.3781Z" fill="white"/>
<path d="M79.8948 10.4516C79.3377 10.6021 78.8218 10.817 78.3679 11.0965C77.8933 11.3544 77.4806 11.6983 77.1299 12.0852C76.9442 12.2786 76.841 12.5365 76.6965 12.7515V10.2367H73.5808V25.3254H77.1092V17.7166C77.1092 17.1147 77.1918 16.5559 77.3362 16.0185C77.4806 15.4812 77.7282 14.9868 78.0584 14.557C78.3885 14.1271 78.8425 13.7402 79.3996 13.4393C79.998 13.1169 80.6583 12.9234 81.3805 12.8589C82.1027 12.7945 82.7629 12.8589 83.3407 12.9664V10.2367C82.7836 10.1507 82.2265 10.1292 81.6281 10.1507C81.0297 10.1722 80.4519 10.2797 79.8948 10.4301V10.4516Z" fill="white"/>
<path d="M98.7749 10.903C97.475 10.1937 95.9068 9.82831 94.0704 9.82831C92.2339 9.82831 90.7483 10.1507 89.4277 10.817C88.1071 11.4833 87.0548 12.4076 86.312 13.6327C85.5692 14.8364 85.1978 16.2765 85.1978 17.9315C85.1978 19.479 85.5692 20.8546 86.3326 22.0368C87.0961 23.219 88.1484 24.1432 89.5103 24.788C90.8721 25.4328 92.4403 25.7767 94.2354 25.7767C96.0306 25.7767 97.5782 25.4113 99.0225 24.659C100.446 23.9283 101.519 22.8751 102.221 21.5209L98.7749 20.6182C98.321 21.392 97.702 21.9938 96.8972 22.4022C96.0925 22.8106 95.1433 23.0255 94.0497 23.0255C92.3784 23.0255 91.1197 22.5741 90.2324 21.6714C89.5103 20.9191 89.0976 19.9089 88.9738 18.6408H102.448C102.592 16.8353 102.324 15.2662 101.684 13.9551C101.045 12.644 100.075 11.6338 98.7749 10.9245V10.903ZM90.2324 13.8047C91.1197 12.8804 92.4403 12.4291 94.1942 12.4291C95.783 12.4291 96.9591 12.8589 97.7432 13.6757C98.321 14.299 98.6924 15.2018 98.8575 16.3409H89.0563C89.242 15.2877 89.6341 14.4495 90.2531 13.8047H90.2324Z" fill="white"/>
<path d="M119.966 12.7085C119.409 11.7198 118.522 10.989 117.325 10.5161C116.128 10.0647 114.704 9.82831 113.095 9.82831C111.011 9.82831 109.34 10.2152 108.081 10.9675C106.822 11.7413 105.976 12.7515 105.522 14.0626L108.783 14.9008C109.092 14.0626 109.649 13.4393 110.433 13.0739C111.217 12.7085 112.105 12.515 113.054 12.515C114.56 12.515 115.633 12.7945 116.252 13.3748C116.789 13.8691 117.077 14.6214 117.119 15.5672C116.438 15.6531 115.757 15.7176 115.076 15.8036C113.962 15.9326 112.889 16.083 111.857 16.212C110.825 16.3409 109.938 16.5344 109.133 16.7278C108.205 16.9857 107.421 17.3082 106.781 17.7165C106.141 18.1249 105.667 18.6193 105.337 19.1996C105.006 19.7799 104.841 20.4463 104.841 21.22C104.841 22.0368 105.068 22.7891 105.543 23.4769C105.997 24.1647 106.698 24.702 107.606 25.1319C108.514 25.5618 109.629 25.7552 110.97 25.7552C112.662 25.7552 114.085 25.4758 115.241 24.917C116.128 24.4871 116.85 23.8208 117.49 23.047V25.3468H120.585V16.0615C120.585 15.4382 120.544 14.8364 120.482 14.2775C120.42 13.7187 120.234 13.2028 119.946 12.7085H119.966ZM116.747 20.3818C116.623 20.8761 116.335 21.349 115.901 21.8004C115.468 22.2517 114.89 22.6386 114.168 22.918C113.446 23.219 112.6 23.3479 111.609 23.3479C110.867 23.3479 110.248 23.2404 109.773 23.047C109.298 22.8536 108.927 22.5956 108.7 22.2517C108.473 21.9293 108.349 21.5639 108.349 21.177C108.349 20.7902 108.452 20.4463 108.679 20.1668C108.906 19.8874 109.195 19.651 109.567 19.4575C109.938 19.2641 110.371 19.0921 110.846 18.9632C111.424 18.8127 112.063 18.6838 112.806 18.5763C113.528 18.4688 114.354 18.3614 115.262 18.2539C115.839 18.1894 116.479 18.1034 117.139 18.0175C117.139 18.2754 117.139 18.5333 117.098 18.8557C117.077 19.4146 116.954 19.9089 116.768 20.3603L116.747 20.3818Z" fill="white"/>
<path d="M144.025 9.87131C142.829 9.87131 141.735 10.0862 140.765 10.5376C139.837 10.9675 139.094 11.5693 138.537 12.3216C138.062 11.5693 137.423 10.9675 136.556 10.5376C135.648 10.0862 134.554 9.87131 133.275 9.87131C131.996 9.87131 130.943 10.0862 129.974 10.5376C129.21 10.8815 128.591 11.3759 128.075 11.9347V10.2367H124.96V25.3254H128.488V15.8896C128.488 14.8579 128.818 14.0411 129.499 13.3963C130.18 12.773 131.067 12.4506 132.181 12.4506C133.296 12.4506 134.183 12.773 134.864 13.3963C135.524 14.0196 135.854 14.8794 135.854 15.9756V25.3254H139.341V15.8896C139.341 15.1373 139.507 14.4925 139.857 13.9766C140.208 13.4608 140.641 13.0954 141.199 12.8375C141.756 12.5795 142.354 12.4506 143.035 12.4506C144.129 12.4506 145.016 12.7515 145.676 13.3748C146.357 13.9766 146.687 14.8364 146.687 15.9326V25.3254H150.174V15.2233C150.174 13.6112 149.659 12.3001 148.586 11.3329C147.513 10.3657 146.006 9.87131 144.046 9.87131H144.025Z" fill="#AFA9FF"/>
<path d="M158.366 10.2582V25.3468H154.879V12.4935L158.366 10.2582Z" fill="#AFA9FF"/>
<path d="M172.211 17.7165L178.814 10.2582H174.667L170.21 15.4382L165.691 10.2582H161.544L168.167 17.7165L161.379 25.3468H165.567L170.21 19.9949L174.811 25.3468H179L172.211 17.7165Z" fill="#AFA9FF"/>
<path d="M48.4486 29.4737C47.7058 29.4737 47.0455 29.6027 46.4471 29.8821C45.8694 30.14 45.4154 30.5054 45.0647 30.9783C44.7758 30.5269 44.3837 30.14 43.8472 29.8821C43.2901 29.6027 42.6092 29.4737 41.8251 29.4737C41.041 29.4737 40.4014 29.6027 39.803 29.8821C39.3284 30.097 38.957 30.3979 38.6268 30.7418V29.7101H36.7079V38.9955H38.8745V33.1921C38.8745 32.5688 39.0808 32.053 39.4935 31.6661C39.9062 31.2792 40.4633 31.0857 41.1442 31.0857C41.8251 31.0857 42.3822 31.2792 42.7949 31.6661C43.2076 32.053 43.4139 32.5903 43.4139 33.2566V39.017H45.5599V33.2136C45.5599 32.7408 45.663 32.3539 45.8694 32.0315C46.0757 31.7091 46.3646 31.4941 46.6947 31.3222C47.0455 31.1717 47.4169 31.0857 47.8296 31.0857C48.5105 31.0857 49.047 31.2792 49.4597 31.6446C49.8724 32.01 50.0787 32.5473 50.0787 33.2136V38.9955H52.2247V32.7837C52.2247 31.795 51.9151 30.9783 51.2549 30.3764C50.5946 29.7746 49.666 29.4737 48.4486 29.4737Z" fill="#AFA9FF"/>
<path d="M62.5211 30.0755C61.6957 29.6671 60.7259 29.4522 59.6117 29.4522C58.4974 29.4522 57.5689 29.6671 56.7436 30.0755C55.9182 30.4839 55.2785 31.0642 54.8452 31.795C54.3913 32.5258 54.1643 33.3855 54.1643 34.3528C54.1643 35.32 54.3913 36.1583 54.8246 36.9105C55.2579 37.6628 55.8976 38.2217 56.7229 38.6515C57.5483 39.0599 58.4974 39.2749 59.6117 39.2749C60.7259 39.2749 61.6751 39.0599 62.5004 38.6515C63.3258 38.2432 63.9448 37.6628 64.3988 36.932C64.8527 36.2012 65.0797 35.3415 65.0797 34.3743C65.0797 33.407 64.8527 32.5688 64.3988 31.838C63.9448 31.1072 63.3258 30.5269 62.5004 30.1185L62.5211 30.0755ZM62.0052 36.6526C61.4687 37.2544 60.6847 37.5553 59.6117 37.5553C58.5387 37.5553 57.7959 37.2544 57.2594 36.6741C56.7229 36.0938 56.4547 35.32 56.4547 34.3313C56.4547 33.708 56.5785 33.1491 56.8055 32.6763C57.0324 32.2034 57.3832 31.8165 57.8578 31.5586C58.3324 31.2792 58.9101 31.1502 59.6323 31.1502C60.6847 31.1502 61.4687 31.4511 62.0052 32.0314C62.5417 32.6118 62.81 33.3855 62.81 34.3528C62.81 35.32 62.5417 36.0723 62.0259 36.6741L62.0052 36.6526Z" fill="#AFA9FF"/>
<path d="M71.0635 36.7386L68.0922 29.7101H65.9257L69.9699 38.9954H72.1571L76.2014 29.7101H74.0142L71.0635 36.7386Z" fill="#AFA9FF"/>
<path d="M80.4313 26.4431H78.2648V28.1841H80.4313V26.4431Z" fill="#AFA9FF"/>
<path d="M80.4313 29.7101H78.2648V38.9954H80.4313V29.7101Z" fill="#AFA9FF"/>
<path d="M90.0881 37.1685C89.5929 37.4264 89.0151 37.5554 88.3342 37.5554C87.3025 37.5554 86.5184 37.2759 85.9819 36.7171C85.5486 36.2657 85.3217 35.6209 85.2391 34.8471H93.4927C93.5753 33.7295 93.4102 32.7837 93.0181 31.967C92.6261 31.1502 92.0277 30.5269 91.223 30.097C90.4183 29.6671 89.4485 29.4307 88.3136 29.4307C87.1787 29.4307 86.2708 29.6241 85.4661 30.0325C84.6407 30.4409 84.0011 31.0212 83.5471 31.752C83.0932 32.4828 82.8662 33.3856 82.8662 34.3958C82.8662 35.363 83.0932 36.2012 83.5678 36.9105C84.0217 37.6413 84.682 38.2002 85.528 38.6086C86.3534 39.0169 87.3438 39.2104 88.4374 39.2104C89.531 39.2104 90.5008 38.974 91.3674 38.5226C92.2547 38.0712 92.915 37.4264 93.3483 36.5881L91.2436 36.0293C90.9754 36.5022 90.5833 36.8676 90.0881 37.1255V37.1685ZM85.9819 31.881C86.5184 31.3222 87.3438 31.0212 88.4168 31.0212C89.3866 31.0212 90.1294 31.2792 90.604 31.795C90.9547 32.1819 91.1405 32.7622 91.2436 33.4285H85.301C85.4248 32.8052 85.6105 32.2464 85.9819 31.8595V31.881Z" fill="#AFA9FF"/>
<path d="M153.187 8.30226L154.198 5.80898C154.446 5.18566 154.446 4.45487 154.198 3.83154L153.187 1.33826C152.981 0.800916 153.538 0.306558 154.012 0.607472L159.831 4.3259C160.202 4.56233 160.202 5.09968 159.831 5.33611L154.012 9.05454C153.538 9.35546 152.981 8.8611 153.187 8.32375V8.30226Z" fill="white"/>
<path d="M26.2465 24.5731L4.60138 39.9627C2.64115 41.3598 0 39.8982 0 37.4264V28.8074C0 27.6252 0.557118 26.5075 1.50628 25.8412L6.82986 22.0583L1.50628 18.2754C0.557118 17.6091 0 16.4914 0 15.3092V6.64724C0 4.17545 2.64115 2.71387 4.60138 4.11097L26.2465 19.5005C27.9591 20.7257 27.9591 23.3479 26.2465 24.5731Z" fill="url(#paint0_linear_112_3401)"/>
<path d="M14.4232 27.4318C16.3009 28.7644 16.3009 31.6446 14.4232 32.9772L4.60138 39.9627C2.64115 41.3598 0 39.8982 0 37.4264V28.8074C0 27.6252 0.557118 26.5075 1.50628 25.8412L6.85049 22.0583L14.4438 27.4533L14.4232 27.4318Z" fill="url(#paint1_linear_112_3401)"/>
</g>
<defs>
<linearGradient id="paint0_linear_112_3401" x1="-18.4262" y1="9.59189" x2="24.216" y2="32.4823" gradientUnits="userSpaceOnUse">
<stop stop-color="#5342FD"/>
<stop offset="0.49" stop-color="#7E6EFE"/>
<stop offset="0.86" stop-color="#A8A5FF"/>
<stop offset="1" stop-color="#AFA9FF"/>
</linearGradient>
<linearGradient id="paint1_linear_112_3401" x1="14.3406" y1="23.9068" x2="-8.4231" y2="42.0154" gradientUnits="userSpaceOnUse">
<stop stop-color="#5342FD"/>
<stop offset="0.47" stop-color="#7E6EFE"/>
<stop offset="0.99" stop-color="#A8A5FF"/>
</linearGradient>
<clipPath id="clip0_112_3401">
<rect width="179" height="40" fill="white" transform="translate(0 0.5)"/>
</clipPath>
</defs>
</svg>
