<svg width="79" height="32" viewBox="0 0 79 32" fill="none" xmlns="http://www.w3.org/2000/svg">
<path d="M4.31247 32C3.82069 32 3.3163 31.9159 2.82452 31.7477C0.59259 30.9666 -0.554899 28.6113 0.264736 26.4844L9.45725 2.69164C10.2769 0.564712 12.7484 -0.528794 14.9803 0.252281C17.2123 1.03336 18.3597 3.3886 17.5401 5.51553L8.34759 29.2963C7.70449 30.9546 6.05262 31.988 4.29986 31.988L4.31247 32Z" fill="#FF3E33"/>
<path d="M16.544 32C16.0522 32 15.5478 31.9159 15.056 31.7477C12.8241 30.9666 11.6766 28.6113 12.4962 26.4844L21.6887 2.69164C22.521 0.564712 24.9925 -0.528794 27.2244 0.252281C29.4563 1.03336 30.6038 3.3886 29.7842 5.51553L20.5917 29.2963C19.9486 30.9546 18.2967 31.988 16.544 31.988V32Z" fill="#FF3E33"/>
<path d="M28.788 32C28.2962 32 27.7918 31.9159 27.3001 31.7477C25.0681 30.9666 23.9207 28.6113 24.7403 26.4844L33.9328 2.69164C34.7524 0.564712 37.2239 -0.528794 39.4559 0.252281C41.6878 1.03336 42.8353 3.3886 42.0157 5.51553L32.8231 29.2963C32.18 30.9546 30.5282 31.988 28.7754 31.988L28.788 32Z" fill="#FF3E33"/>
<path d="M41.0195 32C40.5277 32 40.0233 31.9159 39.5315 31.7477C37.2996 30.9666 36.1521 28.6113 36.9717 26.4844L46.1642 2.70366C46.9839 0.576731 49.4554 -0.516775 51.6873 0.2643C53.9192 1.04538 55.0667 3.40062 54.2471 5.52755L45.0546 29.3083C44.4115 30.9666 42.7596 32 41.0068 32H41.0195Z" fill="#FF3E33"/>
<path d="M53.2636 32C52.7718 32 52.2674 31.9159 51.7756 31.7477C49.5437 30.9666 48.3962 28.6113 49.2158 26.4844L58.4083 2.70366C59.228 0.576731 61.6995 -0.516775 63.9314 0.2643C66.1633 1.04538 67.3108 3.40062 66.4912 5.52755L57.2987 29.3083C56.6556 30.9666 55.0163 32 53.2509 32H53.2636Z" fill="#FF3E33"/>
<path d="M65.5076 32C65.0158 32 64.5115 31.9159 64.0197 31.7477C61.7878 30.9666 60.6403 28.6113 61.4599 26.4844L70.6524 2.70366C71.472 0.576731 73.9436 -0.516775 76.1755 0.2643C78.4074 1.04538 79.5549 3.40062 78.7353 5.52755L69.5428 29.3083C68.8997 30.9666 67.2478 32 65.495 32H65.5076Z" fill="#FF3E33"/>
</svg>
