<svg width="55" height="46" viewBox="0 0 55 46" fill="none" xmlns="http://www.w3.org/2000/svg">
<path fill-rule="evenodd" clip-rule="evenodd" d="M18.7137 17.2817H31.6294C32.356 17.2817 32.9491 17.8749 32.9491 18.6015V21.0334C32.9491 21.0334 32.9788 21.1668 33.0529 21.1965C33.1122 21.2261 33.1864 21.2261 33.2457 21.1816L37.2939 18.1714C37.4866 18.0232 37.7239 18.0083 37.9315 18.1121C38.1391 18.2159 38.2725 18.4235 38.2725 18.6608V27.4393C38.2725 27.6765 38.1539 27.8841 37.9315 27.9879C37.7239 28.0917 37.4866 28.0769 37.2939 27.9286L33.2457 24.9184C33.2457 24.9184 33.1122 24.8739 33.0529 24.9036C32.9936 24.9333 32.9491 24.9926 32.9491 25.0667V27.3948C32.9491 28.1214 32.356 28.7145 31.6294 28.7145H18.7137C17.9871 28.7145 17.394 28.1214 17.394 27.3948V18.5866C17.394 17.86 17.9871 17.2669 18.7137 17.2669V17.2817ZM27.8333 6.99072C36.6711 6.99072 43.8333 14.1529 43.8333 22.9907C43.8333 31.8285 36.6711 38.9907 27.8333 38.9907C18.9954 38.9907 11.8333 31.8434 11.8333 23.0056C11.8333 14.1677 18.9954 6.99072 27.8333 6.99072Z" fill="#212146"/>
</svg>
