<svg width="55" height="46" viewBox="0 0 55 46" fill="none" xmlns="http://www.w3.org/2000/svg">
<path d="M41.9015 23.625H40.5548V36.7159C40.5548 36.8905 40.502 37.065 40.4096 37.2271C40.3172 37.3892 40.2115 37.5263 40.0795 37.651C39.9343 37.7757 39.7759 37.8629 39.6042 37.9128C39.4194 37.9751 39.2478 38.0001 39.0497 37.9876H31.0622V29.0609C31.0622 28.799 30.9697 28.5871 30.7717 28.4001C30.5737 28.2131 30.3492 28.1258 30.072 28.1258H24.276C23.9988 28.1258 23.7743 28.2131 23.5763 28.4001C23.3783 28.5871 23.2858 28.799 23.2858 29.0609V37.9876H15.2983C15.1135 37.9876 14.9286 37.9751 14.7438 37.9128C14.5722 37.8505 14.4005 37.7632 14.2685 37.651C14.1233 37.5263 14.0176 37.3892 13.9384 37.2271C13.8592 37.065 13.8064 36.9029 13.7932 36.7159V23.6125H12.4333C10.9282 23.6125 10.1097 22.2785 11.0999 21.4183L25.966 8.45202C26.3488 8.14033 26.7977 7.99072 27.3126 7.99072C27.8143 7.99072 28.2632 8.1528 28.6461 8.46449C33.5178 12.7907 38.3764 17.117 43.2481 21.4432C44.2119 22.3159 43.4066 23.6375 41.9015 23.6375V23.625Z" fill="#212146"/>
</svg>
