<svg width="55" height="46" viewBox="0 0 55 46" fill="none" xmlns="http://www.w3.org/2000/svg">
<path d="M30.3311 37.1462V34.3151H24.6689V37.1462H21.8378C21.0596 37.1462 20.4156 37.7768 20.4156 38.5685C20.4156 39.3601 21.0462 39.9907 21.8378 39.9907H33.1756C33.9538 39.9907 34.5978 39.3601 34.5978 38.5685C34.5978 37.7768 33.9672 37.1462 33.1756 37.1462H30.3311Z" fill="#212146"/>
<path d="M42.0177 19.4485H41.6688V31.484H13.3445V14.484H25.38V11.6529H12.9822C11.6271 11.6529 10.5 12.7665 10.5 14.1351V31.8463C10.5 33.2014 11.6136 34.3285 12.9822 34.3285H42.0177C43.3729 34.3285 44.4999 33.2149 44.4999 31.8463V18.7239C43.7754 19.1801 42.9301 19.4485 42.0177 19.4485Z" fill="#212146"/>
<path d="M28.9222 22.9908C28.9222 24.5607 27.6476 25.8219 26.0911 25.8219C24.5347 25.8219 23.2601 24.5472 23.2601 22.9908C23.2601 21.4344 24.5347 20.1597 26.0911 20.1597C27.6476 20.1597 28.9222 21.4344 28.9222 22.9908Z" fill="#212146"/>
<path d="M31.7533 31.1351V31.484H20.4156V31.1351C20.4156 28.9883 22.1598 27.244 24.3066 27.244H27.8488C29.9956 27.244 31.7399 28.9883 31.7399 31.1351H31.7533Z" fill="#212146"/>
<path d="M39.5355 12.7129C38.9452 12.7129 38.4755 12.2433 38.4755 11.6529C38.4755 11.0625 38.9452 10.5929 39.5355 10.5929C40.1259 10.5929 40.5955 11.0625 40.5955 11.6529C40.5955 12.2433 40.1259 12.7129 39.5355 12.7129ZM35.9933 12.7129C35.4029 12.7129 34.9333 12.2433 34.9333 11.6529C34.9333 11.0625 35.4029 10.5929 35.9933 10.5929C36.5837 10.5929 37.0533 11.0625 37.0533 11.6529C37.0533 12.2433 36.5837 12.7129 35.9933 12.7129ZM32.4511 12.7129C31.8607 12.7129 31.3911 12.2433 31.3911 11.6529C31.3911 11.0625 31.8607 10.5929 32.4511 10.5929C33.0415 10.5929 33.5111 11.0625 33.5111 11.6529C33.5111 12.2433 33.0415 12.7129 32.4511 12.7129ZM42.0178 5.99072H29.9823C28.6137 5.99072 27.5 7.10438 27.5 8.47297V14.8463C27.5 16.2149 28.6137 17.3285 29.9823 17.3285H31.7534V20.5219C31.7534 20.9647 32.0217 21.3538 32.4242 21.5148C32.545 21.5685 32.6792 21.5819 32.8133 21.5819C33.1085 21.5819 33.3903 21.4611 33.5916 21.233L37.174 17.3285H42.0178C43.3863 17.3285 44.5 16.2149 44.5 14.8463V8.47297C44.5 7.10438 43.3863 5.99072 42.0178 5.99072Z" fill="#212146"/>
</svg>
