<svg width="30" height="26" viewBox="0 0 30 26" fill="none" xmlns="http://www.w3.org/2000/svg">
<path d="M8.1743 14.1369C8.29574 14.2912 8.48803 14.3735 8.68032 14.3735C8.69044 14.3735 8.71068 14.3735 8.7208 14.3735C8.93333 14.3632 9.1155 14.2501 9.22682 14.0649L10.9878 11.2765C11.1497 11.009 11.1193 10.6797 10.9169 10.4636L13.2143 6.98592L12.941 6.80071L10.6437 10.2887C10.3704 10.1961 10.0567 10.299 9.89477 10.5665L8.60948 12.5935L6.889 10.4945C6.77768 10.3608 6.61575 10.2784 6.45382 10.2579C6.3931 10.2373 6.32226 10.227 6.25141 10.227H3.08371C3.08371 10.227 3.07359 10.227 3.06347 10.227C2.92179 10.227 2.66877 10.2579 2.37528 10.4019C1.92998 10.6283 1.45432 11.1119 1.13047 11.9762C0.786371 12.8404 0.563721 14.0854 0.563721 15.9786C0.563721 16.4622 0.583962 16.9973 0.614323 17.5735C0.634564 17.9233 0.928057 18.2011 1.27215 18.2011C1.28227 18.2011 1.30251 18.2011 1.31263 18.2011C1.67697 18.1805 1.95022 17.8616 1.92998 17.4911C1.89962 16.9355 1.87938 16.4314 1.87938 15.9683C1.87938 13.9517 2.16275 12.8096 2.44612 12.2231V24.7347C2.44612 25.3006 2.90154 25.7636 3.45817 25.7636C4.01479 25.7636 4.47021 25.3006 4.47021 24.7347V17.203H4.85479V24.7347C4.85479 25.3006 5.31021 25.7636 5.86684 25.7636C6.42346 25.7636 6.87888 25.3006 6.87888 24.7347V12.5626L8.1743 14.1369Z" fill="#212146"/>
<path d="M6.51455 7.87073C6.51455 8.11767 6.46394 8.35432 6.37286 8.59097C6.28178 8.82762 6.15021 9.02312 5.96804 9.19803C5.79599 9.37295 5.59358 9.50671 5.37094 9.6096C5.14829 9.7022 4.90539 9.75365 4.6625 9.75365C4.41961 9.75365 4.18684 9.7022 3.95407 9.6096C3.73142 9.517 3.52901 9.38324 3.35697 9.19803C3.18492 9.02312 3.05335 8.81734 2.95215 8.59097C2.85094 8.36461 2.81046 8.11767 2.81046 7.87073C2.81046 7.62379 2.86106 7.38714 2.95215 7.15049C3.04323 6.91384 3.1748 6.71835 3.35697 6.54343C3.52901 6.36852 3.73142 6.23476 3.95407 6.13187C4.17672 6.03926 4.41961 5.98782 4.6625 5.98782C4.90539 5.98782 5.13816 6.03926 5.37094 6.13187C5.59358 6.22447 5.79599 6.35823 5.96804 6.54343C6.14009 6.71835 6.27165 6.92413 6.37286 7.15049C6.47406 7.37685 6.51455 7.62379 6.51455 7.87073Z" fill="#212146"/>
<path d="M26.9376 0.833008H5.28997V5.05156H5.69478V1.25486H26.5328V12.8507H11.3218V13.2623H26.9376V0.833008Z" fill="#212146"/>
<path d="M13.7911 18.7155C13.7911 18.9625 13.7405 19.1991 13.6495 19.4358C13.5584 19.6621 13.4268 19.8679 13.2446 20.0428C13.0726 20.2177 12.8702 20.3515 12.6475 20.4544C12.4249 20.5573 12.182 20.5984 11.9391 20.5984C11.6962 20.5984 11.4634 20.547 11.2307 20.4544C10.9979 20.3618 10.8056 20.228 10.6336 20.0428C10.4615 19.8679 10.33 19.6621 10.2287 19.4358C10.1377 19.2094 10.0871 18.9625 10.0871 18.7155C10.0871 18.4686 10.1377 18.2319 10.2287 17.9953C10.3198 17.7689 10.4514 17.5631 10.6336 17.3882C10.8056 17.2133 11.008 17.0796 11.2307 16.9767C11.4533 16.8841 11.6962 16.8326 11.9391 16.8326C12.182 16.8326 12.4148 16.8841 12.6475 16.9767C12.8702 17.0693 13.0726 17.203 13.2446 17.3882C13.4167 17.5631 13.5483 17.7689 13.6495 17.9953C13.7405 18.2217 13.7911 18.4686 13.7911 18.7155Z" fill="#212146"/>
<path d="M20.7237 18.7155C20.7237 18.9625 20.6731 19.1991 20.582 19.4358C20.4909 19.6621 20.3593 19.8679 20.1772 20.0428C20.0051 20.2177 19.8027 20.3515 19.58 20.4544C19.3574 20.5573 19.1145 20.5984 18.8716 20.5984C18.6287 20.5984 18.396 20.547 18.1632 20.4544C17.9304 20.3618 17.7381 20.228 17.5661 20.0428C17.394 19.8576 17.2625 19.6621 17.1613 19.4358C17.0702 19.2094 17.0196 18.9625 17.0196 18.7155C17.0196 18.4686 17.0702 18.2319 17.1613 17.9953C17.2523 17.7689 17.3839 17.5631 17.5661 17.3882C17.7482 17.2133 17.9405 17.0796 18.1632 16.9767C18.3858 16.8841 18.6287 16.8326 18.8716 16.8326C19.1145 16.8326 19.3473 16.8841 19.58 16.9767C19.8027 17.0693 20.0051 17.203 20.1772 17.3882C20.3492 17.5631 20.4808 17.7689 20.582 17.9953C20.6731 18.2217 20.7237 18.4686 20.7237 18.7155Z" fill="#212146"/>
<path d="M9.72273 23.0782V25.6093H14.1555V23.0885C14.2061 23.1914 14.2567 23.3046 14.2972 23.4383C14.4692 23.9116 14.6109 24.6113 14.6817 25.6093H16.1087C16.1998 24.3335 16.4225 23.5412 16.6451 23.0782V25.6093H21.0779V23.0885C21.1285 23.1914 21.1791 23.3046 21.2196 23.4383C21.3916 23.9116 21.5333 24.6113 21.6041 25.6093H23.0311C23.1222 24.3335 23.3449 23.5412 23.5675 23.0782V25.6093H28.0003V23.0885C28.0509 23.1914 28.1015 23.3046 28.1419 23.4383C28.314 23.9116 28.4557 24.6113 28.5265 25.6093H29.8422C29.7309 23.8396 29.3868 22.7695 28.9415 22.0802C28.6682 21.6686 28.3545 21.4011 28.061 21.2467C27.7776 21.1027 27.5347 21.0718 27.3829 21.0718C27.3829 21.0718 27.3627 21.0718 27.3525 21.0718H24.1848C24.1848 21.0718 24.1646 21.0718 24.1545 21.0718C24.0027 21.0718 23.7598 21.1027 23.4865 21.2467C23.0716 21.4525 22.6364 21.8847 22.3126 22.6461C22.2215 22.43 22.1203 22.2448 22.009 22.0802C21.7357 21.6686 21.422 21.4011 21.1285 21.2467C20.8451 21.1027 20.6022 21.0718 20.4504 21.0718C20.4504 21.0718 20.4302 21.0718 20.42 21.0718H17.2523C17.2523 21.0718 17.2321 21.0718 17.222 21.0718C17.0702 21.0718 16.8273 21.1027 16.554 21.2467C16.1391 21.4525 15.7039 21.8847 15.3801 22.6461C15.289 22.43 15.1878 22.2448 15.0764 22.0802C14.8032 21.6686 14.4895 21.4011 14.196 21.2467C13.9126 21.1027 13.6697 21.0718 13.5179 21.0718C13.5179 21.0718 13.4977 21.0718 13.4875 21.0718H10.3198C10.3198 21.0718 10.2996 21.0718 10.2895 21.0718C10.1377 21.0718 9.89478 21.1027 9.62152 21.2467C9.17622 21.4731 8.70056 21.9567 8.37671 22.821C8.11358 23.4898 7.92129 24.3746 7.85045 25.6093H9.1661C9.25719 24.3335 9.47984 23.5412 9.70249 23.0782H9.72273Z" fill="#212146"/>
<path d="M27.6562 18.7155C27.6562 18.9625 27.6056 19.1991 27.5145 19.4358C27.4234 19.6621 27.2918 19.8679 27.1097 20.0428C26.9275 20.2177 26.7352 20.3515 26.5126 20.4544C26.2899 20.5573 26.047 20.5984 25.8041 20.5984C25.5612 20.5984 25.3285 20.547 25.0957 20.4544C24.8629 20.3618 24.6706 20.228 24.4986 20.0428C24.3265 19.8679 24.195 19.6621 24.0938 19.4358C24.0027 19.2094 23.9521 18.9625 23.9521 18.7155C23.9521 18.4686 24.0027 18.2319 24.0938 17.9953C24.1849 17.7689 24.3164 17.5631 24.4986 17.3882C24.6706 17.2133 24.873 17.0796 25.0957 16.9767C25.3183 16.8841 25.5612 16.8326 25.8041 16.8326C26.047 16.8326 26.2798 16.8841 26.5126 16.9767C26.7352 17.0693 26.9376 17.203 27.1097 17.3882C27.2817 17.5734 27.4133 17.7689 27.5145 17.9953C27.6056 18.2217 27.6562 18.4686 27.6562 18.7155Z" fill="#212146"/>
</svg>
