<svg width="31" height="31" viewBox="0 0 31 31" fill="none" xmlns="http://www.w3.org/2000/svg">
<path d="M12.5661 6.52635C12.5661 6.52635 12.5753 6.52635 12.5845 6.52635C12.8242 6.6462 13.1008 6.73839 13.3958 6.82136C13.9213 6.95965 14.5206 7.03341 15.1475 7.03341C15.7744 7.03341 16.3737 6.95965 16.8992 6.82136C17.1942 6.74761 17.4708 6.6462 17.7105 6.52635C17.7105 6.52635 17.7197 6.52635 17.7289 6.52635C18.0055 6.38806 18.2268 6.24055 18.3743 6.08382C17.9778 5.95475 17.5722 5.84412 17.1665 5.76114C16.512 5.63207 15.839 5.55832 15.1475 5.55832C14.4561 5.55832 13.783 5.62285 13.1285 5.76114C12.7136 5.84412 12.308 5.95475 11.9207 6.08382C12.0775 6.24055 12.2895 6.38806 12.5661 6.52635Z" fill="#FF3E33"/>
<path d="M11.2016 9.98359C11.3676 9.30136 11.5704 8.66523 11.8009 8.07519C11.93 7.75251 12.059 7.44828 12.2065 7.1717C11.7548 6.94121 11.4045 6.66464 11.1924 6.3604C9.39466 7.1256 7.85503 8.38865 6.75793 9.98359H11.2016Z" fill="#FF3E33"/>
<path d="M18.4019 10.841H11.8839C11.5981 12.2054 11.4413 13.7174 11.4137 15.2939H18.8721C18.8444 13.7174 18.6877 12.1962 18.4019 10.841Z" fill="#FF3E33"/>
<path d="M17.692 8.38865C17.563 8.05675 17.4247 7.76173 17.2864 7.48515C16.6503 7.67876 15.9127 7.78017 15.1475 7.78017C14.3823 7.78017 13.654 7.67876 13.0086 7.48515C12.8703 7.76173 12.732 8.06597 12.603 8.38865C12.4094 8.87727 12.2342 9.41199 12.0867 9.98359H18.1991C18.0516 9.41199 17.8764 8.88649 17.6828 8.38865H17.692Z" fill="#FF3E33"/>
<path d="M18.4849 8.07519C18.7154 8.65601 18.9182 9.30136 19.0842 9.98359H23.5279C22.4308 8.38865 20.8911 7.1256 19.0934 6.3604C18.8813 6.66464 18.5402 6.94121 18.0792 7.1717C18.2175 7.44828 18.3558 7.75251 18.4849 8.07519Z" fill="#FF3E33"/>
<path d="M13.0086 23.9693C13.6448 23.7757 14.3823 23.6743 15.1475 23.6743C15.9127 23.6743 16.641 23.7757 17.2864 23.9693C17.4247 23.6927 17.563 23.3885 17.692 23.0658C17.8949 22.5495 18.07 21.9871 18.2268 21.3879H12.0683C12.225 21.9871 12.4002 22.5495 12.603 23.0658C12.732 23.3977 12.8703 23.6927 13.0086 23.9693Z" fill="#FF3E33"/>
<path d="M18.8721 16.1513H11.4137C11.4413 17.7001 11.5981 19.1845 11.8654 20.5213H18.4111C18.6877 19.1845 18.8444 17.7001 18.8629 16.1513H18.8721Z" fill="#FF3E33"/>
<path d="M11.008 10.841H6.22321C5.49489 12.1778 5.04314 13.6897 4.97861 15.2939H10.5471C10.5747 13.7266 10.7315 12.2147 10.9988 10.841H11.008Z" fill="#FF3E33"/>
<path d="M19.2962 20.5305H24.1087C24.8186 19.2213 25.2426 17.737 25.3072 16.1605H19.7387C19.7111 17.7001 19.5636 19.1845 19.2962 20.5305Z" fill="#FF3E33"/>
<path d="M19.2778 10.841C19.5543 12.2147 19.7111 13.7266 19.7295 15.2939H25.298C25.2334 13.6805 24.7909 12.1686 24.0534 10.841H19.2685H19.2778Z" fill="#FF3E33"/>
<path d="M18.4849 23.37C18.3558 23.6927 18.2268 23.9969 18.0792 24.2735C18.531 24.504 18.8813 24.7806 19.0934 25.0848C20.928 24.3104 22.4861 23.0105 23.5832 21.3787H19.1026C18.9274 22.0885 18.7246 22.7616 18.4849 23.37Z" fill="#FF3E33"/>
<path d="M25.3072 20.0142C24.754 21.3233 23.9612 22.5034 22.947 23.5175C21.9329 24.5317 20.7528 25.3245 19.4437 25.8777C19.416 25.8869 19.3976 25.8961 19.3699 25.9053C19.0934 26.016 18.8168 26.1266 18.531 26.2096C17.4431 26.5599 16.3091 26.7351 15.1475 26.7351C13.9859 26.7351 12.8519 26.5599 11.764 26.2096C11.4782 26.1174 11.2016 26.016 10.9251 25.9053C10.8974 25.8961 10.879 25.8869 10.8513 25.8777C9.54216 25.3245 8.36209 24.5317 7.34797 23.5175C6.33384 22.5034 5.54098 21.3233 4.98782 20.0142C4.41623 18.659 4.12121 17.2115 4.12121 15.718C4.12121 14.2245 4.41623 12.7863 4.98782 11.4218C5.54098 10.1127 6.33384 8.93258 7.34797 7.91846C8.36209 6.90434 9.54216 6.11148 10.8513 5.55832C10.879 5.5491 10.8974 5.53988 10.9251 5.53066C11.2016 5.42003 11.4782 5.3094 11.764 5.22642C12.8519 4.87609 13.9859 4.70092 15.1475 4.70092C16.3091 4.70092 17.4431 4.87609 18.531 5.22642C18.8168 5.31862 19.0934 5.42003 19.3699 5.53066C19.3976 5.53988 19.416 5.5491 19.4437 5.55832C20.7528 6.11148 21.9329 6.90434 22.947 7.91846C23.9612 8.93258 24.754 10.1127 25.3072 11.4218C25.8788 12.777 26.1738 14.2245 26.1738 15.718C26.1738 17.2115 25.8788 18.6497 25.3072 20.0142ZM15.1475 0.782715C6.89622 0.782715 0.203003 7.47593 0.203003 15.7272C0.203003 23.9785 6.89622 30.6717 15.1475 30.6717C23.3988 30.6717 30.092 23.9785 30.092 15.7272C30.092 7.47593 23.3988 0.782715 15.1475 0.782715Z" fill="#FF3E33"/>
<path d="M17.7197 24.9281C17.7197 24.9281 17.7105 24.9281 17.7013 24.9281C17.4616 24.8082 17.185 24.716 16.89 24.6331C16.3645 24.4948 15.7652 24.421 15.1383 24.421C14.5114 24.421 13.9121 24.4948 13.3866 24.6331C13.0916 24.7068 12.815 24.8082 12.5753 24.9281C12.5753 24.9281 12.5661 24.9281 12.5569 24.9281C12.2803 25.0664 12.059 25.2139 11.9115 25.3706C12.308 25.4997 12.7136 25.6103 13.1193 25.6933C13.7738 25.8224 14.4468 25.8961 15.1383 25.8961C15.8297 25.8961 16.5027 25.8316 17.1573 25.6933C17.5722 25.6103 17.9778 25.4997 18.365 25.3706C18.2083 25.2139 17.9963 25.0664 17.7197 24.9281Z" fill="#FF3E33"/>
<path d="M11.8009 23.37C11.5612 22.7616 11.3584 22.0978 11.1832 21.3787H6.70262C7.79972 23.0105 9.35778 24.3104 11.1924 25.0848C11.4045 24.7806 11.7456 24.504 12.2065 24.2735C12.0683 23.9969 11.93 23.6927 11.8009 23.37Z" fill="#FF3E33"/>
<path d="M10.5563 16.1513H4.98782C5.05236 17.7278 5.47645 19.2121 6.18634 20.5213H10.9988C10.7315 19.166 10.5839 17.6909 10.5563 16.1513Z" fill="#FF3E33"/>
</svg>
