<svg width="114" height="114" viewBox="0 0 114 114" fill="none" xmlns="http://www.w3.org/2000/svg">
<path fill-rule="evenodd" clip-rule="evenodd" d="M24.5116 36.6617H70.5236C73.1121 36.6617 75.2252 38.7748 75.2252 41.3633V50.0269C75.2252 50.0269 75.3309 50.5023 75.595 50.608C75.8063 50.7136 76.0704 50.7136 76.2817 50.5551L90.7034 39.8313C91.3902 39.3031 92.2354 39.2502 92.975 39.62C93.7146 39.9898 94.19 40.7294 94.19 41.5746V72.848C94.19 73.6932 93.7674 74.4328 92.975 74.8026C92.2354 75.1724 91.3902 75.1196 90.7034 74.5913L76.2817 63.8675C76.2817 63.8675 75.8063 63.709 75.595 63.8146C75.3837 63.9203 75.2252 64.1316 75.2252 64.3957V72.6895C75.2252 75.278 73.1121 77.3911 70.5236 77.3911H24.5116C21.9231 77.3911 19.81 75.278 19.81 72.6895V41.3105C19.81 38.722 21.9231 36.6089 24.5116 36.6089V36.6617ZM57 0C88.4847 0 114 25.5153 114 57C114 88.4847 88.4847 114 57 114C25.5153 114 0 88.5375 0 57.0528C0 25.5681 25.5153 0 57 0Z" fill="white"/>
</svg>
