<svg width="31" height="31" viewBox="0 0 31 31" fill="none" xmlns="http://www.w3.org/2000/svg">
<path d="M24.8278 14.9147C24.8278 14.9147 24.8186 14.9516 24.8093 14.9608C24.459 15.6891 24.0257 16.482 23.5002 17.3117C22.7719 18.4457 19.9876 21.8845 19.0749 22.8157C18.3835 23.5163 17.7013 24.1064 17.0651 24.6042C17.0467 24.6134 17.0375 24.6227 17.019 24.6319C16.4935 24.973 14.7603 26.0056 12.4278 25.7474C11.008 25.5907 9.93859 25.0099 9.31168 24.5858C9.0812 24.4291 8.77696 24.4383 8.5557 24.6042C8.38053 24.7333 8.15005 24.7702 7.94722 24.6964C7.68908 24.6042 7.35719 24.4291 7.08061 24.0972C6.89622 23.8851 6.79481 23.6639 6.73027 23.4795C6.68418 23.3596 6.68418 23.2305 6.71184 23.1107C6.92388 22.281 7.38485 20.9626 8.40819 19.6258C9.34856 18.3904 10.3996 17.6252 11.1279 17.1919C11.2938 17.0905 11.4874 17.072 11.6718 17.1366C11.9023 17.2196 12.1789 17.3394 12.4647 17.5422C12.7874 17.7727 13.0178 18.0216 13.193 18.2429C13.3497 18.4549 13.3682 18.75 13.2207 18.9712C13.2022 19.0081 13.1746 19.045 13.1561 19.0726C12.9349 19.4137 13.0916 19.8747 13.4696 20.0222L14.6865 20.4924C14.9262 20.5846 15.1844 20.5293 15.3688 20.3541L20.2827 14.2417C20.421 14.0297 20.4117 13.7531 20.2827 13.5503L19.5636 12.4624C19.3423 12.1213 18.8629 12.0752 18.5679 12.361C18.5402 12.3886 18.5126 12.4163 18.4849 12.444C18.2913 12.6376 18.0055 12.6837 17.7658 12.573C17.5169 12.4532 17.2126 12.278 16.9268 12.0199C16.6687 11.7802 16.4843 11.5405 16.3552 11.3284C16.2538 11.1625 16.2354 10.9689 16.2907 10.7845C16.5581 9.9824 17.0743 8.78389 18.0792 7.60381C19.1671 6.31311 20.3564 5.58478 21.1216 5.19757C21.2323 5.14226 21.3613 5.1146 21.4904 5.13304C21.6748 5.15148 21.9145 5.20679 22.1634 5.33586C22.5414 5.53869 22.7903 5.82449 22.9286 6.05497C23.0485 6.23936 23.0577 6.46984 22.9655 6.66344C22.8456 6.91237 22.9102 7.2166 23.113 7.40099C23.6661 7.91727 24.459 8.8392 24.92 10.1852C25.676 12.4071 25.0398 14.3155 24.8186 14.9055L24.8278 14.9147ZM10.0584 6.79251C12.3817 6.79251 14.2625 8.40589 14.2625 10.3973C14.2625 12.3886 12.3817 14.002 10.0584 14.002C9.59748 14.002 9.14573 13.9375 8.73086 13.8176C8.38053 14.758 9.09964 15.6891 9.09964 15.6891C7.2189 15.2651 7.27421 13.5687 7.32953 13.1354C6.42604 12.4716 5.86366 11.4944 5.86366 10.3973C5.86366 8.40589 7.7444 6.79251 10.0677 6.79251H10.0584ZM15.1475 0.126953C6.89622 0.126953 0.203003 6.82017 0.203003 15.0715C0.203003 23.3227 6.89622 30.016 15.1475 30.016C23.3988 30.016 30.092 23.3227 30.092 15.0715C30.092 6.82017 23.3988 0.126953 15.1475 0.126953Z" fill="#FF3E33"/>
</svg>
