<svg width="68" height="68" viewBox="0 0 68 68" fill="none" xmlns="http://www.w3.org/2000/svg">
<mask id="mask0_169_380" style="mask-type:luminance" maskUnits="userSpaceOnUse" x="0" y="0" width="68" height="68">
<path d="M34 67.9898C52.7722 67.9898 67.99 52.7719 67.99 33.9998C67.99 15.2276 52.7722 0.00976562 34 0.00976562C15.2278 0.00976562 0.0100098 15.2276 0.0100098 33.9998C0.0100098 52.7719 15.2278 67.9898 34 67.9898Z" fill="white"/>
</mask>
<g mask="url(#mask0_169_380)">
<path d="M67.99 0.00976562H0V67.9998H67.99V0.00976562Z" fill="#43AD45"/>
</g>
<path d="M34.04 49.9297C33.52 49.9297 32.99 49.8997 32.47 49.8497C31.95 49.7997 31.43 49.7197 30.91 49.6197C30.4 49.5197 29.8901 49.3897 29.3801 49.2397C28.8701 49.0897 28.3801 48.9097 27.9001 48.7097C27.4201 48.5097 26.94 48.2797 26.48 48.0397C26.02 47.7897 25.5701 47.5197 25.1301 47.2297C24.6901 46.9397 24.2701 46.6297 23.8701 46.2897C23.4701 45.9497 23.0801 45.5997 22.7001 45.2297C22.3201 44.8597 21.9801 44.4697 21.6401 44.0597C21.3001 43.6497 20.9901 43.2297 20.7001 42.7997C20.4101 42.3597 20.1401 41.9097 19.8901 41.4497C19.6401 40.9897 19.42 40.5097 19.22 40.0297C19.02 39.5497 18.8401 39.0497 18.6901 38.5497C18.5401 38.0497 18.4101 37.5397 18.3101 37.0197C18.2101 36.4997 18.1301 35.9897 18.0801 35.4597C18.0301 34.9297 18.0001 34.4097 18.0001 33.8897C18.0001 25.0397 25.18 17.8597 34.03 17.8597C42.88 17.8597 50.0001 24.9797 50.0601 33.7797C50.1201 42.6097 42.87 49.9097 34.03 49.9097L34.04 49.9297ZM33.98 15.6197C23.78 15.6497 15.6301 23.9497 15.7601 34.1397C15.7801 36.2097 16.1501 38.2097 16.8601 40.1597C17.5701 42.0997 18.5801 43.8697 19.8901 45.4697C20.1001 45.7297 20.2201 46.0197 20.2501 46.3497C20.2801 46.6797 20.2101 46.9897 20.0501 47.2797L18.48 50.0997C18.04 50.8797 18.7501 51.8097 19.6201 51.5897L24.9501 50.2297C25.3301 50.1297 25.7001 50.1697 26.0601 50.3397C28.4501 51.4997 30.9701 52.1097 33.6201 52.1597C43.8701 52.3897 52.2901 44.1997 52.3201 33.9397C52.3501 23.7997 44.12 15.5697 33.98 15.5997V15.6197Z" fill="#FDFDFD"/>
<path d="M50.07 33.8999C50.07 34.4199 50.04 34.9499 49.99 35.4699C49.94 35.9899 49.86 36.5099 49.76 37.0299C49.66 37.5399 49.53 38.0499 49.38 38.5599C49.23 39.0599 49.05 39.5599 48.85 40.0399C48.65 40.5199 48.42 40.9999 48.18 41.4599C47.93 41.9199 47.66 42.3699 47.37 42.8099C47.08 43.2499 46.77 43.6699 46.43 44.0699C46.09 44.4699 45.74 44.8599 45.37 45.2399C45 45.6099 44.61 45.9599 44.2 46.2999C43.79 46.6399 43.37 46.9499 42.94 47.2399C42.51 47.5299 42.05 47.7999 41.59 48.0499C41.13 48.2999 40.65 48.5199 40.17 48.7199C39.69 48.9199 39.19 49.0999 38.69 49.2499C38.19 49.3999 37.68 49.5299 37.16 49.6299C36.64 49.7299 36.13 49.8099 35.6 49.8599C35.07 49.9099 34.55 49.9399 34.03 49.9399C33.51 49.9399 32.98 49.9099 32.46 49.8599C31.94 49.8099 31.42 49.7299 30.9 49.6299C30.39 49.5299 29.88 49.3999 29.37 49.2499C28.87 49.0999 28.37 48.9199 27.89 48.7199C27.41 48.5199 26.93 48.2899 26.47 48.0499C26.01 47.8099 25.56 47.5299 25.12 47.2399C24.68 46.9499 24.26 46.6399 23.86 46.2999C23.45 45.9699 23.07 45.6099 22.69 45.2399C22.32 44.8699 21.97 44.4799 21.63 44.0699C21.3 43.6599 20.98 43.2399 20.69 42.8099C20.4 42.3799 20.13 41.9199 19.88 41.4599C19.63 40.9999 19.41 40.5199 19.21 40.0399C19.01 39.5599 18.83 39.0599 18.68 38.5599C18.53 38.0599 18.4 37.5499 18.3 37.0299C18.2 36.5099 18.12 35.9999 18.07 35.4699C18.02 34.9399 17.99 34.4199 17.99 33.8999C17.99 33.3799 18.02 32.8499 18.07 32.3299C18.12 31.8099 18.2 31.2899 18.3 30.7699C18.4 30.2599 18.53 29.7499 18.68 29.2399C18.83 28.7299 19.01 28.2399 19.21 27.7599C19.41 27.2799 19.64 26.7999 19.88 26.3399C20.12 25.8799 20.4 25.4299 20.69 24.9899C20.98 24.5499 21.29 24.1299 21.63 23.7299C21.96 23.3199 22.32 22.9399 22.69 22.5599C23.06 22.1899 23.45 21.8399 23.86 21.4999C24.27 21.1699 24.69 20.8499 25.12 20.5599C25.56 20.2699 26.01 19.9999 26.47 19.7499C26.93 19.4999 27.41 19.2799 27.89 19.0799C28.37 18.8799 28.87 18.6999 29.37 18.5499C29.87 18.3999 30.38 18.2699 30.9 18.1699C31.41 18.0699 31.93 17.9899 32.46 17.9399C32.98 17.8899 33.51 17.8599 34.03 17.8599C34.55 17.8599 35.08 17.8899 35.6 17.9399C36.12 17.9899 36.64 18.0699 37.16 18.1699C37.68 18.2699 38.18 18.3999 38.69 18.5499C39.19 18.6999 39.69 18.8799 40.17 19.0799C40.65 19.2799 41.13 19.5099 41.59 19.7499C42.05 19.9999 42.5 20.2699 42.94 20.5599C43.38 20.8499 43.8 21.1599 44.2 21.4999C44.6 21.8399 44.99 22.1899 45.37 22.5599C45.74 22.9299 46.09 23.3199 46.43 23.7299C46.77 24.1399 47.08 24.5599 47.37 24.9899C47.66 25.4299 47.93 25.8799 48.18 26.3399C48.43 26.7999 48.65 27.2799 48.85 27.7599C49.05 28.2399 49.23 28.7399 49.38 29.2399C49.53 29.7399 49.66 30.2499 49.76 30.7699C49.86 31.2799 49.94 31.7999 49.99 32.3299C50.04 32.8499 50.07 33.3799 50.07 33.8999Z" fill="#43AD45"/>
<path d="M31.1799 26.11L32.14 28.02C32.35 28.44 32.42 28.88 32.33 29.35C32.24 29.82 32.03 30.21 31.69 30.53C31.35 30.85 31.1299 31.24 31.0499 31.7C30.9699 32.16 31.0299 32.6 31.2399 33.02C31.8099 34.17 32.81 35.76 34.33 36.91C34.68 37.17 35.07 37.32 35.51 37.34C35.95 37.36 36.3499 37.26 36.7199 37.03L37.34 36.66C37.93 36.3 38.55 36.24 39.2 36.49L41.65 37.42C41.91 37.52 42.1499 37.67 42.3499 37.86C42.5499 38.05 42.71 38.28 42.83 38.53C42.95 38.79 43.01 39.06 43.02 39.34C43.02 39.62 42.98 39.89 42.88 40.16C42.85 40.23 42.8199 40.31 42.7799 40.38L42.0999 41.69C41.9899 41.9 41.8499 42.09 41.6699 42.26C41.4899 42.43 41.3 42.56 41.08 42.66C40.86 42.76 40.63 42.82 40.39 42.84C40.15 42.86 39.9099 42.84 39.6799 42.78C35.8399 41.79 26.68 38.33 25.94 27.88C25.91 27.46 26 27.06 26.21 26.69C26.42 26.32 26.71 26.04 27.09 25.84L28.34 25.2C28.59 25.07 28.86 25 29.14 24.97C29.42 24.95 29.69 24.97 29.96 25.06C30.23 25.15 30.4699 25.28 30.6799 25.46C30.8899 25.64 31.07 25.86 31.2 26.11H31.1799Z" fill="#FDFDFD"/>
</svg>
