<svg width="69" height="57" viewBox="0 0 69 57" fill="none" xmlns="http://www.w3.org/2000/svg">
<path d="M18.5308 30.4078C18.8214 30.7556 19.25 30.9512 19.6932 30.9512C19.7222 30.9512 19.7586 30.9512 19.7876 30.9512C20.2671 30.9222 20.7102 30.6614 20.9717 30.2557L25.0472 23.9237C25.4322 23.3296 25.3378 22.5689 24.8728 22.069L30.1832 14.1721L29.5512 13.7519L24.2335 21.6633C23.5943 21.4605 22.8751 21.6923 22.4973 22.2864L19.5334 26.8868L15.5524 22.1342C15.2908 21.8227 14.9276 21.6416 14.5499 21.5981C14.4046 21.5474 14.252 21.5257 14.0849 21.5257H6.76223C6.76223 21.5257 6.73317 21.5257 6.71864 21.5257C6.37721 21.5257 5.79604 21.5981 5.13496 21.9314C4.11792 22.4385 3.01371 23.5397 2.24366 25.4958C1.45908 27.4592 0.936035 30.2919 0.936035 34.5809C0.936035 35.6893 0.972358 36.892 1.05227 38.2033C1.09586 39.0075 1.77146 39.6305 2.5633 39.6305C2.59236 39.6305 2.62142 39.6305 2.65048 39.6305C3.4859 39.5798 4.12519 38.8626 4.07433 38.0294C4.00169 36.7688 3.96537 35.6241 3.96537 34.5809C3.96537 30.0021 4.62644 27.4302 5.28752 26.0827V54.4462C5.28752 55.7358 6.34088 56.7863 7.63398 56.7863C8.92707 56.7863 9.98044 55.743 9.98044 54.4462V37.3774H10.8595V54.4462C10.8595 55.7358 11.9128 56.7863 13.2059 56.7863C14.499 56.7863 15.5524 55.743 15.5524 54.4462V26.8434L18.5381 30.4006L18.5308 30.4078Z" fill="#FDFDFD"/>
<path d="M14.6879 16.1935C14.6879 16.476 14.6588 16.7513 14.608 17.0266C14.5499 17.3019 14.4699 17.57 14.3682 17.8235C14.2593 18.0844 14.1285 18.3234 13.976 18.5625C13.8234 18.7944 13.6418 19.0117 13.4456 19.2073C13.2495 19.4029 13.0316 19.584 12.7991 19.7362C12.5666 19.8883 12.3196 20.026 12.0581 20.1274C11.7966 20.2361 11.5351 20.3158 11.259 20.3665C10.983 20.4244 10.7069 20.4462 10.4236 20.4462C10.1403 20.4462 9.86421 20.4172 9.58815 20.3665C9.3121 20.3085 9.04331 20.2288 8.78905 20.1274C8.52752 20.0187 8.28779 19.8883 8.04806 19.7362C7.81559 19.584 7.59766 19.4029 7.40151 19.2073C7.20537 19.0117 7.02375 18.7944 6.8712 18.5625C6.71864 18.3307 6.58062 18.0844 6.47891 17.8235C6.36994 17.5627 6.29003 17.3019 6.23918 17.0266C6.18106 16.7513 6.15927 16.476 6.15927 16.1935C6.15927 15.9109 6.18833 15.6356 6.23918 15.3603C6.2973 15.085 6.37721 14.8169 6.47891 14.5634C6.58788 14.3026 6.71864 14.0635 6.8712 13.8244C7.02375 13.5926 7.20537 13.3752 7.40151 13.1796C7.59766 12.984 7.81559 12.8029 8.04806 12.6507C8.28053 12.4986 8.52752 12.3609 8.78905 12.2595C9.05057 12.1508 9.3121 12.0711 9.58815 12.0204C9.86421 11.9697 10.1403 11.9407 10.4236 11.9407C10.7069 11.9407 10.983 11.9697 11.259 12.0204C11.5351 12.0711 11.8038 12.1581 12.0581 12.2595C12.3196 12.3682 12.5594 12.4986 12.7991 12.6507C13.0316 12.8029 13.2495 12.984 13.4456 13.1796C13.6418 13.3752 13.8234 13.5926 13.976 13.8244C14.1285 14.0562 14.2665 14.3026 14.3682 14.5634C14.4772 14.8242 14.5571 15.085 14.608 15.3603C14.6661 15.6356 14.6879 15.9109 14.6879 16.1935Z" fill="#FDFDFD"/>
<path d="M61.9077 0.247559H11.8547V9.79626H12.7991V1.19663H60.9633V27.4809H25.81V28.4227H61.9077V0.247559Z" fill="#FDFDFD"/>
<path d="M31.5127 40.7897C31.5127 41.0722 31.4836 41.3475 31.4327 41.6228C31.3746 41.8981 31.2947 42.1662 31.193 42.4197C31.084 42.6806 30.9533 42.9196 30.8007 43.1587C30.6482 43.3905 30.4666 43.6079 30.2704 43.8035C30.0743 43.9991 29.8563 44.1802 29.6239 44.3324C29.3914 44.4845 29.1444 44.6222 28.8829 44.7236C28.6214 44.8323 28.3598 44.912 28.0838 44.9627C27.8077 45.0206 27.5317 45.0424 27.2484 45.0424C26.965 45.0424 26.689 45.0134 26.4129 44.9627C26.1369 44.9047 25.8681 44.825 25.6138 44.7236C25.3523 44.6149 25.1126 44.4845 24.8728 44.3324C24.6404 44.1802 24.4224 43.9991 24.2263 43.8035C24.0301 43.6079 23.8485 43.3905 23.696 43.1587C23.5434 42.9269 23.4054 42.6806 23.3037 42.4197C23.1947 42.1589 23.1148 41.8981 23.0639 41.6228C23.0058 41.3475 22.984 41.0722 22.984 40.7897C22.984 40.5071 23.0131 40.2318 23.0639 39.9565C23.1221 39.6812 23.202 39.4131 23.3037 39.1596C23.4127 38.8988 23.5434 38.6597 23.696 38.4206C23.8485 38.1888 24.0301 37.9714 24.2263 37.7758C24.4224 37.5802 24.6404 37.3991 24.8728 37.2469C25.1053 37.0948 25.3523 36.9571 25.6138 36.8557C25.8753 36.747 26.1369 36.6673 26.4129 36.6166C26.689 36.5587 26.965 36.5369 27.2484 36.5369C27.5317 36.5369 27.8077 36.5659 28.0838 36.6166C28.3598 36.6746 28.6286 36.7543 28.8829 36.8557C29.1444 36.9644 29.3841 37.0948 29.6239 37.2469C29.8563 37.3991 30.0743 37.5802 30.2704 37.7758C30.4666 37.9714 30.6482 38.1888 30.8007 38.4206C30.9533 38.6524 31.0913 38.8988 31.193 39.1596C31.302 39.4204 31.3819 39.6812 31.4327 39.9565C31.4909 40.2318 31.5127 40.5071 31.5127 40.7897Z" fill="#FDFDFD"/>
<path d="M47.531 40.7897C47.531 41.0722 47.502 41.3475 47.4511 41.6228C47.393 41.8981 47.3131 42.1662 47.2114 42.4197C47.1024 42.6806 46.9717 42.9196 46.8191 43.1587C46.6666 43.3905 46.4849 43.6079 46.2888 43.8035C46.0927 43.9991 45.8747 44.1802 45.6423 44.3324C45.4098 44.4845 45.1628 44.6222 44.9013 44.7236C44.6397 44.8323 44.3782 44.912 44.1022 44.9627C43.8261 45.0206 43.5501 45.0424 43.2667 45.0424C42.9834 45.0424 42.7074 45.0134 42.4313 44.9627C42.1553 44.9047 41.8865 44.825 41.6322 44.7236C41.3707 44.6149 41.131 44.4845 40.8912 44.3324C40.6588 44.1802 40.4408 43.9991 40.2447 43.8035C40.0485 43.6079 39.8669 43.3905 39.7144 43.1587C39.5618 42.9269 39.4238 42.6806 39.3221 42.4197C39.2131 42.1589 39.1332 41.8981 39.0823 41.6228C39.0242 41.3475 39.0024 41.0722 39.0024 40.7897C39.0024 40.5071 39.0315 40.2318 39.0823 39.9565C39.1405 39.6812 39.2204 39.4131 39.3221 39.1596C39.431 38.8988 39.5618 38.6597 39.7144 38.4206C39.8669 38.1888 40.0485 37.9714 40.2447 37.7758C40.4408 37.5802 40.6588 37.3991 40.8912 37.2469C41.1237 37.0948 41.3707 36.9571 41.6322 36.8557C41.8937 36.747 42.1553 36.6673 42.4313 36.6166C42.7074 36.5587 42.9834 36.5369 43.2667 36.5369C43.5501 36.5369 43.8261 36.5659 44.1022 36.6166C44.3782 36.6746 44.647 36.7543 44.9013 36.8557C45.1628 36.9644 45.4025 37.0948 45.6423 37.2469C45.8747 37.3991 46.0927 37.5802 46.2888 37.7758C46.4849 37.9714 46.6666 38.1888 46.8191 38.4206C46.9717 38.6524 47.1097 38.8988 47.2114 39.1596C47.3204 39.4204 47.4003 39.6812 47.4511 39.9565C47.5093 40.2318 47.531 40.5071 47.531 40.7897Z" fill="#FDFDFD"/>
<path d="M22.1196 50.6789V56.4168H32.3771V50.6934C32.4861 50.9252 32.6023 51.186 32.7113 51.4975C33.1036 52.577 33.445 54.1709 33.6049 56.424H36.9102C37.1136 53.5261 37.6294 51.7366 38.1452 50.6861V56.424H48.4028V50.7006C48.5118 50.9324 48.628 51.1932 48.737 51.5048C49.1293 52.5843 49.4707 54.1781 49.6305 56.4313H52.9359C53.1393 53.5333 53.6551 51.7439 54.1709 50.6934V56.4313H64.4285V50.7078C64.5374 50.9397 64.6537 51.2005 64.7626 51.512C65.1549 52.5915 65.4964 54.1854 65.6562 56.4385H68.6928C68.4385 52.4321 67.6394 49.9979 66.6078 48.433C65.9831 47.4911 65.2566 46.8826 64.581 46.5493C63.9345 46.2233 63.3606 46.1508 63.0191 46.1436C62.9973 46.1436 62.9756 46.1436 62.9538 46.1436H55.6311C55.6311 46.1436 55.5802 46.1436 55.5584 46.1436C55.217 46.1436 54.6503 46.2233 54.0038 46.5493C53.0521 47.0202 52.0351 48.0055 51.2796 49.7153C51.0616 49.2299 50.8292 48.8025 50.5822 48.433C49.9574 47.4911 49.231 46.8826 48.5554 46.5493C47.9088 46.2233 47.3349 46.1508 46.9935 46.1436C46.9717 46.1436 46.9499 46.1436 46.9281 46.1436H39.6054C39.6054 46.1436 39.5545 46.1436 39.5328 46.1436C39.1913 46.1436 38.6247 46.2233 37.9781 46.5493C37.0265 47.0202 36.0094 48.0055 35.2539 49.7153C35.036 49.2299 34.8035 48.8025 34.5565 48.433C33.9318 47.4911 33.2053 46.8826 32.5297 46.5493C31.8832 46.2233 31.3092 46.1508 30.9678 46.1436C30.946 46.1436 30.9242 46.1436 30.9024 46.1436H23.5797C23.5797 46.1436 23.5289 46.1436 23.5071 46.1436C23.1657 46.1436 22.599 46.2233 21.9525 46.5493C20.9354 47.0564 19.8312 48.1577 19.0612 50.1138C18.4655 51.6207 18.0151 53.642 17.8407 56.4385H20.8773C21.0807 53.5406 21.5965 51.7511 22.1123 50.7078L22.1196 50.6789Z" fill="#FDFDFD"/>
<path d="M63.5567 40.7897C63.5567 41.0722 63.5276 41.3475 63.4768 41.6228C63.4187 41.8981 63.3388 42.1662 63.2371 42.4197C63.1281 42.6806 62.9973 42.9196 62.8448 43.1587C62.6922 43.3905 62.5106 43.6079 62.3145 43.8035C62.1183 43.9991 61.9004 44.1802 61.6679 44.3324C61.4355 44.4845 61.1885 44.6222 60.9269 44.7236C60.6654 44.8323 60.4039 44.912 60.1278 44.9627C59.8518 45.0206 59.5757 45.0424 59.2924 45.0424C59.0091 45.0424 58.733 45.0134 58.457 44.9627C58.1809 44.9047 57.9121 44.825 57.6579 44.7236C57.3963 44.6149 57.1566 44.4845 56.9169 44.3324C56.6844 44.1802 56.4665 43.9991 56.2703 43.8035C56.0742 43.6079 55.8926 43.3905 55.74 43.1587C55.5875 42.9269 55.4494 42.6806 55.3477 42.4197C55.2388 42.1589 55.1589 41.8981 55.108 41.6228C55.0499 41.3475 55.0281 41.0722 55.0281 40.7897C55.0281 40.5071 55.0572 40.2318 55.108 39.9565C55.1661 39.6812 55.246 39.4131 55.3477 39.1596C55.4567 38.8988 55.5875 38.6597 55.74 38.4206C55.8926 38.1888 56.0742 37.9714 56.2703 37.7758C56.4665 37.5802 56.6844 37.3991 56.9169 37.2469C57.1493 37.0948 57.3963 36.9571 57.6579 36.8557C57.9194 36.747 58.1809 36.6673 58.457 36.6166C58.733 36.5587 59.0091 36.5369 59.2924 36.5369C59.5757 36.5369 59.8518 36.5659 60.1278 36.6166C60.4039 36.6746 60.6727 36.7543 60.9269 36.8557C61.1885 36.9644 61.4282 37.0948 61.6679 37.2469C61.9004 37.3991 62.1183 37.5802 62.3145 37.7758C62.5106 37.9714 62.6922 38.1888 62.8448 38.4206C62.9973 38.6524 63.1354 38.8988 63.2371 39.1596C63.346 39.4204 63.4259 39.6812 63.4768 39.9565C63.5349 40.2318 63.5567 40.5071 63.5567 40.7897Z" fill="#FDFDFD"/>
</svg>
