<svg width="125" height="114" viewBox="0 0 125 114" fill="none" xmlns="http://www.w3.org/2000/svg">
<path d="M118.313 59.4103H113.212V109.156C113.212 109.819 113.012 110.482 112.662 111.098C112.312 111.714 111.912 112.235 111.412 112.709C110.862 113.183 110.262 113.514 109.612 113.704C108.912 113.941 108.261 114.036 107.511 113.988H77.2554V80.0665C77.2554 79.0716 76.9053 78.2662 76.1551 77.5555C75.405 76.8449 74.5548 76.5133 73.5046 76.5133H51.5504C50.5002 76.5133 49.65 76.8449 48.8998 77.5555C48.1497 78.2662 47.7996 79.0716 47.7996 80.0665V113.988H17.5437C16.8436 113.988 16.1435 113.941 15.4433 113.704C14.7932 113.467 14.1431 113.135 13.643 112.709C13.0929 112.235 12.6928 111.714 12.3927 111.098C12.0927 110.482 11.8926 109.866 11.8426 109.156V59.3629H6.69162C0.990511 59.3629 -2.11009 54.2936 1.64064 51.0246L57.9516 1.75294C59.4019 0.568519 61.1022 0 63.0526 0C64.953 0 66.6533 0.615896 68.1036 1.80031C86.5572 18.24 104.961 34.6797 123.414 51.1194C127.065 54.4357 124.014 59.4577 118.313 59.4577V59.4103Z" fill="white"/>
</svg>
