<svg width="29" height="30" viewBox="0 0 29 30" fill="none" xmlns="http://www.w3.org/2000/svg">
<path d="M28.9591 5.57733C28.9591 2.7883 26.6981 0.527344 23.9091 0.527344H5.07269C2.28366 0.527344 0.0227051 2.7883 0.0227051 5.57732V24.4138C0.0227051 27.2028 2.28366 29.4637 5.07269 29.4637H23.9091C26.6981 29.4637 28.9591 27.2028 28.9591 24.4138V5.57733Z" fill="#FDFDFD"/>
<path d="M7.90909 21.6531H21.1064C23.2442 21.6531 24.978 19.9445 24.978 17.8067V9.98764C24.978 7.84982 23.2442 6.13282 21.1064 6.13282H7.90909C5.77127 6.13282 4.01219 7.84982 4.01219 9.98764V17.8067C4.01219 19.9445 5.77127 21.6531 7.90909 21.6531ZM10.6361 10.6694C10.6361 10.2065 10.897 9.77723 11.301 9.55839C11.705 9.33114 12.2016 9.33956 12.5972 9.58364L17.7481 12.7567C18.1269 12.9924 18.3541 13.3964 18.3541 13.8425C18.3541 14.2885 18.1269 14.6925 17.7481 14.9282L12.3615 18.2444C12.1847 18.3538 11.9827 18.4127 11.7723 18.4127C11.5872 18.4127 11.3852 18.3622 11.2168 18.2696C10.8633 18.076 10.6361 17.6973 10.6361 17.2933V10.6694Z" fill="#212146"/>
</svg>
