<svg width="114" height="114" viewBox="0 0 114 114" fill="none" xmlns="http://www.w3.org/2000/svg">
<path d="M66.4925 104.463V94.97H47.5075V104.463H38.015C35.4057 104.463 33.2463 106.577 33.2463 109.231C33.2463 111.886 35.3607 114 38.015 114H76.0299C78.6392 114 80.7986 111.886 80.7986 109.231C80.7986 106.577 78.6842 104.463 76.0299 104.463H66.4925Z" fill="white"/>
<path d="M105.677 45.123H104.507V85.4774H9.53745V28.4774H49.8918V18.9849H8.32276C3.77896 18.9849 0 22.7189 0 27.3077V86.6921C0 91.2359 3.73397 95.0149 8.32276 95.0149H105.677C110.221 95.0149 114 91.2809 114 86.6921V42.6937C111.57 44.2233 108.736 45.123 105.677 45.123Z" fill="white"/>
<path d="M61.7687 57.0003C61.7687 62.2639 57.4948 66.4928 52.2762 66.4928C47.0576 66.4928 42.7837 62.2189 42.7837 57.0003C42.7837 51.7817 47.0576 47.5078 52.2762 47.5078C57.4948 47.5078 61.7687 51.7817 61.7687 57.0003Z" fill="white"/>
<path d="M71.2612 84.3077V85.4774H33.2463V84.3077C33.2463 77.1096 39.0947 71.2611 46.2928 71.2611H58.1696C65.3677 71.2611 71.2162 77.1096 71.2162 84.3077H71.2612Z" fill="white"/>
<path d="M97.3544 22.5391C95.375 22.5391 93.8003 20.9645 93.8003 18.985C93.8003 17.0055 95.375 15.4309 97.3544 15.4309C99.3339 15.4309 100.908 17.0055 100.908 18.985C100.908 20.9645 99.3339 22.5391 97.3544 22.5391ZM85.4776 22.5391C83.4981 22.5391 81.9235 20.9645 81.9235 18.985C81.9235 17.0055 83.4981 15.4309 85.4776 15.4309C87.4571 15.4309 89.0316 17.0055 89.0316 18.985C89.0316 20.9645 87.4571 22.5391 85.4776 22.5391ZM73.6007 22.5391C71.6212 22.5391 70.0466 20.9645 70.0466 18.985C70.0466 17.0055 71.6212 15.4309 73.6007 15.4309C75.5802 15.4309 77.1548 17.0055 77.1548 18.985C77.1548 20.9645 75.5802 22.5391 73.6007 22.5391ZM105.677 0H65.3229C60.7341 0 57.0001 3.73402 57.0001 8.32282V29.6922C57.0001 34.281 60.7341 38.015 65.3229 38.015H71.2613V48.7222C71.2613 50.2068 72.1611 51.5115 73.5107 52.0513C73.9156 52.2313 74.3655 52.2763 74.8154 52.2763C75.8051 52.2763 76.7498 51.8714 77.4247 51.1066L89.4365 38.015H105.677C110.266 38.015 114 34.281 114 29.6922V8.32282C114 3.73402 110.266 0 105.677 0Z" fill="white"/>
</svg>
