<svg width="43" height="48" viewBox="0 0 43 48" fill="none" xmlns="http://www.w3.org/2000/svg">
<path fill-rule="evenodd" clip-rule="evenodd" d="M7.3096 46.8404C7.69522 46.7423 7.9822 46.5551 8.35886 46.368L22.2952 38.4971L39.8546 28.4423C43.4777 26.3565 43.4777 21.231 39.8546 19.2433L8.35886 1.20171C4.16182 -1.16936 -0.896153 2.72597 0.538733 7.37007L5.02275 22.265C5.1214 22.4522 5.1214 22.6483 5.1214 22.7375L10.278 40.574C11.0403 43.2303 9.61438 45.7886 7.31857 46.8315L7.3096 46.8404Z" fill="#E8433C"/>
<path fill-rule="evenodd" clip-rule="evenodd" d="M10.7533 40.6007L5.60567 22.7553C5.794 23.611 5.794 24.5559 5.50702 25.3225L1.03197 40.3155C-0.304263 44.4961 3.89278 48.1953 7.80284 46.8671C10.0897 45.8242 11.5156 43.257 10.7533 40.6007Z" fill="#E8433C"/>
</svg>
