<svg width="30" height="30" viewBox="0 0 30 30" fill="none" xmlns="http://www.w3.org/2000/svg">
<path d="M29.6182 5.57733C29.6182 2.7883 27.3572 0.527344 24.5682 0.527344H5.73174C2.94272 0.527344 0.681763 2.7883 0.681763 5.57732V24.4138C0.681763 27.2028 2.94272 29.4637 5.73174 29.4637H24.5682C27.3572 29.4637 29.6182 27.2028 29.6182 24.4138V5.57733Z" fill="#FDFDFD"/>
<path d="M11.1521 8.70831C11.1521 8.97765 11.1016 9.23856 11.0006 9.48265C10.8996 9.72673 10.7481 9.95398 10.5629 10.1391C10.3693 10.3327 10.1505 10.4758 9.9064 10.5768C9.66231 10.6778 9.4014 10.7283 9.13206 10.7283C8.86273 10.7283 8.60182 10.6778 8.35773 10.5768C8.11365 10.4758 7.8864 10.3243 7.70124 10.1391C7.50765 9.94556 7.36457 9.72673 7.26357 9.48265C7.16257 9.23856 7.11207 8.97765 7.11207 8.70831C7.11207 8.43898 7.16257 8.17807 7.26357 7.93398C7.36457 7.6899 7.51607 7.46265 7.70124 7.27749C7.89482 7.0839 8.11365 6.94082 8.35773 6.83982C8.60182 6.73882 8.86273 6.68832 9.13206 6.68832C9.4014 6.68832 9.66231 6.73882 9.9064 6.83982C10.1505 6.94082 10.3777 7.09232 10.5629 7.27749C10.7565 7.47107 10.8996 7.6899 11.0006 7.93398C11.1016 8.17807 11.1521 8.43898 11.1521 8.70831Z" fill="#212146"/>
<path d="M10.8659 13.9687C10.8659 13.0065 10.0859 12.2265 9.12365 12.2265C8.16143 12.2265 7.3814 13.0065 7.3814 13.9687V21.6784C7.3814 22.6406 8.16143 23.4206 9.12365 23.4206C10.0859 23.4206 10.8659 22.6406 10.8659 21.6783V13.9687Z" fill="#212146"/>
<path d="M16.3704 13.8845C16.3704 12.9688 15.628 12.2265 14.7123 12.2265C13.7966 12.2265 13.0542 12.9688 13.0542 13.8845V21.7625C13.0542 22.6782 13.7966 23.4206 14.7123 23.4206C15.628 23.4206 16.3704 22.6782 16.3704 21.7625V13.8845Z" fill="#212146"/>
<path d="M16.5135 19.8519C16.5135 18.9362 15.7711 18.1939 14.8554 18.1939C13.9396 18.1939 13.1973 18.9362 13.1973 19.8519V21.7709C13.1973 22.6867 13.9396 23.429 14.8554 23.429C15.7711 23.429 16.5135 22.6867 16.5135 21.7709V19.8519Z" fill="#212146"/>
<path d="M16.5073 18.1961C16.5058 18.1947 16.505 18.1935 16.505 18.1915C16.5031 18.1311 16.4688 16.9144 16.7601 16.1551C16.8036 16.0418 16.8554 15.9319 16.9214 15.8302C17.0643 15.61 17.3949 15.2242 18.0119 15.0966C18.2823 15.0408 18.5626 15.0218 18.8377 15.0454C19.2509 15.0808 19.8667 15.2639 20.1686 15.9963C20.2252 16.1337 20.2566 16.2804 20.2824 16.4267C20.3273 16.681 20.3935 17.0931 20.3935 17.3101C20.3935 17.52 20.397 19.9631 20.3994 21.6977C20.4008 22.655 21.1772 23.429 22.1345 23.429C23.0928 23.429 23.8696 22.6522 23.8696 21.6939V17.1915C23.8696 17.0742 23.8738 16.9583 23.8766 16.8411C23.894 16.1089 23.8361 13.2809 21.9659 12.4103C21.9559 12.4056 21.9469 12.4015 21.9367 12.3971C21.7154 12.3021 18.9093 11.1516 16.997 13.0581C16.5804 13.4734 16.0003 13.8147 15.958 13.228C15.899 12.4116 15.4025 14.4821 15.3856 14.5242C15.3722 14.5578 15.7442 17.1661 15.8954 18.2211C15.923 18.4134 16.1497 18.4999 16.3 18.3769L16.5067 18.2078C16.5103 18.2049 16.5106 18.1994 16.5073 18.1961Z" fill="#212146"/>
</svg>
