<svg width="20" height="21" viewBox="0 0 20 21" fill="none" xmlns="http://www.w3.org/2000/svg">
<path d="M10 11.5136C9.74803 11.5136 9.49606 11.4883 9.25038 11.4377C9.00471 11.3872 8.76534 11.3176 8.53226 11.2165C8.29919 11.1217 8.07871 11.0016 7.86454 10.8625C7.65666 10.7234 7.46138 10.5591 7.285 10.3821C7.10862 10.2051 6.94484 10.0092 6.80626 9.80056C6.66767 9.59196 6.54798 9.37072 6.45349 9.13052C6.35901 8.89664 6.28341 8.65644 6.23302 8.40991C6.18262 8.16339 6.15743 7.91055 6.15743 7.6577C6.15743 7.40486 6.18262 7.15201 6.23302 6.90549C6.28341 6.65897 6.35271 6.41876 6.45349 6.18488C6.54798 5.951 6.66767 5.72976 6.80626 5.51484C6.94484 5.30625 7.10862 5.11029 7.285 4.9333C7.46138 4.75631 7.65666 4.59196 7.86454 4.4529C8.07241 4.31383 8.29289 4.19373 8.53226 4.09892C8.76534 4.0041 9.00471 3.92825 9.25038 3.87768C9.49606 3.82711 9.74803 3.80182 10 3.80182C10.252 3.80182 10.5039 3.82711 10.7496 3.87768C10.9953 3.92825 11.2347 3.99778 11.4677 4.09892C11.7008 4.19373 11.9213 4.31383 12.1355 4.4529C12.3433 4.59196 12.5386 4.75631 12.715 4.9333C12.8914 5.11029 13.0552 5.30625 13.1937 5.51484C13.3323 5.72344 13.452 5.94468 13.5465 6.18488C13.641 6.41876 13.7166 6.65897 13.767 6.90549C13.8174 7.15201 13.8426 7.40486 13.8426 7.6577C13.8426 7.91055 13.8174 8.16339 13.767 8.40991C13.7166 8.65644 13.6473 8.89664 13.5465 9.13052C13.452 9.3644 13.3323 9.58564 13.1937 9.79424C13.0552 10.0028 12.8914 10.1988 12.715 10.3758C12.5386 10.5528 12.3433 10.7171 12.1355 10.8562C11.9276 10.9952 11.7071 11.1154 11.474 11.2102C11.241 11.305 11.0016 11.3808 10.7559 11.4314C10.5102 11.482 10.2583 11.5073 10.0063 11.5073L10 11.5136ZM10 0.445312C9.52755 0.445312 9.0614 0.48956 8.59526 0.584377C8.12911 0.679194 7.68186 0.811937 7.24721 0.995249C6.81255 1.17856 6.3968 1.3998 6.00624 1.65897C5.61569 1.92445 5.25033 2.22155 4.91647 2.55656C4.5826 2.89158 4.28654 3.25821 4.02197 3.65012C3.75739 4.04203 3.53692 4.45922 3.36054 4.89538C3.17786 5.33153 3.04557 5.78033 2.95108 6.24809C2.8566 6.70954 2.8125 7.18362 2.8125 7.6577C2.8125 13.1697 9.36377 19.8069 9.64724 20.0913L10 20.4453L10.3528 20.0913C10.6299 19.8132 17.1875 13.1697 17.1875 7.6577C17.1875 7.18362 17.1434 6.71586 17.0489 6.24809C16.9544 5.78665 16.8221 5.33153 16.6395 4.89538C16.4568 4.45922 16.2363 4.04203 15.978 3.65012C15.7135 3.25821 15.4174 2.89158 15.0835 2.55656C14.7497 2.22155 14.3843 1.92445 13.9938 1.65897C13.6032 1.39348 13.1874 1.17224 12.7528 0.995249C12.3181 0.811937 11.8709 0.679194 11.4047 0.584377C10.9386 0.48956 10.4724 0.445312 10 0.445312Z" fill="#E8433C"/>
</svg>
