<svg width="20" height="20" viewBox="0 0 20 20" fill="none" xmlns="http://www.w3.org/2000/svg">
<path d="M19.5465 14.9954L17.4773 12.9258C16.8726 12.3211 15.9019 12.3211 15.2973 12.9258L13.3642 14.8592C13.1769 15.0465 12.5723 15.0976 11.4993 14.5951C10.4008 14.0841 9.14899 13.1643 7.99939 12.0145C6.84126 10.8562 5.9301 9.6127 5.41916 8.51401C4.92525 7.44087 4.96783 6.83617 5.15518 6.64879L7.08822 4.71544C7.37775 4.42586 7.53954 4.03408 7.53954 3.62526C7.53954 3.21645 7.37775 2.82467 7.08822 2.53509L5.01041 0.456947C4.4058 -0.147758 3.43502 -0.147758 2.83042 0.456947L0.888858 2.3903C-0.201139 3.48048 -0.294811 5.3968 0.641906 7.77303C1.51901 10.0045 3.19659 12.4318 5.3851 14.6207C7.56509 16.801 10.0006 18.4874 12.2316 19.3646C13.3216 19.7905 14.318 20.0034 15.178 20.0034C16.1914 20.0034 17.0259 19.7053 17.6135 19.1177L19.5465 17.1843C20.1512 16.5881 20.1512 15.6087 19.5465 15.004V14.9954Z" fill="#E8433C"/>
</svg>
