<svg width="138" height="115" viewBox="0 0 138 115" fill="none" xmlns="http://www.w3.org/2000/svg">
<path d="M35.5846 60.9977C36.1723 61.701 37.0392 62.0966 37.9354 62.0966C37.9942 62.0966 38.0676 62.0966 38.1264 62.0966C39.0961 62.038 39.9923 61.5105 40.5212 60.69L48.7636 47.8838C49.5423 46.6824 49.3513 45.1439 48.411 44.1328L59.151 28.1618L57.8728 27.312L47.1181 43.3123C45.8251 42.902 44.3706 43.3709 43.6066 44.5724L37.6122 53.8766L29.5608 44.2647C29.0319 43.6347 28.2973 43.2684 27.5333 43.1804C27.2394 43.0779 26.9309 43.0339 26.593 43.0339H11.7832C11.7832 43.0339 11.7244 43.0339 11.695 43.0339C11.0045 43.0339 9.82912 43.1804 8.49212 43.8544C6.43521 44.8801 4.20199 47.1073 2.64461 51.0634C1.05784 55.0342 0 60.7632 0 69.4374C0 71.6792 0.0734613 74.1115 0.235076 76.7636C0.32323 78.39 1.68961 79.6501 3.29107 79.6501C3.34983 79.6501 3.4086 79.6501 3.46737 79.6501C5.15698 79.5475 6.4499 78.0969 6.34705 76.4119C6.20013 73.8624 6.12667 71.5474 6.12667 69.4374C6.12667 60.1771 7.46367 54.9756 8.80066 52.2502V109.614C8.80066 112.222 10.931 114.347 13.5463 114.347C16.1615 114.347 18.2919 112.237 18.2919 109.614V75.0932H20.0696V109.614C20.0696 112.222 22.2 114.347 24.8152 114.347C27.4304 114.347 29.5608 112.237 29.5608 109.614V53.7887L35.5993 60.983L35.5846 60.9977Z" fill="#FDFDFD"/>
<path d="M27.8124 32.2498C27.8124 32.8212 27.7537 33.378 27.6508 33.9348C27.5333 34.4916 27.3717 35.0337 27.166 35.5466C26.9456 36.0741 26.6811 36.5576 26.3726 37.0411C26.0641 37.51 25.6968 37.9496 25.3001 38.3452C24.9034 38.7408 24.4626 39.1071 23.9925 39.4148C23.5223 39.7225 23.0228 40.0009 22.4938 40.206C21.9649 40.4258 21.436 40.587 20.8777 40.6895C20.3194 40.8068 19.7611 40.8507 19.1881 40.8507C18.6151 40.8507 18.0568 40.7921 17.4985 40.6895C16.9402 40.5723 16.3966 40.4111 15.8823 40.206C15.3534 39.9862 14.8686 39.7225 14.3837 39.4148C13.9136 39.1071 13.4728 38.7408 13.0761 38.3452C12.6794 37.9496 12.3121 37.51 12.0036 37.0411C11.695 36.5722 11.4159 36.0741 11.2102 35.5466C10.9898 35.0191 10.8282 34.4916 10.7254 33.9348C10.6078 33.378 10.5637 32.8212 10.5637 32.2498C10.5637 31.6784 10.6225 31.1216 10.7254 30.5648C10.8429 30.008 11.0045 29.4659 11.2102 28.953C11.4306 28.4255 11.695 27.942 12.0036 27.4585C12.3121 26.9896 12.6794 26.55 13.0761 26.1544C13.4728 25.7588 13.9136 25.3925 14.3837 25.0848C14.8539 24.7771 15.3534 24.4987 15.8823 24.2936C16.4113 24.0738 16.9402 23.9126 17.4985 23.8101C18.0568 23.7075 18.6151 23.6489 19.1881 23.6489C19.7611 23.6489 20.3194 23.7075 20.8777 23.8101C21.436 23.9126 21.9796 24.0885 22.4938 24.2936C23.0228 24.5134 23.5076 24.7771 23.9925 25.0848C24.4626 25.3925 24.9034 25.7588 25.3001 26.1544C25.6968 26.55 26.0641 26.9896 26.3726 27.4585C26.6811 27.9274 26.9603 28.4255 27.166 28.953C27.3864 29.4805 27.548 30.008 27.6508 30.5648C27.7684 31.1216 27.8124 31.6784 27.8124 32.2498Z" fill="#FDFDFD"/>
<path d="M123.312 0H22.0825V19.3118H23.9925V1.91946H121.402V55.0781H50.3063V56.9829H123.312V0Z" fill="#FDFDFD"/>
<path d="M61.8397 81.9944C61.8397 82.5658 61.7809 83.1226 61.6781 83.6794C61.5606 84.2362 61.399 84.7783 61.1933 85.2912C60.9729 85.8187 60.7084 86.3022 60.3999 86.7857C60.0913 87.2546 59.724 87.6942 59.3273 88.0898C58.9306 88.4854 58.4899 88.8517 58.0197 89.1594C57.5496 89.4671 57.05 89.7455 56.5211 89.9506C55.9922 90.1704 55.4633 90.3316 54.905 90.4341C54.3467 90.5514 53.7884 90.5953 53.2154 90.5953C52.6424 90.5953 52.0841 90.5367 51.5258 90.4341C50.9674 90.3169 50.4238 90.1557 49.9096 89.9506C49.3807 89.7308 48.8958 89.4671 48.411 89.1594C47.9408 88.8517 47.5001 88.4854 47.1034 88.0898C46.7067 87.6942 46.3394 87.2546 46.0308 86.7857C45.7223 86.3168 45.4432 85.8187 45.2375 85.2912C45.0171 84.7637 44.8555 84.2362 44.7526 83.6794C44.6351 83.1226 44.591 82.5658 44.591 81.9944C44.591 81.423 44.6498 80.8662 44.7526 80.3094C44.8702 79.7526 45.0318 79.2105 45.2375 78.6976C45.4579 78.1701 45.7223 77.6866 46.0308 77.2031C46.3394 76.7342 46.7067 76.2946 47.1034 75.899C47.5001 75.5034 47.9408 75.1371 48.411 74.8294C48.8811 74.5217 49.3807 74.2433 49.9096 74.0382C50.4385 73.8184 50.9674 73.6572 51.5258 73.5546C52.0841 73.4374 52.6424 73.3935 53.2154 73.3935C53.7884 73.3935 54.3467 73.4521 54.905 73.5546C55.4633 73.6719 56.0069 73.833 56.5211 74.0382C57.05 74.258 57.5349 74.5217 58.0197 74.8294C58.4899 75.1371 58.9306 75.5034 59.3273 75.899C59.724 76.2946 60.0913 76.7342 60.3999 77.2031C60.7084 77.672 60.9876 78.1701 61.1933 78.6976C61.4136 79.2251 61.5753 79.7526 61.6781 80.3094C61.7956 80.8662 61.8397 81.423 61.8397 81.9944Z" fill="#FDFDFD"/>
<path d="M94.2361 81.9944C94.2361 82.5658 94.1774 83.1226 94.0745 83.6794C93.957 84.2362 93.7954 84.7783 93.5897 85.2912C93.3693 85.8187 93.1048 86.3022 92.7963 86.7857C92.4877 87.2546 92.1204 87.6942 91.7237 88.0898C91.3271 88.4854 90.8863 88.8517 90.4161 89.1594C89.946 89.4671 89.4464 89.7455 88.9175 89.9506C88.3886 90.1704 87.8597 90.3316 87.3014 90.4341C86.7431 90.5514 86.1848 90.5953 85.6118 90.5953C85.0388 90.5953 84.4805 90.5367 83.9222 90.4341C83.3639 90.3169 82.8202 90.1557 82.306 89.9506C81.7771 89.7308 81.2922 89.4671 80.8074 89.1594C80.3372 88.8517 79.8965 88.4854 79.4998 88.0898C79.1031 87.6942 78.7358 87.2546 78.4273 86.7857C78.1187 86.3168 77.8396 85.8187 77.6339 85.2912C77.4135 84.7637 77.2519 84.2362 77.149 83.6794C77.0315 83.1226 76.9874 82.5658 76.9874 81.9944C76.9874 81.423 77.0462 80.8662 77.149 80.3094C77.2666 79.7526 77.4282 79.2105 77.6339 78.6976C77.8543 78.1701 78.1187 77.6866 78.4273 77.2031C78.7358 76.7342 79.1031 76.2946 79.4998 75.899C79.8965 75.5034 80.3372 75.1371 80.8074 74.8294C81.2775 74.5217 81.7771 74.2433 82.306 74.0382C82.8349 73.8184 83.3639 73.6572 83.9222 73.5546C84.4805 73.4374 85.0388 73.3935 85.6118 73.3935C86.1848 73.3935 86.7431 73.4521 87.3014 73.5546C87.8597 73.6719 88.4033 73.833 88.9175 74.0382C89.4464 74.258 89.9313 74.5217 90.4161 74.8294C90.8863 75.1371 91.3271 75.5034 91.7237 75.899C92.1204 76.2946 92.4877 76.7342 92.7963 77.2031C93.1048 77.672 93.384 78.1701 93.5897 78.6976C93.8101 79.2251 93.9717 79.7526 94.0745 80.3094C94.192 80.8662 94.2361 81.423 94.2361 81.9944Z" fill="#FDFDFD"/>
<path d="M42.8426 101.995V113.599H63.5881V102.024C63.8085 102.493 64.0436 103.021 64.2639 103.651C65.0573 105.834 65.7479 109.057 66.0711 113.614H72.7561C73.1674 107.753 74.2106 104.134 75.2537 102.009V113.614H95.9992V102.039C96.2196 102.508 96.4547 103.035 96.675 103.665C97.4684 105.848 98.159 109.072 98.4822 113.629H105.167C105.579 107.768 106.622 104.149 107.665 102.024V113.629H128.41V102.053C128.631 102.522 128.866 103.05 129.086 103.68C129.88 105.863 130.57 109.087 130.893 113.643H137.035C136.52 105.541 134.904 100.618 132.818 97.4526C131.554 95.5478 130.085 94.317 128.719 93.643C127.411 92.9837 126.251 92.8371 125.56 92.8225C125.516 92.8225 125.472 92.8225 125.428 92.8225H110.618C110.618 92.8225 110.515 92.8225 110.471 92.8225C109.781 92.8225 108.635 92.9837 107.327 93.643C105.402 94.5954 103.345 96.5881 101.817 100.046C101.377 99.0644 100.906 98.1999 100.407 97.4526C99.1433 95.5478 97.6741 94.317 96.3077 93.643C95.0001 92.9837 93.8394 92.8371 93.1489 92.8225C93.1048 92.8225 93.0608 92.8225 93.0167 92.8225H78.2069C78.2069 92.8225 78.104 92.8225 78.06 92.8225C77.3694 92.8225 76.2234 92.9837 74.9158 93.643C72.9911 94.5954 70.9342 96.5881 69.4062 100.046C68.9655 99.0644 68.4953 98.1999 67.9958 97.4526C66.7322 95.5478 65.263 94.317 63.8966 93.643C62.589 92.9837 61.4283 92.8371 60.7378 92.8225C60.6937 92.8225 60.6496 92.8225 60.6056 92.8225H45.7958C45.7958 92.8225 45.6929 92.8225 45.6488 92.8225C44.9583 92.8225 43.8123 92.9837 42.5047 93.643C40.4478 94.6687 38.2146 96.8958 36.6572 100.852C35.4524 103.9 34.5415 107.988 34.1889 113.643H40.3302C40.7416 107.783 41.7848 104.163 42.8279 102.053L42.8426 101.995Z" fill="#FDFDFD"/>
<path d="M126.647 81.9944C126.647 82.5658 126.588 83.1226 126.486 83.6794C126.368 84.2362 126.206 84.7783 126.001 85.2912C125.78 85.8187 125.516 86.3022 125.207 86.7857C124.899 87.2546 124.532 87.6942 124.135 88.0898C123.738 88.4854 123.297 88.8517 122.827 89.1594C122.357 89.4671 121.858 89.7455 121.329 89.9506C120.8 90.1704 120.271 90.3316 119.713 90.4341C119.154 90.5514 118.596 90.5953 118.023 90.5953C117.45 90.5953 116.892 90.5367 116.333 90.4341C115.775 90.3169 115.231 90.1557 114.717 89.9506C114.188 89.7308 113.703 89.4671 113.219 89.1594C112.748 88.8517 112.308 88.4854 111.911 88.0898C111.514 87.6942 111.147 87.2546 110.838 86.7857C110.53 86.3168 110.251 85.8187 110.045 85.2912C109.825 84.7637 109.663 84.2362 109.56 83.6794C109.443 83.1226 109.399 82.5658 109.399 81.9944C109.399 81.423 109.457 80.8662 109.56 80.3094C109.678 79.7526 109.839 79.2105 110.045 78.6976C110.265 78.1701 110.53 77.6866 110.838 77.2031C111.147 76.7342 111.514 76.2946 111.911 75.899C112.308 75.5034 112.748 75.1371 113.219 74.8294C113.689 74.5217 114.188 74.2433 114.717 74.0382C115.246 73.8184 115.775 73.6572 116.333 73.5546C116.892 73.4374 117.45 73.3935 118.023 73.3935C118.596 73.3935 119.154 73.4521 119.713 73.5546C120.271 73.6719 120.814 73.833 121.329 74.0382C121.858 74.258 122.342 74.5217 122.827 74.8294C123.297 75.1371 123.738 75.5034 124.135 75.899C124.532 76.2946 124.899 76.7342 125.207 77.2031C125.516 77.672 125.795 78.1701 126.001 78.6976C126.221 79.2251 126.383 79.7526 126.486 80.3094C126.603 80.8662 126.647 81.423 126.647 81.9944Z" fill="#FDFDFD"/>
</svg>
