<svg width="182" height="182" viewBox="0 0 182 182" fill="none" xmlns="http://www.w3.org/2000/svg">
<path d="M11.5155 56.0386C10.5007 56.0386 9.48576 55.6465 8.71306 54.8739C7.16766 53.3286 7.16766 50.8147 8.71306 49.2694L49.2741 8.72377C50.8195 7.17852 53.3337 7.17852 54.8791 8.72377C56.4245 10.269 56.4245 12.783 54.8791 14.3282L14.318 54.8739C13.5453 55.6465 12.5304 56.0386 11.5155 56.0386Z" fill="#212146"/>
<path d="M3.96154 110.953C2.94665 110.953 1.93175 110.561 1.15905 109.788C-0.386351 108.243 -0.386351 105.729 1.15905 104.184L104.194 1.15894C105.739 -0.386314 108.253 -0.386314 109.799 1.15894C111.344 2.7042 111.344 5.21812 109.799 6.76338L6.76402 109.8C5.99132 110.572 4.97643 110.964 3.96154 110.964V110.953Z" fill="#212146"/>
<path d="M17.7202 144.556C16.7053 144.556 15.6904 144.164 14.9177 143.392C13.3723 141.846 13.3723 139.332 14.9177 137.787L137.8 14.9163C139.346 13.3711 141.86 13.3711 143.405 14.9163C144.951 16.4616 144.951 18.9755 143.405 20.5208L20.5227 143.392C19.75 144.164 18.7351 144.556 17.7202 144.556Z" fill="#212146"/>
<path d="M41.3971 168.243C40.3823 168.243 39.3674 167.851 38.5947 167.078C37.0493 165.533 37.0493 163.019 38.5947 161.473L161.477 38.6026C163.023 37.0573 165.537 37.0573 167.082 38.6026C168.628 40.1478 168.628 42.6617 167.082 44.207L44.1996 167.078C43.4269 167.851 42.412 168.243 41.3971 168.243Z" fill="#212146"/>
<path d="M75.0039 182C73.989 182 72.9741 181.608 72.2014 180.835C70.656 179.29 70.656 176.776 72.2014 175.231L175.236 72.2061C176.781 70.6609 179.296 70.6609 180.841 72.2061C182.386 73.7514 182.386 76.2653 180.841 77.8106L77.8064 180.835C77.0337 181.608 76.0188 182 75.0039 182Z" fill="#212146"/>
<path d="M129.923 174.435C128.908 174.435 127.894 174.043 127.121 173.27C125.575 171.725 125.575 169.211 127.121 167.666L167.682 127.109C169.227 125.564 171.742 125.564 173.287 127.109C174.832 128.654 174.832 131.168 173.287 132.713L132.726 173.27C131.953 174.043 130.938 174.435 129.923 174.435Z" fill="#212146"/>
</svg>
