<svg width="15" height="16" viewBox="0 0 15 16" fill="none" xmlns="http://www.w3.org/2000/svg">
<g opacity="0.94">
<mask id="mask0_68_913" style="mask-type:luminance" maskUnits="userSpaceOnUse" x="0" y="0" width="15" height="16">
<path d="M14.3993 0.86084H0.0526123V15.2076H14.3993V0.86084Z" fill="white"/>
</mask>
<g mask="url(#mask0_68_913)">
<mask id="mask1_68_913" style="mask-type:luminance" maskUnits="userSpaceOnUse" x="0" y="0" width="14" height="15">
<path d="M13.8307 0.977539H0.161987V14.6463H13.8307V0.977539Z" fill="white"/>
</mask>
<g mask="url(#mask1_68_913)">
<path d="M7.01461 13.7279C6.62095 13.7279 6.23458 13.6914 5.84821 13.6112C5.46184 13.5383 5.09005 13.4217 4.73284 13.2759C4.36834 13.1228 4.02571 12.9405 3.70495 12.7291C3.3769 12.5104 3.07801 12.2626 2.80099 11.9928C2.52397 11.7158 2.27611 11.4169 2.05741 11.0889C1.83871 10.7608 1.65646 10.4182 1.50337 10.061C1.35028 9.6965 1.24093 9.32471 1.16074 8.94563C1.08784 8.55926 1.0441 8.17289 1.0441 7.78652C1.05139 4.49144 3.71953 1.83059 7.01461 1.83059C10.3097 1.83059 12.956 4.47686 12.9778 7.74278C12.9997 11.0233 10.3024 13.7279 7.01461 13.7279ZM6.99274 0.992239C3.19465 1.00682 0.162007 4.0832 0.213037 7.86671C0.220327 8.63216 0.358837 9.37574 0.621277 10.0974C0.883717 10.8192 1.2628 11.4753 1.75123 12.073C1.92619 12.2844 1.94077 12.5104 1.80955 12.7437L1.22635 13.7935C1.06597 14.0851 1.32841 14.4277 1.64917 14.3475L3.63205 13.8445C3.77785 13.8081 3.91636 13.8226 4.04758 13.8882C4.93696 14.3184 5.87008 14.5443 6.86152 14.5662C10.6742 14.6537 13.8089 11.6138 13.8235 7.8011C13.8308 4.03217 10.7617 0.977659 6.99274 0.992239Z" fill="white"/>
<path d="M5.95024 4.88522L6.30745 5.59235C6.38764 5.74544 6.40951 5.91311 6.38035 6.08807C6.35119 6.26303 6.271 6.40883 6.13978 6.52547C6.00856 6.64211 5.93566 6.78791 5.89921 6.96287C5.87005 7.13783 5.89192 7.29821 5.96482 7.4513C6.17623 7.88141 6.54802 8.4719 7.10935 8.89472C7.24057 8.98949 7.38637 9.04781 7.54675 9.0551C7.70713 9.06239 7.86022 9.02594 7.99873 8.93846L8.22472 8.79995C8.44342 8.66873 8.6767 8.64686 8.91727 8.73434L9.82852 9.07697C9.92329 9.11342 10.0108 9.17174 10.091 9.23735C10.1639 9.31025 10.2295 9.39044 10.2732 9.48521C10.3169 9.57998 10.3388 9.68204 10.3388 9.7841C10.3388 9.88616 10.3242 9.98822 10.2878 10.0903C10.2805 10.1194 10.2659 10.1486 10.2513 10.1705L9.99619 10.6589C9.90871 10.8193 9.78478 10.9432 9.61711 11.0161C9.44944 11.089 9.27448 11.1036 9.09952 11.0598C7.67068 10.6881 4.25896 9.40502 3.98923 5.52674C3.97465 5.36636 4.0111 5.22056 4.09129 5.08205C4.17148 4.94354 4.28083 4.84148 4.41934 4.76858L4.8859 4.52801C4.98067 4.47698 5.07544 4.45511 5.18479 4.44053C5.28685 4.43324 5.38891 4.44053 5.49097 4.47698C5.59303 4.51343 5.68051 4.55717 5.7607 4.62278C5.84089 4.68839 5.9065 4.76858 5.95024 4.86335V4.88522Z" fill="white"/>
</g>
</g>
</g>
</svg>
