<svg width="59" height="66" viewBox="0 0 59 66" fill="none" xmlns="http://www.w3.org/2000/svg">
<g clip-path="url(#clip0_561_4549)">
<path d="M58.12 16.5289V60.8789C58.12 63.1989 56.24 65.0789 53.92 65.0789H4.2C1.88 65.0789 0 63.1989 0 60.8789V5.04889C0 2.73889 1.88 0.858887 4.2 0.858887H42.52V10.5289C42.52 13.8389 45.21 16.5289 48.52 16.5289H58.12Z" fill="#ED686A"/>
<path d="M42.5996 11.4589C42.5996 11.4589 42.8296 16.9889 48.8896 16.9889H58.1196V16.5289L42.5996 11.4589Z" fill="#D7585F"/>
<path d="M58.1195 16.4489V16.5289H48.5195C45.2095 16.5289 42.5195 13.8389 42.5195 10.5289V0.858887L58.1195 16.4489Z" fill="#EE989F"/>
<g clip-path="url(#clip1_561_4549)">
<path d="M9 42.8589H13.34C14.27 42.8589 15.04 42.9589 15.64 43.1689C16.25 43.3789 16.73 43.6589 17.09 43.9989C17.45 44.3489 17.7 44.7489 17.84 45.2089C17.98 45.6689 18.05 46.1489 18.05 46.6489C18.05 47.1789 17.98 47.6889 17.84 48.1789C17.7 48.6689 17.45 49.0989 17.09 49.4589C16.73 49.8289 16.26 50.1189 15.66 50.3389C15.06 50.5589 14.31 50.6589 13.41 50.6589H11.51V54.9989H9V42.8589ZM13.32 48.5589C13.76 48.5589 14.13 48.5089 14.42 48.4189C14.71 48.3289 14.94 48.1989 15.11 48.0489C15.28 47.8889 15.4 47.6989 15.46 47.4589C15.52 47.2289 15.55 46.9789 15.55 46.6989C15.55 46.4189 15.52 46.1689 15.45 45.9489C15.38 45.7289 15.26 45.5489 15.09 45.4089C14.92 45.2589 14.69 45.1489 14.4 45.0689C14.11 44.9889 13.75 44.9489 13.3 44.9489H11.5V48.5589H13.32Z" fill="#FDFCFD"/>
<path d="M19.8906 42.8589H24.4306C26.2906 42.8589 27.7406 43.3589 28.7806 44.3689C29.8206 45.3789 30.3406 46.8789 30.3406 48.8589C30.3406 49.8689 30.2006 50.7489 29.9106 51.5089C29.6206 52.2689 29.2006 52.9089 28.6606 53.4289C28.1206 53.9489 27.4506 54.3389 26.6706 54.5989C25.8906 54.8589 25.0006 54.9889 24.0206 54.9889H19.9006V42.8589H19.8906ZM24.0606 52.8289C24.7206 52.8289 25.2806 52.7389 25.7406 52.5489C26.2006 52.3589 26.5806 52.0989 26.8706 51.7489C27.1606 51.3989 27.3706 50.9889 27.5106 50.5089C27.6506 50.0289 27.7106 49.4889 27.7106 48.8889C27.7106 48.2889 27.6506 47.7689 27.5306 47.2889C27.4106 46.8089 27.2206 46.4089 26.9606 46.0789C26.7006 45.7489 26.3606 45.4989 25.9506 45.3189C25.5406 45.1389 25.0306 45.0489 24.4306 45.0489H22.4206V52.8389H24.0506L24.0606 52.8289Z" fill="#FDFCFD"/>
<path d="M32.4199 42.8589H40.3999V45.0389H34.9599V47.8989H40.0799V50.0789H34.9599V55.0089H32.4299V42.8589H32.4199Z" fill="#FDFCFD"/>
</g>
</g>
<defs>
<clipPath id="clip0_561_4549">
<rect width="58.12" height="64.22" fill="white" transform="translate(0 0.858887)"/>
</clipPath>
<clipPath id="clip1_561_4549">
<rect width="31.4" height="12.14" fill="white" transform="translate(9 42.8589)"/>
</clipPath>
</defs>
</svg>
