<svg width="47" height="46" viewBox="0 0 47 46" fill="none" xmlns="http://www.w3.org/2000/svg">
<mask id="mask0_55_10324" style="mask-type:luminance" maskUnits="userSpaceOnUse" x="0" y="0" width="47" height="46">
<path d="M46.5996 0.310059H0.0996094V45.3101H46.5996V0.310059Z" fill="white"/>
</mask>
<g mask="url(#mask0_55_10324)">
<path d="M35.5801 16.2101C32.9901 16.2101 30.8701 14.1001 30.8701 11.5101C30.8701 8.92006 32.9801 6.81006 35.5801 6.81006C38.1801 6.81006 40.2901 8.92006 40.2901 11.5101C40.2901 14.1001 38.1801 16.2101 35.5801 16.2101ZM35.5801 5.34006C32.1801 5.34006 29.4101 8.11006 29.4101 11.5101C29.4101 14.9101 32.1801 17.6801 35.5801 17.6801C38.9801 17.6801 41.7501 14.9101 41.7501 11.5101C41.7501 8.11006 38.9801 5.34006 35.5801 5.34006ZM45.3001 12.5201H44.2801C43.9301 12.5201 43.6301 12.7701 43.5601 13.1101C43.3501 14.1501 42.9501 15.1301 42.3501 16.0201C42.1601 16.3101 42.1901 16.7001 42.4401 16.9401L43.1601 17.6601L41.7301 19.0901L41.0101 18.3701C40.7601 18.1201 40.3801 18.0901 40.0901 18.2801C39.2001 18.8701 38.2201 19.2801 37.1801 19.4901C36.8401 19.5601 36.5901 19.8601 36.5901 20.2101V21.2301H34.5601V20.2101C34.5601 19.8601 34.3101 19.5601 33.9701 19.4901C32.9301 19.2801 31.9501 18.8801 31.0601 18.2801C30.7701 18.0901 30.3801 18.1201 30.1401 18.3701L29.4201 19.0901L27.9901 17.6601L28.7101 16.9401C28.9601 16.6901 29.0001 16.3101 28.8001 16.0201C28.2101 15.1301 27.8001 14.1501 27.5901 13.1101C27.5201 12.7701 27.2201 12.5201 26.8701 12.5201H25.8501V10.4901H26.8701C27.2201 10.4901 27.5201 10.2401 27.5901 9.90006C27.8001 8.86006 28.2001 7.88006 28.8001 6.99006C28.9901 6.70006 28.9601 6.31006 28.7101 6.07006L27.9901 5.35006L29.4201 3.92006L30.1401 4.64006C30.3901 4.89006 30.7701 4.93006 31.0601 4.73006C31.9501 4.14006 32.9301 3.73006 33.9701 3.52006C34.3101 3.45006 34.5601 3.15006 34.5601 2.80006V1.78006H36.5901V2.80006C36.5901 3.15006 36.8401 3.45006 37.1801 3.52006C38.2201 3.73006 39.2001 4.13006 40.0901 4.73006C40.3801 4.92006 40.7701 4.89006 41.0101 4.64006L41.7301 3.92006L43.1601 5.35006L42.4401 6.07006C42.1901 6.32006 42.1501 6.70006 42.3501 6.99006C42.9401 7.88006 43.3501 8.86006 43.5601 9.90006C43.6301 10.2401 43.9301 10.4901 44.2801 10.4901H45.3001V12.5201ZM46.0301 9.03006H44.8601C44.6401 8.21006 44.3201 7.43006 43.8901 6.69006L44.7201 5.86006C44.8601 5.72006 44.9301 5.54006 44.9301 5.34006C44.9301 5.14006 44.8501 4.96006 44.7201 4.82006L42.2501 2.35006C42.1101 2.21006 41.9301 2.14006 41.7301 2.14006C41.5301 2.14006 41.3501 2.22006 41.2101 2.35006L40.3801 3.18006C39.6401 2.75006 38.8601 2.43006 38.0401 2.21006V1.04006C38.0401 0.640058 37.7101 0.310059 37.3101 0.310059H33.8201C33.4201 0.310059 33.0901 0.640058 33.0901 1.04006V2.21006C32.2701 2.43006 31.4901 2.75006 30.7501 3.18006L29.9201 2.35006C29.6301 2.06006 29.1701 2.06006 28.8801 2.35006L26.4101 4.82006C26.1201 5.11006 26.1201 5.57006 26.4101 5.86006L27.2401 6.69006C26.8101 7.43006 26.4901 8.21006 26.2701 9.03006H25.1001C24.7001 9.03006 24.3701 9.36006 24.3701 9.76006V13.2501C24.3701 13.6501 24.7001 13.9801 25.1001 13.9801H26.2701C26.4901 14.8001 26.8101 15.5801 27.2401 16.3201L26.4101 17.1501C26.1201 17.4401 26.1201 17.9001 26.4101 18.1901L28.8801 20.6601C29.0201 20.8001 29.2001 20.8701 29.4001 20.8701C29.6001 20.8701 29.7801 20.7901 29.9201 20.6601L30.7501 19.8301C31.4901 20.2601 32.2701 20.5801 33.0901 20.8001V21.9701C33.0901 22.3701 33.4201 22.7001 33.8201 22.7001H37.3101C37.7101 22.7001 38.0401 22.3701 38.0401 21.9701V20.8001C38.8601 20.5801 39.6401 20.2601 40.3801 19.8301L41.2101 20.6601C41.5001 20.9501 41.9601 20.9501 42.2501 20.6601L44.7201 18.1901C44.8601 18.0501 44.9301 17.8701 44.9301 17.6701C44.9301 17.4701 44.8501 17.2901 44.7201 17.1501L43.8901 16.3201C44.3201 15.5801 44.6401 14.8001 44.8601 13.9801H46.0301C46.4301 13.9801 46.7601 13.6501 46.7601 13.2501V9.76006C46.7601 9.36006 46.4301 9.03006 46.0301 9.03006ZM45.3001 38.3001C45.3001 38.3601 45.2501 38.4101 45.1901 38.4101H1.68008C1.62008 38.4101 1.57008 38.3601 1.57008 38.3001V36.8301C1.57008 36.7701 1.62008 36.7201 1.68008 36.7201H45.2001C45.2601 36.7201 45.3101 36.7701 45.3101 36.8301V38.3001H45.3001ZM3.14008 44.0101V39.8701H43.7301V44.0101H3.14008ZM3.30008 24.7601C3.27008 24.5501 3.32008 24.3701 3.46008 24.2101C3.60008 24.0501 3.77008 23.9701 3.98008 23.9701H28.7801C29.0001 23.9701 29.1601 24.0501 29.3001 24.2101C29.4401 24.3701 29.4901 24.5501 29.4601 24.7601L27.9601 35.2501H4.78008L3.28008 24.7601H3.30008ZM16.3801 17.3601C20.2601 17.3601 23.8301 19.3001 25.9701 22.5101H6.79008C8.93008 19.3101 12.5001 17.3601 16.3801 17.3601ZM10.4801 10.0001C10.4801 6.75006 13.1301 4.10006 16.3801 4.10006C19.6301 4.10006 22.2801 6.75006 22.2801 10.0001C22.2801 13.2501 19.6401 15.9001 16.3801 15.9001C13.1301 15.9001 10.4801 13.2501 10.4801 10.0001ZM33.9001 27.9601C33.8701 27.7501 33.9201 27.5701 34.0601 27.4101C34.2001 27.2501 34.3701 27.1701 34.5801 27.1701H40.1601C40.3801 27.1701 40.5401 27.2501 40.6801 27.4101C40.8201 27.5701 40.8701 27.7501 40.8401 27.9601L39.8001 35.2501H34.9301L33.8901 27.9601H33.9001ZM42.6601 29.6801C42.9501 29.6801 43.1901 29.9201 43.1901 30.2101V32.4201C43.1901 32.7101 42.9501 32.9501 42.6601 32.9501H41.6201L42.0901 29.6801H42.6601ZM45.1801 35.2501H41.2901L41.4101 34.4101H42.6601C43.7601 34.4101 44.6501 33.5201 44.6501 32.4201V30.2101C44.6501 29.1101 43.7601 28.2201 42.6601 28.2201H42.2901V28.1701C42.3901 27.5301 42.2101 26.9401 41.7901 26.4501C41.3701 25.9601 40.8001 25.7101 40.1601 25.7101H34.5801C33.9401 25.7101 33.3701 25.9701 32.9501 26.4501C32.5301 26.9401 32.3501 27.5301 32.4401 28.1701L33.4501 35.2501H29.4301L30.9001 24.9701C30.9901 24.3301 30.8201 23.7401 30.3901 23.2501C29.9701 22.7601 29.4001 22.5101 28.7601 22.5101H27.6701C25.9601 19.5001 23.1901 17.3401 19.9701 16.4101C22.2101 15.1501 23.7201 12.7501 23.7201 10.0001C23.7201 5.94006 20.4201 2.64006 16.3601 2.64006C12.3001 2.64006 9.00008 5.94006 9.00008 10.0001C9.00008 12.7501 10.5101 15.1401 12.7501 16.4101C9.53008 17.3401 6.76008 19.5001 5.05008 22.5101H3.96008C3.32008 22.5101 2.75008 22.7701 2.33008 23.2501C1.91008 23.7401 1.73008 24.3301 1.82008 24.9701L3.29008 35.2501H1.65008C0.780078 35.2501 0.0800781 35.9601 0.0800781 36.8201V38.2901C0.0800781 39.1601 0.780078 39.8601 1.65008 39.8601V44.7301C1.65008 45.1301 1.98008 45.4601 2.38008 45.4601H44.4401C44.8401 45.4601 45.1701 45.1301 45.1701 44.7301V39.8601C46.0401 39.8601 46.7401 39.1501 46.7401 38.2901V36.8201C46.7401 35.9501 46.0301 35.2501 45.1701 35.2501H45.1801ZM16.3701 30.5401C15.7401 30.5401 15.2201 30.0201 15.2201 29.3901C15.2201 28.7601 15.7401 28.2401 16.3701 28.2401C17.0001 28.2401 17.5201 28.7601 17.5201 29.3901C17.5201 30.0201 17.0001 30.5401 16.3701 30.5401ZM16.3701 26.7801C14.9301 26.7801 13.7601 27.9501 13.7601 29.3901C13.7601 30.8301 14.9301 32.0001 16.3701 32.0001C17.8101 32.0001 18.9801 30.8301 18.9801 29.3901C18.9801 27.9501 17.8101 26.7801 16.3701 26.7801Z" fill="#E8433C"/>
</g>
</svg>
