<svg width="30" height="30" viewBox="0 0 30 30" fill="none" xmlns="http://www.w3.org/2000/svg">
<path d="M29.3 5.57733C29.3 2.7883 27.0391 0.527344 24.2501 0.527344H5.41363C2.6246 0.527344 0.363647 2.7883 0.363647 5.57732V24.4138C0.363647 27.2028 2.6246 29.4637 5.41363 29.4637H24.2501C27.0391 29.4637 29.3 27.2028 29.3 24.4138V5.57733Z" fill="#FDFDFD"/>
<path d="M13.0728 12.9335C13.0728 12.5563 12.7959 12.2288 12.4188 12.2266C12.4095 12.2265 12.4003 12.2265 12.391 12.2265C9.5967 12.2265 7.32421 14.499 7.32421 17.2933C7.32421 17.6561 7.36253 18.0098 7.43529 18.3508C7.53596 18.8226 8.12379 18.4743 8.12379 17.9919C8.12379 15.2425 10.3244 12.997 13.0643 12.9253C13.0689 12.9251 13.0728 12.9289 13.0728 12.9335Z" fill="#69C4D0"/>
<path d="M13.1906 20.3149C14.4363 20.3149 15.4547 19.3217 15.4968 18.0844V9.07023C15.4968 7.95462 16.4011 7.05024 17.5168 7.05024C17.4461 6.66858 17.1348 6.35166 16.7466 6.35166H16.0733C15.3133 6.35166 14.6972 6.96777 14.6972 7.72778V17.3859C14.6467 18.6231 13.6283 19.6163 12.3826 19.6163C11.9954 19.6163 11.6335 19.5153 11.3053 19.3469C11.7261 19.9277 12.4079 20.3149 13.1822 20.3149H13.1906Z" fill="#69C4D0"/>
<path d="M12.3826 14.9871C11.1033 14.9871 10.068 16.0224 10.068 17.3017C10.068 18.1939 10.573 18.9598 11.3053 19.3469C11.0275 18.9682 10.8676 18.4969 10.8676 18.0003C10.8676 16.721 11.9029 15.6857 13.1822 15.6857C13.5266 15.6857 13.8639 15.4464 13.8639 15.1021V13.6682C13.8639 13.2751 13.5753 12.9335 13.1822 12.9335C13.1401 12.9335 13.1064 12.9335 13.0644 12.9335V14.4035C13.0644 14.7479 12.727 14.9871 12.3826 14.9871Z" fill="#E83658"/>
<path d="M21.2874 10.7956V11.5478C21.2874 12.3131 20.6231 12.9452 19.8754 12.7821C18.7724 12.5414 17.4578 13.2781 17.4578 14.407V17.3017C17.4578 20.096 15.1853 22.3685 12.391 22.3685C12.0047 22.3685 11.758 22.8752 12.1357 22.9559C12.4764 23.0288 12.8294 23.0671 13.1906 23.0671C15.9849 23.0671 18.2574 20.7946 18.2574 18.0003V15.1056C18.2574 13.9767 19.578 13.2424 20.6812 13.482C21.4239 13.6433 22.087 13.0159 22.087 12.2559V11.6851C22.087 11.2404 21.7235 10.8829 21.2874 10.7956Z" fill="#E83658"/>
<path d="M17.4578 17.3017V14.407C17.4578 13.2781 18.7724 12.5414 19.8754 12.7821C20.6231 12.9452 21.2874 12.3131 21.2874 11.5478V10.7956C20.6973 10.6692 20.1588 10.4049 19.7029 10.0397C19.342 9.75056 18.9892 9.44554 18.6536 9.12741C18.0769 8.58072 17.6732 7.85838 17.5168 7.05024C16.4011 7.05024 15.4968 7.95462 15.4968 9.07023V18.0844C15.4463 19.3217 14.4278 20.3149 13.1822 20.3149C12.4079 20.3149 11.7261 19.9361 11.3053 19.3469C10.5646 18.9598 10.068 18.1854 10.068 17.3017C10.068 16.0224 11.1033 14.9871 12.3826 14.9871C12.727 14.9871 13.0644 14.7479 13.0644 14.4035V12.9335C10.3289 13.0008 8.11537 15.248 8.11537 18.0003C8.11537 19.1446 8.49554 20.2017 9.14325 21.0535C9.35273 21.329 9.61714 21.5593 9.91913 21.7283C10.6501 22.1376 11.4904 22.3685 12.3826 22.3685C15.1741 22.3685 17.4448 20.1006 17.4494 17.3102C17.4494 17.3055 17.4532 17.3017 17.4578 17.3017Z" fill="black"/>
</svg>
