<svg width="41" height="52" viewBox="0 0 41 52" fill="none" xmlns="http://www.w3.org/2000/svg">
<path d="M20.2496 49.5995C18.4287 49.5995 16.966 49.3208 16.966 48.9925C16.966 48.6641 18.4387 48.3855 20.2496 48.3855C22.0606 48.3855 23.5333 48.6641 23.5333 48.9925C23.5333 49.3208 22.0706 49.5995 20.2496 49.5995ZM20.2496 46.7935C13.752 46.7935 8.48828 47.7785 8.48828 48.9925C8.48828 50.2064 13.752 51.1915 20.2496 51.1915C26.7473 51.1915 32.011 50.2064 32.011 48.9925C32.011 47.7785 26.7473 46.7935 20.2496 46.7935Z" fill="#CDCCCC"/>
<path d="M20.2499 26.4451C14.817 26.4451 10.399 22.0371 10.399 16.5942C10.399 11.1514 14.807 6.74335 20.2499 6.74335C25.6928 6.74335 30.1008 11.1514 30.1008 16.5942C30.1008 22.0371 25.6828 26.4451 20.2499 26.4451ZM35.5337 10.017C34.7576 8.1563 33.6232 6.44484 32.1904 5.00204C30.7774 3.56918 29.0858 2.39503 27.2351 1.58905C25.2549 0.723366 23.0858 0.355196 20.9265 0.285543C18.6877 0.215891 16.4289 0.424848 14.2996 1.17113C12.3891 1.84775 10.6179 2.89255 9.08555 4.23585C7.57309 5.5692 6.31934 7.20107 5.41385 9.00209C4.48847 10.8728 3.93125 12.9126 3.78199 14.9823C3.75214 15.3604 3.74219 15.7385 3.74219 16.1166C3.74219 20.8729 6.43875 25.0123 8.69748 29.0123C9.97114 31.2611 11.2448 33.5099 12.5284 35.7587C13.8717 38.117 15.215 40.4951 16.5483 42.8533C17.5334 44.5847 18.5086 46.326 19.5036 48.0574C19.7524 48.4952 20.0011 48.933 20.2499 49.3708C20.4987 48.933 20.7474 48.4952 20.9962 48.0574C21.9813 46.326 22.9564 44.5847 23.9514 42.8533C25.2947 40.4951 26.638 38.117 27.9714 35.7587C29.2451 33.5099 30.5187 31.2611 31.8023 29.0123C34.061 25.0222 36.7576 20.8829 36.7576 16.1166C36.7576 14.027 36.3496 11.9574 35.5437 10.017H35.5337Z" fill="#E8433C"/>
<path d="M20.2496 49.5995C18.4287 49.5995 16.966 49.3208 16.966 48.9925C16.966 48.6641 18.4387 48.3855 20.2496 48.3855C22.0606 48.3855 23.5333 48.6641 23.5333 48.9925C23.5333 49.3208 22.0706 49.5995 20.2496 49.5995ZM20.2496 46.7935C13.752 46.7935 8.48828 47.7785 8.48828 48.9925C8.48828 50.2064 13.752 51.1915 20.2496 51.1915C26.7473 51.1915 32.011 50.2064 32.011 48.9925C32.011 47.7785 26.7473 46.7935 20.2496 46.7935Z" fill="#CDCCCC"/>
<path d="M20.2499 26.4451C14.817 26.4451 10.399 22.0371 10.399 16.5942C10.399 11.1514 14.807 6.74335 20.2499 6.74335C25.6928 6.74335 30.1008 11.1514 30.1008 16.5942C30.1008 22.0371 25.6828 26.4451 20.2499 26.4451ZM35.5337 10.017C34.7576 8.1563 33.6232 6.44484 32.1904 5.00204C30.7774 3.56918 29.0858 2.39503 27.2351 1.58905C25.2549 0.723366 23.0858 0.355196 20.9265 0.285543C18.6877 0.215891 16.4289 0.424848 14.2996 1.17113C12.3891 1.84775 10.6179 2.89255 9.08555 4.23585C7.57309 5.5692 6.31934 7.20107 5.41385 9.00209C4.48847 10.8728 3.93125 12.9126 3.78199 14.9823C3.75214 15.3604 3.74219 15.7385 3.74219 16.1166C3.74219 20.8729 6.43875 25.0123 8.69748 29.0123C9.97114 31.2611 11.2448 33.5099 12.5284 35.7587C13.8717 38.117 15.215 40.4951 16.5483 42.8533C17.5334 44.5847 18.5086 46.326 19.5036 48.0574C19.7524 48.4952 20.0011 48.933 20.2499 49.3708C20.4987 48.933 20.7474 48.4952 20.9962 48.0574C21.9813 46.326 22.9564 44.5847 23.9514 42.8533C25.2947 40.4951 26.638 38.117 27.9714 35.7587C29.2451 33.5099 30.5187 31.2611 31.8023 29.0123C34.061 25.0222 36.7576 20.8829 36.7576 16.1166C36.7576 14.027 36.3496 11.9574 35.5437 10.017H35.5337Z" fill="#E8433C"/>
</svg>
