<svg width="59" height="66" viewBox="0 0 59 66" fill="none" xmlns="http://www.w3.org/2000/svg">
<g clip-path="url(#clip0_569_4624)">
<path d="M58.12 16.5994V60.9494C58.12 63.2694 56.24 65.1494 53.92 65.1494H4.2C1.88 65.1494 0 63.2694 0 60.9494V5.11944C0 2.80944 1.88 0.929443 4.2 0.929443H42.52V10.5994C42.52 13.9094 45.21 16.5994 48.52 16.5994H58.12Z" fill="#D8DFE5"/>
<path d="M42.6191 11.5294C42.6191 11.5294 42.8491 17.0594 48.9091 17.0594H58.1391V16.5994L42.6191 11.5294Z" fill="#B4BCC2"/>
<path d="M58.1391 16.5194V16.5994H48.5391C45.2291 16.5994 42.5391 13.9094 42.5391 10.5994V0.929443L58.1391 16.5194Z" fill="#C3C7CD"/>
<path d="M6.73063 55.5194L20.6606 34.6194C21.1406 33.8994 22.1806 33.8794 22.7006 34.5694L31.5906 46.5494C32.0706 47.1994 33.0406 47.2194 33.5506 46.5994L38.6006 40.4694C39.1206 39.8394 40.0906 39.8694 40.5706 40.5294L51.3706 55.4794C51.9606 56.2994 51.3706 57.4494 50.3606 57.4494H7.77063C6.78063 57.4494 6.18063 56.3394 6.73063 55.5094V55.5194Z" fill="#5585C4"/>
<path d="M36.7096 31.8295C38.5653 31.8295 40.0696 30.3252 40.0696 28.4695C40.0696 26.6138 38.5653 25.1095 36.7096 25.1095C34.8539 25.1095 33.3496 26.6138 33.3496 28.4695C33.3496 30.3252 34.8539 31.8295 36.7096 31.8295Z" fill="#C3C7CD"/>
</g>
<defs>
<clipPath id="clip0_569_4624">
<rect width="58.14" height="64.22" fill="white" transform="translate(0 0.929443)"/>
</clipPath>
</defs>
</svg>
