<svg width="45" height="44" viewBox="0 0 45 44" fill="none" xmlns="http://www.w3.org/2000/svg">
<mask id="mask0_55_10304" style="mask-type:luminance" maskUnits="userSpaceOnUse" x="0" y="0" width="45" height="44">
<path d="M44.1602 0.669922H0.660156V43.4199H44.1602V0.669922Z" fill="white"/>
</mask>
<g mask="url(#mask0_55_10304)">
<path d="M30.6698 30.6499C30.3098 31.0099 29.7198 31.0099 29.3498 30.6499L24.5498 25.8499C24.2798 25.5799 23.8498 25.5799 23.5898 25.8499C23.3198 26.1199 23.3198 26.5499 23.5898 26.8099L28.3898 31.6099C28.7498 31.9699 28.7498 32.5599 28.3898 32.9299C28.2198 33.0999 27.9798 33.1999 27.7298 33.1999C27.4798 33.1999 27.2498 33.0999 27.0698 32.9299L21.9998 27.8599C21.7298 27.5899 21.2998 27.5899 21.0398 27.8599C20.7698 28.1299 20.7698 28.5599 21.0398 28.8199L24.8698 32.6499C25.2298 33.0099 25.2298 33.5999 24.8698 33.9699C24.5098 34.3299 23.9198 34.3299 23.5498 33.9699L19.4498 29.8699C19.1798 29.5999 18.7498 29.5999 18.4898 29.8699C18.2198 30.1399 18.2198 30.5699 18.4898 30.8299L20.3898 32.7299C20.5598 32.8999 20.6598 33.1399 20.6598 33.3899C20.6598 33.6399 20.5598 33.8699 20.3898 34.0499C20.2198 34.2199 19.9798 34.3199 19.7298 34.3199C19.4798 34.3199 19.2498 34.2199 19.0698 34.0499L11.9798 26.9599L13.7498 18.0599H18.2398L17.1798 18.9499C16.4998 19.5199 16.1998 20.2999 16.3798 21.0899L17.5298 26.3499C17.5698 26.5299 17.6798 26.6899 17.8298 26.7799C17.9898 26.8799 18.1698 26.9099 18.3498 26.8599C21.5498 26.0699 21.7498 23.7499 21.9298 21.6999C21.9298 21.6099 21.9498 21.5199 21.9498 21.4199C22.2498 21.4599 22.9798 21.7599 23.9598 22.6399L30.8398 29.6199C30.9798 29.9599 30.8998 30.3699 30.6398 30.6399L30.6698 30.6499ZM10.4198 27.9099L7.82975 27.3899L9.96975 16.6199L12.5598 17.1399L10.4198 27.9099ZM21.8598 16.8299C22.5198 16.2799 23.4098 16.3199 24.1298 16.9099C26.9698 19.2499 29.3698 19.1599 31.2298 18.6099L32.8698 26.8399L31.4398 28.2699L24.9498 21.6799C24.9498 21.6799 24.9298 21.6599 24.9198 21.6499C23.5298 20.3799 22.2398 19.8299 21.3998 20.1399C20.9698 20.2999 20.6998 20.6599 20.6398 21.1299C20.6398 21.1299 20.6398 21.1399 20.6398 21.1499C20.6298 21.2899 20.6098 21.4299 20.5998 21.5699C20.4498 23.3299 20.3298 24.6499 18.7098 25.3099L17.7198 20.7799C17.6398 20.4199 17.8598 20.1399 18.0698 19.9699L21.8498 16.8099L21.8598 16.8299ZM34.9198 16.6299L37.0598 27.3999L34.4698 27.9199L32.3298 17.1499L34.9198 16.6299ZM34.3798 29.2899C34.4598 29.2899 34.5398 29.2899 34.6198 29.2699L37.4398 28.7099C38.1098 28.5799 38.5498 27.9199 38.4098 27.2499L36.2198 16.2499C36.1598 15.9299 35.9698 15.6499 35.6898 15.4599C35.4098 15.2799 35.0798 15.2099 34.7598 15.2699L31.9398 15.8299C31.6198 15.8899 31.3398 16.0799 31.1498 16.3599C30.9698 16.6299 30.8998 16.9499 30.9598 17.2699C29.3498 17.7699 27.3998 17.8599 24.9898 15.8699C23.7598 14.8499 22.1398 14.8199 20.9798 15.7899L19.8898 16.6999H13.8898C13.7598 16.2699 13.4098 15.9299 12.9398 15.8399L10.1198 15.2799C9.79976 15.2199 9.45975 15.2799 9.18975 15.4699C8.90975 15.6499 8.72975 15.9299 8.65975 16.2599L6.46975 27.2599C6.33975 27.9299 6.76976 28.5899 7.44976 28.7199L10.2698 29.2799C10.3498 29.2999 10.4298 29.2999 10.5098 29.2999C10.9998 29.2999 11.4498 28.9999 11.6498 28.5499L18.1198 35.0199C18.5498 35.4499 19.1298 35.6899 19.7398 35.6899C20.3498 35.6899 20.9298 35.4499 21.3598 35.0199C21.5898 34.7899 21.7698 34.5199 21.8798 34.2199L22.5898 34.9299C23.4798 35.8199 24.9398 35.8199 25.8298 34.9299C26.0698 34.6899 26.2498 34.4099 26.3598 34.1099C26.7498 34.4099 27.2298 34.5699 27.7298 34.5699C28.3398 34.5699 28.9198 34.3299 29.3498 33.8999C29.7798 33.4699 30.0198 32.8999 30.0198 32.2899C30.5998 32.2899 31.1898 32.0599 31.6298 31.6199C32.2098 31.0399 32.4198 30.1899 32.2198 29.4199L33.1898 28.4499C33.3598 28.9599 33.8398 29.2999 34.3698 29.2999L34.3798 29.2899ZM43.7998 29.1799L41.5798 30.5099C41.4698 30.5699 41.3498 30.6099 41.2298 30.6099C41.1598 30.6099 41.0798 30.5999 41.0098 30.5699C40.8198 30.5099 40.6698 30.3599 40.5998 30.1799L39.6398 27.7799C39.4998 27.4299 39.6698 27.0399 40.0198 26.8999C40.3698 26.7599 40.7598 26.9299 40.8998 27.2799L41.2298 28.0999C41.9498 26.0299 42.3198 23.8599 42.3198 21.6399C42.3198 19.7699 42.0598 17.9199 41.5398 16.1399C41.4298 15.7799 41.6398 15.3999 41.9998 15.2999C42.3598 15.1999 42.7398 15.3999 42.8398 15.7599C43.3998 17.6699 43.6798 19.6399 43.6798 21.6399C43.6798 23.9399 43.3098 26.1799 42.5898 28.3299L43.0998 28.0299C43.4198 27.8399 43.8398 27.9399 44.0298 28.2599C44.2198 28.5799 44.1198 28.9999 43.7998 29.1899V29.1799ZM1.77976 21.6299C1.77976 20.0299 1.95975 18.4399 2.31975 16.8999L1.84975 17.2499C1.54975 17.4699 1.11975 17.4099 0.899754 17.1099C0.679754 16.8099 0.739755 16.3799 1.03976 16.1599L3.11976 14.6199C3.27976 14.4999 3.47975 14.4599 3.67975 14.4999C3.87975 14.5399 4.03975 14.6699 4.12975 14.8499L5.31975 17.1399C5.48975 17.4699 5.35976 17.8799 5.02976 18.0599C4.92976 18.1099 4.81975 18.1399 4.71975 18.1399C4.46975 18.1399 4.23976 18.0099 4.11976 17.7699L3.71975 16.9899C3.34975 18.4999 3.16975 20.0499 3.16975 21.6299C3.16975 24.3199 3.70975 26.9199 4.75975 29.3799C4.90975 29.7299 4.74975 30.1299 4.39975 30.2699C4.30975 30.3099 4.21975 30.3299 4.12975 30.3299C3.86975 30.3299 3.61975 30.1799 3.49975 29.9199C2.36975 27.2999 1.79975 24.5099 1.79975 21.6399L1.77976 21.6299ZM12.6698 4.00992C12.4898 3.67992 12.6198 3.26992 12.9498 3.08992C15.9398 1.50992 19.3198 0.669922 22.7298 0.669922C25.5098 0.669922 28.2598 1.22992 30.8098 2.28992L30.5398 1.75992C30.3698 1.41992 30.4998 1.01992 30.8398 0.849922C31.1798 0.679922 31.5798 0.809921 31.7498 1.14992L32.9198 3.44992C33.0098 3.62992 33.0198 3.83992 32.9398 4.01992C32.8598 4.19992 32.7098 4.33992 32.5198 4.40992L30.0598 5.19992C29.9898 5.21992 29.9198 5.22992 29.8498 5.22992C29.5598 5.22992 29.2898 5.04992 29.1998 4.75992C29.0898 4.39992 29.2798 4.01992 29.6398 3.90992L30.4698 3.63992C28.0398 2.58992 25.3898 2.03992 22.7198 2.03992C19.5398 2.03992 16.3798 2.81992 13.5798 4.29992C13.2498 4.47992 12.8398 4.34992 12.6598 4.01992L12.6698 4.00992ZM30.3898 40.4199C30.5198 40.7699 30.3398 41.1599 29.9898 41.2899C27.6698 42.1499 25.2298 42.5799 22.7398 42.5799C20.9298 42.5799 19.1498 42.3499 17.4198 41.8999L17.7598 42.3799C17.9698 42.6899 17.8998 43.1099 17.5898 43.3299C17.4698 43.4099 17.3398 43.4499 17.1998 43.4499C16.9798 43.4499 16.7698 43.3499 16.6398 43.1599L15.1598 41.0399C15.0498 40.8799 15.0098 40.6699 15.0598 40.4799C15.1098 40.2899 15.2398 40.1299 15.4198 40.0399L17.7498 38.9199C18.0898 38.7599 18.4998 38.8999 18.6598 39.2399C18.8198 39.5799 18.6798 39.9899 18.3398 40.1499L17.5498 40.5299C19.2298 40.9899 20.9698 41.2199 22.7398 41.2199C25.0698 41.2199 27.3498 40.8099 29.5198 40.0099C29.8698 39.8799 30.2598 40.0599 30.3898 40.4099V40.4199ZM32.8398 41.2199C33.1698 38.8999 35.1898 37.1299 37.5598 37.1299C39.9298 37.1299 41.9498 38.8999 42.2798 41.2199H32.8298H32.8398ZM35.2998 33.4999C35.2998 32.2499 36.3198 31.2299 37.5698 31.2299C38.8198 31.2299 39.8398 32.2499 39.8398 33.4999C39.8398 34.7499 38.8198 35.7699 37.5698 35.7699C36.3198 35.7699 35.2998 34.7499 35.2998 33.4999ZM39.9298 36.2499C40.6998 35.5799 41.1898 34.5999 41.1898 33.4999C41.1898 31.4999 39.5598 29.8699 37.5598 29.8699C35.5598 29.8699 33.9298 31.4999 33.9298 33.4999C33.9298 34.5999 34.4198 35.5799 35.1898 36.2499C33.1298 37.1199 31.6098 39.0899 31.4398 41.4399C31.4198 41.7299 31.5198 42.0299 31.7198 42.2399C31.9198 42.4599 32.1998 42.5799 32.4998 42.5799H42.6198C42.9098 42.5799 43.1998 42.4599 43.3998 42.2399C43.5998 42.0199 43.6998 41.7299 43.6798 41.4399C43.4998 39.0899 41.9898 37.1199 39.9298 36.2499ZM3.16975 41.2199C3.49975 38.8999 5.51975 37.1299 7.88975 37.1299C10.2598 37.1299 12.2798 38.8999 12.6098 41.2199H3.15975H3.16975ZM5.62975 33.4999C5.62975 32.2499 6.64975 31.2299 7.89975 31.2299C9.14975 31.2299 10.1698 32.2499 10.1698 33.4999C10.1698 34.7499 9.14975 35.7699 7.89975 35.7699C6.64975 35.7699 5.62975 34.7499 5.62975 33.4999ZM14.0098 41.4399C13.8298 39.0899 12.3198 37.1199 10.2598 36.2499C11.0298 35.5799 11.5198 34.5999 11.5198 33.4999C11.5198 31.4999 9.88975 29.8699 7.88975 29.8699C5.88975 29.8699 4.25975 31.4999 4.25975 33.4999C4.25975 34.5999 4.74975 35.5799 5.51975 36.2499C3.45975 37.1199 1.93975 39.0899 1.76975 41.4399C1.74975 41.7299 1.84975 42.0299 2.04975 42.2399C2.24975 42.4599 2.52975 42.5799 2.82975 42.5799H12.9498C13.2398 42.5799 13.5298 42.4599 13.7298 42.2399C13.9298 42.0199 14.0298 41.7299 14.0098 41.4399ZM37.5598 8.69992C39.9298 8.69992 41.9498 10.4699 42.2798 12.7899H32.8298C33.1598 10.4699 35.1798 8.69992 37.5498 8.69992H37.5598ZM35.2898 5.06992C35.2898 3.81992 36.3098 2.79992 37.5598 2.79992C38.8098 2.79992 39.8298 3.81992 39.8298 5.06992C39.8298 6.31992 38.8098 7.33992 37.5598 7.33992C36.3098 7.33992 35.2898 6.31992 35.2898 5.06992ZM31.4398 13.0099C31.4198 13.2999 31.5198 13.5999 31.7198 13.8099C31.9198 14.0299 32.1998 14.1499 32.4998 14.1499H42.6198C42.9098 14.1499 43.1998 14.0299 43.3998 13.8099C43.5998 13.5899 43.6998 13.2999 43.6798 13.0099C43.4998 10.6599 41.9898 8.68992 39.9298 7.81992C40.6998 7.14992 41.1898 6.16992 41.1898 5.06992C41.1898 3.06992 39.5598 1.43992 37.5598 1.43992C35.5598 1.43992 33.9298 3.06992 33.9298 5.06992C33.9298 6.16992 34.4198 7.14992 35.1898 7.81992C33.1298 8.68992 31.6098 10.6599 31.4398 13.0099ZM7.88975 7.92992C10.2598 7.92992 12.2798 9.69992 12.6098 12.0199H3.15975C3.48975 9.69992 5.50975 7.92992 7.87975 7.92992H7.88975ZM5.61976 4.29992C5.61976 3.04992 6.63975 2.02992 7.88975 2.02992C9.13975 2.02992 10.1598 3.04992 10.1598 4.29992C10.1598 5.54992 9.13975 6.56992 7.88975 6.56992C6.63975 6.56992 5.61976 5.54992 5.61976 4.29992ZM2.82975 13.3799H12.9498C13.2398 13.3799 13.5298 13.2599 13.7298 13.0399C13.9298 12.8199 14.0298 12.5299 14.0098 12.2399C13.8298 9.88992 12.3198 7.91992 10.2598 7.04992C11.0298 6.37992 11.5198 5.39992 11.5198 4.29992C11.5198 2.29992 9.88975 0.669922 7.88975 0.669922C5.88975 0.669922 4.25975 2.29992 4.25975 4.29992C4.25975 5.39992 4.74975 6.37992 5.51975 7.04992C3.45975 7.91992 1.93975 9.88992 1.76975 12.2399C1.74975 12.5299 1.84975 12.8299 2.04975 13.0399C2.24975 13.2599 2.52975 13.3799 2.82975 13.3799Z" fill="#E8433C"/>
</g>
</svg>
