<svg width="41" height="29" viewBox="0 0 41 29" fill="none" xmlns="http://www.w3.org/2000/svg">
<path d="M20.4 16.6377C20.6333 16.3488 37.2556 2.89323 37.6556 2.67101C38.0778 2.42657 38.1778 2.2599 37.9444 2.1599C37.8667 2.12657 29.8889 2.10434 20.2 2.10434C3.95556 2.10434 2.57778 2.10435 2.46667 2.23768C2.36667 2.3599 2.37778 2.39323 2.51111 2.47101C2.6 2.52657 2.84444 2.68212 3.05556 2.81545C3.5 3.10434 19.8889 16.4155 20.0556 16.6266C20.2 16.8043 20.2667 16.8043 20.4111 16.6266L20.4 16.6377ZM36.8778 26.3821C36.8556 26.3266 34.4889 24.3266 31.6111 21.9488C28.7333 19.571 26.3111 17.5377 26.2333 17.4377C26.0444 17.2043 26.0444 16.6266 26.2333 16.3821C26.5222 16.0266 27 15.9155 27.3556 16.1043C27.5222 16.1932 38.0111 24.8377 38.4778 25.271L38.6889 25.4599L38.6667 14.9932C38.6556 8.10434 38.6111 4.44879 38.5556 4.30435L38.4667 4.08212L37.9444 4.59323C37.6556 4.87101 34.0778 7.81545 29.9889 11.1377C25.9 14.4599 22.2889 17.4155 21.9667 17.7043C21.0222 18.5488 20.7667 18.6932 20.2111 18.6932C19.6556 18.6932 19.3778 18.5377 18.4222 17.671C18.0889 17.371 14.4889 14.4266 10.4111 11.1155C6.33333 7.80434 2.76667 4.87101 2.47778 4.59323L1.95556 4.08212L1.86667 4.30435C1.81111 4.44879 1.77778 8.11545 1.75556 14.9932L1.73333 25.4599L2.15556 25.1043C3.12222 24.2821 12.4556 16.571 12.8 16.3043C13.0333 16.1266 13.2778 16.0155 13.4333 16.0155C13.7444 16.0155 14.1444 16.2155 14.2556 16.4266C14.3667 16.6266 14.3667 17.1488 14.2556 17.3488C14.2111 17.4377 11.7778 19.4821 8.85556 21.9155C5.93333 24.3377 3.53333 26.3599 3.53333 26.4043C3.53333 26.4599 9.66667 26.4821 20.2111 26.4821C33.5111 26.4821 36.8778 26.4599 36.8556 26.3821H36.8778ZM1.5 28.2377C1.12222 28.1266 0.533333 27.571 0.244444 27.0599L0 26.6154V15.5599C0 5.4599 0.011111 4.4599 0.144444 4.00434C0.222222 3.72656 0.377778 3.10434 0.5 2.62657C0.755556 1.60434 1 1.20434 1.6 0.804344C2.44444 0.248789 1.07778 0.282121 20.2333 0.282121C39.3889 0.282121 38.0222 0.248789 38.8667 0.804344C39.1 0.9599 39.4 1.24878 39.5333 1.4599C39.7778 1.82656 39.8444 2.02657 40.2889 3.90435L40.5 4.80434L40.4778 15.7155C40.4556 26.371 40.4556 26.6377 40.2889 26.971C40.0444 27.471 39.3222 28.1488 38.9333 28.2599C38.5222 28.371 1.87778 28.371 1.48889 28.2599L1.5 28.2377Z" fill="#E8433C"/>
</svg>
