<svg width="126" height="136" viewBox="0 0 126 136" fill="none" xmlns="http://www.w3.org/2000/svg">
<path d="M76.83 27.92C77.16 29.84 79.91 29.54 79.91 27.66V26.31C81.41 26.66 82.69 28.07 82.8 29.6C82.93 31.27 81.66 33.03 80.04 33.44C77.86 33.99 75 32.15 75.6 29.21C76.23 29.09 76.73 28.58 76.84 27.92H76.83ZM99.09 15.98C116.26 15.1 120.34 20.68 121.3 36.99C122.12 51 122.19 62.42 121.55 77.31C97.18 79.09 87.02 79.91 62.5 79.35C64.02 69.36 63.86 59.2 63.44 49.68C62.87 36.82 58.39 22 47.22 15.62C57.12 15.49 67.12 15.9 76.78 16.12V23.64C76.57 23.74 76.35 23.83 76.15 23.95C74.16 24.09 71.14 28.55 72.93 32.61C74.22 35.54 77.67 37.24 80.8 36.46C83.92 35.68 86.17 32.55 85.92 29.35C85.68 26.19 83.05 23.49 79.91 23.13V16.16C86.33 16.27 92.78 16.28 99.09 15.97V15.98ZM11.59 95.68C20.04 84 23.84 83.11 23.87 81.23L58.96 80.8C58.96 80.8 58.96 80.82 58.96 80.83C58.96 80.94 59 81.03 59.01 81.13C52.7 88.35 46.16 95.73 38.41 100.58C29.78 105.98 20.68 107.16 13.43 103.83C12.37 103.35 9.91 101.96 9.87 99.64C9.84 98.23 10.75 96.85 11.6 95.68H11.59ZM48.98 70.17C49.08 68.02 48.75 61.67 48.58 39.99C48.57 39.13 47.87 38.45 47.02 38.45H19.82C20.86 29.01 24.37 21.68 29.62 18.21C40.91 10.69 59.04 21.22 60.32 49.82C60.65 57.23 60.83 65.02 60.15 72.78C55.19 73.75 41.1 74.7 39.16 74.94C36.27 75.29 26.78 75.28 23.37 77.32C23.23 75.64 23.04 73.87 22.79 71.99C42.4 71.86 46.55 72.18 47.83 71.92C48.82 71.72 48.94 70.84 48.97 70.17H48.98ZM3.14 44.05C24.86 55.67 24.08 55.78 25.24 55.1C31.74 51.32 38.29 47.84 45.51 43.69L45.84 68.86H3.14V44.05ZM42.91 41.57C36.25 45.37 30.2 48.62 24.42 51.96L5.13 41.57H42.91ZM79.91 3.15C82.68 3.25 85.6 3.58 88.5 3.87C88.37 4.89 88.17 5.87 88.07 6.94C87.65 7.09 86.79 7.43 86.57 7.45H79.91V3.15ZM88.63 10.07C88.93 9.96 89.43 9.77 89.6 9.76C90.5 9.76 91.21 9 91.16 8.12C91.03 5.62 92.97 1.16 90.28 0.91C86.42 0.56 82.3 0 78.34 0C77.48 0 76.78 0.699998 76.78 1.56V12.99C74.44 12.94 40.52 11.87 38.44 12.89C34.71 12.63 31.04 13.49 27.88 15.59C21.79 19.61 17.76 27.9 16.66 38.44H1.56C0.699998 38.44 0 39.14 0 40V70.42C0 71.28 0.699998 71.98 1.56 71.98H19.63C20.52 78.59 20.3 79.8 20.5 80.78C16.36 84.69 12.5 89.06 9.05 93.84C7.82 95.54 6.68 97.43 6.72 99.69C6.77 102.57 8.73 105.12 12.1 106.67C12.46 106.84 12.83 106.96 13.2 107.1C28.92 118.11 52.88 99.42 63.24 83.09V134.69C65.06 134.69 66.85 134.73 68.65 134.92C69.27 136.55 71.67 136.09 71.67 134.37V82.63C75.3 82.66 78.46 82.67 82.53 82.61L82.26 133.83C82.26 135.36 84.03 135.5 83.82 135.4C84.68 135.4 85.38 134.71 85.38 133.84L85.65 82.55C97.3 82.28 107.69 81.46 123.15 80.33C123.94 80.27 124.56 79.63 124.6 78.84C125.31 63.14 125.26 51.36 124.41 36.8C123.36 18.97 118.05 11.89 98.92 12.85C92.68 13.16 86.28 13.15 79.9 13.04V10.58C87.17 10.35 86.14 11 88.62 10.07H88.63Z" fill="#E8433C"/>
</svg>
