<svg width="37" height="36" viewBox="0 0 37 36" fill="none" xmlns="http://www.w3.org/2000/svg">
<path d="M36.0195 30.5268C36.0195 33.5427 33.5734 36 30.5464 36H5.49269C2.47687 36 0.0195312 33.5538 0.0195312 30.5268V5.47316C0.0195312 2.45733 2.4657 0 5.49269 0H30.5464C33.5622 0 36.0195 2.44616 36.0195 5.47316V30.5268Z" fill="#FDFDFD"/>
<path d="M12.8195 10.4C12.8195 10.72 12.7595 11.03 12.6395 11.32C12.5195 11.61 12.3395 11.88 12.1195 12.1C11.8995 12.32 11.6295 12.5 11.3395 12.62C11.0495 12.74 10.7395 12.8 10.4195 12.8C10.0995 12.8 9.78953 12.74 9.49953 12.62C9.20953 12.5 8.93954 12.32 8.71954 12.1C8.49954 11.88 8.31953 11.61 8.19953 11.32C8.07953 11.03 8.01953 10.72 8.01953 10.4C8.01953 10.08 8.07953 9.76998 8.19953 9.47998C8.31953 9.18998 8.49954 8.91998 8.71954 8.69998C8.93954 8.47998 9.20953 8.29999 9.49953 8.17999C9.78953 8.05999 10.0995 8 10.4195 8C10.7395 8 11.0495 8.05999 11.3395 8.17999C11.6295 8.29999 11.8995 8.47998 12.1195 8.69998C12.3395 8.91998 12.5195 9.18998 12.6395 9.47998C12.7595 9.76998 12.8195 10.08 12.8195 10.4Z" fill="#212146"/>
<path d="M12.4798 14.5801H8.33984V27.8801H12.4798V14.5801Z" fill="#212146"/>
<path d="M19.0103 14.5801H15.0703V27.8801H19.0103V14.5801Z" fill="#212146"/>
<path d="M19.1802 21.6699H15.2402V27.8899H19.1802V21.6699Z" fill="#212146"/>
<path d="M19.18 21.6697C19.18 21.6697 19.12 19.9397 19.57 19.0497C19.57 19.0497 20.03 17.9498 21.46 17.9398C21.46 17.9398 23.14 17.6498 23.62 19.3098C23.62 19.3098 23.8 20.2298 23.8 20.6198C23.8 21.0098 23.81 27.8897 23.81 27.8897H27.93V20.2697C27.93 20.2697 28.23 15.9697 25.65 14.7897C25.65 14.7897 21.4 12.8797 19.1 16.3897C19.1 16.3897 18.6 16.7397 18.53 15.7697C18.46 14.7997 17.87 17.2598 17.85 17.3098C17.83 17.3598 18.53 22.2198 18.53 22.2198L19.19 21.6798L19.18 21.6697Z" fill="#212146"/>
</svg>
