<svg width="26" height="30" viewBox="0 0 26 30" fill="none" xmlns="http://www.w3.org/2000/svg">
<path d="M8 8.76923L13 13.9615M13 13.9615L18 8.76923M13 13.9615V1.5M23 9.80769C23.5304 9.80769 24.0392 10.0265 24.4142 10.416C24.7892 10.8055 25 11.3338 25 11.8846V26.4231C25 26.9739 24.7892 27.5022 24.4142 27.8917C24.0392 28.2811 23.5304 28.5 23 28.5H3C2.46956 28.5 1.96086 28.2811 1.58578 27.8917C1.21072 27.5022 1 26.9739 1 26.4231V11.8846C1 11.3338 1.21072 10.8055 1.58578 10.416C1.96086 10.0265 2.46956 9.80769 3 9.80769M1 12.4246L13 21.2308L25 12.4246" stroke="white" stroke-width="2" stroke-linecap="round" stroke-linejoin="round"/>
</svg>
