<svg width="30" height="30" viewBox="0 0 30 30" fill="none" xmlns="http://www.w3.org/2000/svg">
<path d="M29.2773 5.57733C29.2773 2.7883 27.0164 0.527344 24.2274 0.527344H5.39092C2.6019 0.527344 0.340942 2.7883 0.340942 5.57732V24.4138C0.340942 27.2028 2.60189 29.4637 5.39092 29.4637H24.2274C27.0164 29.4637 29.2773 27.2028 29.2773 24.4138V5.57733Z" fill="#FDFDFD"/>
<path d="M20.2631 10.055C20.7681 10.055 21.1721 9.65098 21.1721 9.14598C21.1721 8.64098 20.7681 8.23698 20.2631 8.23698C19.7581 8.23698 19.3541 8.64098 19.3541 9.14598C19.3541 9.65098 19.7581 10.055 20.2631 10.055Z" fill="#212146"/>
<path d="M14.8091 11.0481C16.8965 11.0481 18.5966 12.7483 18.5966 14.8356C18.5966 16.923 16.8965 18.6231 14.8091 18.6231C12.7218 18.6231 11.0217 16.923 11.0217 14.8356C11.0217 12.7483 12.7218 11.0481 14.8091 11.0481ZM14.8091 19.9193C17.6119 19.9193 19.8928 17.6384 19.8928 14.8356C19.8928 12.0329 17.6119 9.75198 14.8091 9.75198C12.0064 9.75198 9.72549 12.0329 9.72549 14.8356C9.72549 17.6384 12.0064 19.9193 14.8091 19.9193Z" fill="#212146"/>
<path d="M6.43459 9.88664C6.43459 8.00132 7.96641 6.46107 9.86016 6.46107H19.7581C21.6434 6.46107 23.1837 7.9929 23.1837 9.88664V19.7846C23.1837 21.6699 21.6519 23.2102 19.7581 23.2102H9.86016C7.97483 23.2102 6.43459 21.6783 6.43459 19.7846V9.88664ZM9.86016 24.5063H19.7581C22.3589 24.5063 24.4799 22.3853 24.4799 19.7846V9.88664C24.4799 7.2859 22.3589 5.16491 19.7581 5.16491H9.86016C7.25942 5.16491 5.13842 7.2859 5.13842 9.88664V19.7846C5.13842 22.3853 7.25942 24.5063 9.86016 24.5063Z" fill="#212146"/>
</svg>
