<svg width="45" height="45" viewBox="0 0 45 45" fill="none" xmlns="http://www.w3.org/2000/svg">
<path d="M34.5701 33.6002C34.7101 33.7402 34.7901 33.9102 34.7901 34.1102C34.7901 34.3102 34.7201 34.4802 34.5801 34.6302C34.4401 34.7702 34.2701 34.8402 34.0601 34.8402C33.8601 34.8402 33.6901 34.7702 33.5501 34.6202L31.3701 32.4402C31.2301 32.3002 31.1601 32.1302 31.1601 31.9302V28.3002C31.1601 28.1002 31.2301 27.9302 31.3701 27.7902C31.5101 27.6502 31.6801 27.5802 31.8801 27.5802C32.0801 27.5802 32.2501 27.6502 32.3901 27.7902C32.5301 27.9302 32.6001 28.1002 32.6001 28.3002V31.6302L34.5701 33.6002ZM32.6001 39.8802V38.4602C32.6001 38.2602 32.5301 38.0902 32.3901 37.9502C32.2501 37.8102 32.0801 37.7402 31.8801 37.7402C31.6801 37.7402 31.5101 37.8102 31.3701 37.9502C31.2301 38.0902 31.1601 38.2602 31.1601 38.4602V39.8802C30.7001 39.8402 30.2501 39.7602 29.8001 39.6302C29.3501 39.5102 28.9201 39.3502 28.5001 39.1502C28.0801 38.9502 27.6801 38.7202 27.3001 38.4602C26.9201 38.1902 26.5701 37.9002 26.2401 37.5702C25.9101 37.2402 25.6201 36.8902 25.3501 36.5102C25.0801 36.1302 24.8501 35.7302 24.6601 35.3102C24.4601 34.8902 24.3001 34.4602 24.1801 34.0102C24.0601 33.5602 23.9801 33.1102 23.9301 32.6502H25.3501C25.5501 32.6502 25.7201 32.5802 25.8601 32.4402C26.0001 32.3002 26.0701 32.1302 26.0701 31.9302C26.0701 31.7302 26.0001 31.5602 25.8601 31.4202C25.7201 31.2802 25.5501 31.2102 25.3501 31.2102H23.9301C23.9701 30.7502 24.0501 30.3002 24.1801 29.8502C24.3001 29.4002 24.4601 28.9702 24.6601 28.5502C24.8601 28.1302 25.0901 27.7302 25.3501 27.3502C25.6201 26.9702 25.9101 26.6202 26.2401 26.2902C26.5701 25.9602 26.9201 25.6702 27.3001 25.4002C27.6801 25.1302 28.0801 24.9002 28.5001 24.7102C28.9201 24.5102 29.3501 24.3502 29.8001 24.2302C30.2501 24.1102 30.7001 24.0302 31.1601 23.9802V25.4002C31.1601 25.6002 31.2301 25.7702 31.3701 25.9102C31.5101 26.0502 31.6801 26.1202 31.8801 26.1202C32.0801 26.1202 32.2501 26.0502 32.3901 25.9102C32.5301 25.7702 32.6001 25.6002 32.6001 25.4002V23.9802C33.0601 24.0202 33.5101 24.1002 33.9601 24.2302C34.4101 24.3502 34.8401 24.5102 35.2601 24.7102C35.6801 24.9102 36.0801 25.1402 36.4601 25.4002C36.8401 25.6702 37.1901 25.9602 37.5201 26.2902C37.8501 26.6202 38.1401 26.9702 38.4101 27.3502C38.6801 27.7302 38.9101 28.1302 39.1001 28.5502C39.2901 28.9702 39.4601 29.4002 39.5801 29.8502C39.7001 30.3002 39.7801 30.7502 39.8301 31.2102H38.4101C38.2101 31.2102 38.0401 31.2802 37.9001 31.4202C37.7601 31.5602 37.6901 31.7302 37.6901 31.9302C37.6901 32.1302 37.7601 32.3002 37.9001 32.4402C38.0401 32.5802 38.2101 32.6502 38.4101 32.6502H39.8301C39.7901 33.1102 39.7101 33.5602 39.5801 34.0102C39.4601 34.4602 39.3001 34.8902 39.1001 35.3102C38.9001 35.7302 38.6701 36.1302 38.4101 36.5102C38.1401 36.8902 37.8501 37.2402 37.5201 37.5702C37.1901 37.9002 36.8401 38.1902 36.4601 38.4602C36.0801 38.7302 35.6801 38.9602 35.2601 39.1502C34.8401 39.3502 34.4101 39.5102 33.9601 39.6302C33.5101 39.7502 33.0601 39.8302 32.6001 39.8802ZM31.8701 22.4902C31.2501 22.4902 30.6401 22.5502 30.0301 22.6702C29.4201 22.7902 28.8301 22.9702 28.2601 23.2102C27.6901 23.4502 27.1401 23.7402 26.6301 24.0802C26.1101 24.4202 25.6401 24.8202 25.2001 25.2502C24.7601 25.6802 24.3701 26.1602 24.0301 26.6802C23.6901 27.2002 23.4001 27.7402 23.1601 28.3102C22.9201 28.8802 22.7401 29.4702 22.6201 30.0802C22.5001 30.6902 22.4401 31.3002 22.4401 31.9202C22.4401 32.5402 22.5001 33.1502 22.6201 33.7602C22.7401 34.3702 22.9201 34.9602 23.1601 35.5302C23.4001 36.1002 23.6901 36.6502 24.0301 37.1602C24.3701 37.6702 24.7701 38.1502 25.2001 38.5902C25.6301 39.0302 26.1101 39.4202 26.6301 39.7602C27.1501 40.1002 27.6901 40.4002 28.2601 40.6302C28.8301 40.8702 29.4201 41.0502 30.0301 41.1702C30.6401 41.2902 31.2501 41.3502 31.8701 41.3502C32.4901 41.3502 33.1001 41.2902 33.7101 41.1702C34.3201 41.0502 34.9101 40.8702 35.4801 40.6302C36.0501 40.3902 36.6001 40.1002 37.1101 39.7602C37.6301 39.4202 38.1001 39.0202 38.5401 38.5902C38.9801 38.1502 39.3701 37.6802 39.7101 37.1602C40.0501 36.6402 40.3401 36.1002 40.5801 35.5302C40.8201 34.9602 41.0001 34.3702 41.1201 33.7602C41.2401 33.1502 41.3001 32.5402 41.3001 31.9202C41.3001 31.3002 41.2401 30.6902 41.1201 30.0802C41.0001 29.4702 40.8201 28.8802 40.5801 28.3102C40.3401 27.7402 40.0501 27.1902 39.7101 26.6802C39.3701 26.1602 38.9701 25.6902 38.5401 25.2502C38.1101 24.8102 37.6301 24.4202 37.1101 24.0802C36.5901 23.7402 36.0501 23.4402 35.4801 23.2102C34.9101 22.9702 34.3201 22.7902 33.7101 22.6702C33.1001 22.5502 32.4901 22.4902 31.8701 22.4902ZM31.1401 17.4102V15.9602H28.2401V18.0802C28.2401 18.2802 28.1701 18.4502 28.0301 18.5902C27.8901 18.7302 27.7201 18.8002 27.5201 18.8002C27.3201 18.8002 27.1501 18.7302 27.0101 18.5902C26.8701 18.4502 26.8001 18.2802 26.8001 18.0802V15.2402C26.8001 15.0402 26.8701 14.8702 27.0101 14.7302C27.1501 14.5902 27.3201 14.5202 27.5201 14.5202H31.8801C32.0801 14.5202 32.2501 14.5902 32.3901 14.7302C32.5301 14.8702 32.6001 15.0402 32.6001 15.2402V17.4202C32.6001 17.6202 32.5301 17.7902 32.3901 17.9302C32.2501 18.0702 32.0801 18.1402 31.8801 18.1402C31.6801 18.1402 31.5101 18.0702 31.3701 17.9302C31.2301 17.7902 31.1601 17.6202 31.1601 17.4202L31.1401 17.4102ZM4.28008 5.7902H6.46008V6.5202C6.46008 6.81019 6.52008 7.0902 6.63008 7.3502C6.74008 7.6202 6.90008 7.8502 7.10008 8.0602C7.30008 8.2602 7.54008 8.4202 7.81008 8.5302C8.08008 8.6402 8.35008 8.7002 8.64008 8.7002C8.93008 8.7002 9.21008 8.6402 9.47008 8.5302C9.73008 8.4202 9.97008 8.2602 10.1801 8.0602C10.3801 7.8602 10.5401 7.6202 10.6501 7.3502C10.7601 7.0802 10.8201 6.81019 10.8201 6.5202V5.7902H16.6301V6.5202C16.6301 6.81019 16.6901 7.0902 16.8001 7.3502C16.9101 7.6202 17.0701 7.8502 17.2701 8.0602C17.4701 8.2602 17.7101 8.4202 17.9801 8.5302C18.2501 8.6402 18.5201 8.7002 18.8101 8.7002C19.1001 8.7002 19.3801 8.6402 19.6401 8.5302C19.9001 8.4202 20.1401 8.2602 20.3501 8.0602C20.5601 7.8602 20.7101 7.6202 20.8201 7.3502C20.9301 7.0802 20.9901 6.81019 20.9901 6.5202V5.7902H26.8001V6.5202C26.8001 6.81019 26.8601 7.0902 26.9701 7.3502C27.0801 7.6102 27.2401 7.8502 27.4401 8.0602C27.6401 8.2602 27.8801 8.4202 28.1501 8.5302C28.4201 8.6402 28.6901 8.7002 28.9801 8.7002C29.2701 8.7002 29.5501 8.6402 29.8101 8.5302C30.0801 8.4202 30.3101 8.2602 30.5201 8.0602C30.7201 7.8602 30.8801 7.6202 30.9901 7.3502C31.1001 7.0802 31.1601 6.81019 31.1601 6.5202V5.7902H33.3401C33.6301 5.7902 33.9101 5.8502 34.1701 5.9602C34.4301 6.0702 34.6701 6.2302 34.8801 6.4302C35.0801 6.6302 35.2401 6.8702 35.3501 7.1402C35.4601 7.4102 35.5201 7.6802 35.5201 7.9702V10.1502H2.11008V7.9702C2.11008 7.6802 2.17008 7.4002 2.28008 7.1402C2.39008 6.8702 2.55008 6.6402 2.75008 6.4302C2.95008 6.2302 3.19008 6.0702 3.46008 5.9602C3.73008 5.8502 4.00008 5.7902 4.29008 5.7902H4.28008ZM7.91008 2.8902C7.91008 2.6902 7.98008 2.5202 8.12008 2.3802C8.26008 2.2402 8.43008 2.1702 8.63008 2.1702C8.83008 2.1702 9.00008 2.2402 9.14008 2.3802C9.28008 2.5202 9.35008 2.6902 9.35008 2.8902V6.5202C9.35008 6.72019 9.28008 6.8902 9.14008 7.0302C9.00008 7.1702 8.83008 7.2402 8.63008 7.2402C8.43008 7.2402 8.26008 7.1702 8.12008 7.0302C7.98008 6.8902 7.91008 6.72019 7.91008 6.5202V2.8902ZM18.0701 2.8902C18.0701 2.6902 18.1401 2.5202 18.2801 2.3802C18.4201 2.2402 18.5901 2.1702 18.7901 2.1702C18.9901 2.1702 19.1601 2.2402 19.3001 2.3802C19.4401 2.5202 19.5101 2.6902 19.5101 2.8902V6.5202C19.5101 6.72019 19.4401 6.8902 19.3001 7.0302C19.1601 7.1702 18.9901 7.2402 18.7901 7.2402C18.5901 7.2402 18.4201 7.1702 18.2801 7.0302C18.1401 6.8902 18.0701 6.72019 18.0701 6.5202V2.8902ZM28.2301 2.8902C28.2301 2.6902 28.3001 2.5202 28.4401 2.3802C28.5801 2.2402 28.7501 2.1702 28.9501 2.1702C29.1501 2.1702 29.3201 2.2402 29.4601 2.3802C29.6001 2.5202 29.6701 2.6902 29.6701 2.8902V6.5202C29.6701 6.72019 29.6001 6.8902 29.4601 7.0302C29.3201 7.1702 29.1501 7.2402 28.9501 7.2402C28.7501 7.2402 28.5801 7.1702 28.4401 7.0302C28.3001 6.8902 28.2301 6.72019 28.2301 6.5202V2.8902ZM18.7901 37.7402H4.27008C3.98008 37.7402 3.70008 37.6802 3.44008 37.5702C3.17008 37.4602 2.94008 37.3002 2.73008 37.1002C2.53008 36.9002 2.37008 36.6602 2.26008 36.3902C2.15008 36.1202 2.09008 35.8502 2.09008 35.5602V11.6002H35.4801V18.1302C35.4801 18.3302 35.5501 18.5002 35.6901 18.6402C35.8301 18.7802 36.0001 18.8502 36.2001 18.8502C36.4001 18.8502 36.5701 18.7802 36.7101 18.6402C36.8501 18.5002 36.9201 18.3302 36.9201 18.1302V7.9702C36.9201 7.4902 36.8301 7.0302 36.6401 6.5802C36.4601 6.1402 36.1901 5.7402 35.8501 5.4002C35.5101 5.0602 35.1201 4.8002 34.6701 4.6102C34.2301 4.4302 33.7601 4.3302 33.2801 4.3302H31.1001V2.8802C31.1001 2.5902 31.0401 2.3102 30.9301 2.0502C30.8201 1.7802 30.6601 1.5502 30.4601 1.3402C30.2601 1.1402 30.0201 0.980195 29.7501 0.870195C29.4801 0.760195 29.2101 0.700195 28.9201 0.700195C28.6301 0.700195 28.3501 0.760195 28.0901 0.870195C27.8201 0.980195 27.5901 1.1402 27.3801 1.3402C27.1801 1.5402 27.0201 1.7802 26.9101 2.0502C26.8001 2.3202 26.7401 2.5902 26.7401 2.8802V4.3302H20.9301V2.8802C20.9301 2.5902 20.8701 2.3102 20.7601 2.0502C20.6501 1.7802 20.4901 1.5502 20.2901 1.3402C20.0901 1.1302 19.8501 0.980195 19.5801 0.870195C19.3101 0.760195 19.0401 0.700195 18.7501 0.700195C18.4601 0.700195 18.1801 0.760195 17.9201 0.870195C17.6501 0.980195 17.4201 1.1402 17.2101 1.3402C17.0101 1.5402 16.8501 1.7802 16.7401 2.0502C16.6301 2.3202 16.5701 2.5902 16.5701 2.8802V4.3302H10.7601V2.8802C10.7601 2.5902 10.7001 2.3102 10.5901 2.0502C10.4801 1.7802 10.3201 1.5502 10.1201 1.3402C9.92008 1.1402 9.68008 0.980195 9.41008 0.870195C9.14008 0.760195 8.87008 0.700195 8.58008 0.700195C8.29008 0.700195 8.01008 0.760195 7.75008 0.870195C7.48008 0.980195 7.25008 1.1402 7.04008 1.3402C6.84008 1.5402 6.68008 1.7802 6.57008 2.0502C6.46008 2.3202 6.40008 2.5902 6.40008 2.8802V4.3302H4.22008C3.74008 4.3302 3.28008 4.4202 2.83008 4.6102C2.39008 4.79019 1.99008 5.0602 1.65008 5.4002C1.31008 5.7402 1.05008 6.1302 0.860079 6.5802C0.680079 7.0202 0.580078 7.4902 0.580078 7.9702V35.5602C0.580078 36.0402 0.670079 36.5002 0.860079 36.9502C1.04008 37.3902 1.31008 37.7902 1.65008 38.1302C1.99008 38.4702 2.38008 38.7302 2.83008 38.9202C3.27008 39.1002 3.74008 39.2002 4.22008 39.2002H18.7401C18.9401 39.2002 19.1101 39.1302 19.2501 38.9902C19.3901 38.8502 19.4601 38.6802 19.4601 38.4802C19.4601 38.2802 19.3901 38.1102 19.2501 37.9702C19.1101 37.8302 18.9401 37.7602 18.7401 37.7602L18.7901 37.7402ZM31.8601 42.8202C31.1401 42.8202 30.4401 42.7502 29.7401 42.6102C29.0401 42.4702 28.3601 42.2602 27.7001 41.9902C27.0401 41.7202 26.4101 41.3802 25.8201 40.9802C25.2301 40.5802 24.6801 40.1302 24.1701 39.6302C23.6601 39.1302 23.2101 38.5702 22.8201 37.9802C22.4201 37.3902 22.0901 36.7602 21.8101 36.1002C21.5401 35.4402 21.3301 34.7602 21.1901 34.0602C21.0501 33.3602 20.9801 32.6502 20.9801 31.9402C20.9801 31.2202 21.0501 30.5202 21.1901 29.8202C21.3301 29.1202 21.5401 28.4402 21.8101 27.7802C22.0801 27.1202 22.4201 26.4902 22.8201 25.9002C23.2201 25.3102 23.6701 24.7602 24.1701 24.2502C24.6701 23.7402 25.2301 23.2902 25.8201 22.9002C26.4101 22.5002 27.0401 22.1702 27.7001 21.8902C28.3601 21.6202 29.0401 21.4102 29.7401 21.2702C30.4401 21.1302 31.1501 21.0602 31.8601 21.0602C32.5701 21.0602 33.2801 21.1302 33.9801 21.2702C34.6801 21.4102 35.3601 21.6202 36.0201 21.8902C36.6801 22.1602 37.3101 22.5002 37.9001 22.9002C38.4901 23.3002 39.0401 23.7502 39.5501 24.2502C40.0601 24.7602 40.5101 25.3102 40.9001 25.9002C41.3001 26.4902 41.6301 27.1202 41.9101 27.7802C42.1801 28.4402 42.3901 29.1202 42.5301 29.8202C42.6701 30.5202 42.7401 31.2302 42.7401 31.9402C42.7401 32.6502 42.6701 33.3602 42.5301 34.0602C42.3901 34.7602 42.1801 35.4402 41.9101 36.1002C41.6401 36.7602 41.3001 37.3902 40.9001 37.9802C40.5001 38.5702 40.0501 39.1202 39.5501 39.6302C39.0501 40.1402 38.4901 40.5902 37.9001 40.9802C37.3101 41.3802 36.6801 41.7102 36.0201 41.9902C35.3601 42.2602 34.6801 42.4702 33.9801 42.6102C33.2801 42.7502 32.5701 42.8202 31.8601 42.8202ZM31.8601 19.5902C31.0501 19.5902 30.2501 19.6702 29.4501 19.8302C28.6601 19.9902 27.8801 20.2202 27.1301 20.5302C26.3801 20.8402 25.6701 21.2202 25.0001 21.6702C24.3301 22.1202 23.7001 22.6302 23.1301 23.2002C22.5601 23.7702 22.0501 24.4002 21.6001 25.0702C21.1501 25.7402 20.7701 26.4602 20.4601 27.2002C20.1501 27.9402 19.9201 28.7202 19.7601 29.5202C19.6001 30.3102 19.5201 31.1202 19.5201 31.9302C19.5201 32.7402 19.6001 33.5402 19.7601 34.3402C19.9201 35.1302 20.1501 35.9102 20.4601 36.6602C20.7701 37.4102 21.1501 38.1202 21.6001 38.7902C22.0501 39.4602 22.5601 40.0902 23.1301 40.6602C23.7001 41.2302 24.3301 41.7402 25.0001 42.1902C25.6701 42.6402 26.3901 43.0202 27.1301 43.3302C27.8801 43.6402 28.6501 43.8702 29.4501 44.0302C30.2501 44.1902 31.0501 44.2702 31.8601 44.2702C32.6701 44.2702 33.4701 44.1902 34.2701 44.0302C35.0601 43.8702 35.8401 43.6402 36.5901 43.3302C37.3401 43.0202 38.0501 42.6402 38.7201 42.1902C39.3901 41.7402 40.0201 41.2302 40.5901 40.6602C41.1601 40.0902 41.6701 39.4602 42.1201 38.7902C42.5701 38.1202 42.9501 37.4002 43.2601 36.6602C43.5701 35.9102 43.8001 35.1402 43.9601 34.3402C44.1201 33.5502 44.2001 32.7402 44.2001 31.9302C44.2001 31.1202 44.1201 30.3202 43.9601 29.5202C43.8001 28.7202 43.5701 27.9502 43.2601 27.2102C42.9501 26.4602 42.5701 25.7502 42.1201 25.0802C41.6701 24.4102 41.1601 23.7802 40.5901 23.2102C40.0201 22.6402 39.3901 22.1302 38.7201 21.6802C38.0501 21.2302 37.3401 20.8502 36.5901 20.5402C35.8401 20.2302 35.0701 20.0002 34.2801 19.8402C33.4901 19.6802 32.6801 19.6002 31.8701 19.6002L31.8601 19.5902ZM16.6101 33.3802H13.7101V30.4802H16.6101V33.3802ZM17.3401 29.0202H12.9801C12.7801 29.0202 12.6101 29.0902 12.4701 29.2302C12.3301 29.3702 12.2601 29.5402 12.2601 29.7402V34.1002C12.2601 34.3002 12.3301 34.4702 12.4701 34.6102C12.6101 34.7502 12.7801 34.8202 12.9801 34.8202H17.3401C17.5401 34.8202 17.7101 34.7502 17.8501 34.6102C17.9901 34.4702 18.0601 34.3002 18.0601 34.1002V29.7402C18.0601 29.5402 17.9901 29.3702 17.8501 29.2302C17.7101 29.0902 17.5401 29.0202 17.3401 29.0202ZM9.35008 33.3802H6.45008V30.4802H9.35008V33.3802ZM10.0801 29.0202H5.72008C5.52008 29.0202 5.35008 29.0902 5.21008 29.2302C5.07008 29.3702 5.00008 29.5402 5.00008 29.7402V34.1002C5.00008 34.3002 5.07008 34.4702 5.21008 34.6102C5.35008 34.7502 5.52008 34.8202 5.72008 34.8202H10.0801C10.2801 34.8202 10.4501 34.7502 10.5901 34.6102C10.7301 34.4702 10.8001 34.3002 10.8001 34.1002V29.7402C10.8001 29.5402 10.7301 29.3702 10.5901 29.2302C10.4501 29.0902 10.2801 29.0202 10.0801 29.0202ZM16.6101 26.1202H13.7101V23.2202H16.6101V26.1202ZM18.0601 22.4902C18.0601 22.2902 17.9901 22.1202 17.8501 21.9802C17.7101 21.8402 17.5401 21.7702 17.3401 21.7702H12.9801C12.7801 21.7702 12.6101 21.8402 12.4701 21.9802C12.3301 22.1202 12.2601 22.2902 12.2601 22.4902V26.8502C12.2601 27.0502 12.3301 27.2202 12.4701 27.3602C12.6101 27.5002 12.7801 27.5702 12.9801 27.5702H17.3401C17.5401 27.5702 17.7101 27.5002 17.8501 27.3602C17.9901 27.2202 18.0601 27.0502 18.0601 26.8502V22.4902ZM9.35008 26.1202H6.45008V23.2202H9.35008V26.1202ZM10.8001 22.4902C10.8001 22.2902 10.7301 22.1202 10.5901 21.9802C10.4501 21.8402 10.2801 21.7702 10.0801 21.7702H5.72008C5.52008 21.7702 5.35008 21.8402 5.21008 21.9802C5.07008 22.1202 5.00008 22.2902 5.00008 22.4902V26.8502C5.00008 27.0502 5.07008 27.2202 5.21008 27.3602C5.35008 27.5002 5.52008 27.5702 5.72008 27.5702H10.0801C10.2801 27.5702 10.4501 27.5002 10.5901 27.3602C10.7301 27.2202 10.8001 27.0502 10.8001 26.8502V22.4902ZM23.8701 18.8602H20.9701V15.9602H23.8701V18.8602ZM20.2401 14.5002C20.0401 14.5002 19.8701 14.5702 19.7301 14.7102C19.5901 14.8502 19.5201 15.0202 19.5201 15.2202V19.5802C19.5201 19.7802 19.5901 19.9502 19.7301 20.0902C19.8701 20.2302 20.0401 20.3002 20.2401 20.3002H24.6001C24.8001 20.3002 24.9701 20.2302 25.1101 20.0902C25.2501 19.9502 25.3201 19.7802 25.3201 19.5802V15.2202C25.3201 15.0202 25.2501 14.8502 25.1101 14.7102C24.9701 14.5702 24.8001 14.5002 24.6001 14.5002H20.2401ZM16.6101 18.8602H13.7101V15.9602H16.6101V18.8602ZM18.0601 15.2302C18.0601 15.0302 17.9901 14.8602 17.8501 14.7202C17.7101 14.5802 17.5401 14.5102 17.3401 14.5102H12.9801C12.7801 14.5102 12.6101 14.5802 12.4701 14.7202C12.3301 14.8602 12.2601 15.0302 12.2601 15.2302V19.5902C12.2601 19.7902 12.3301 19.9602 12.4701 20.1002C12.6101 20.2402 12.7801 20.3102 12.9801 20.3102H17.3401C17.5401 20.3102 17.7101 20.2402 17.8501 20.1002C17.9901 19.9602 18.0601 19.7902 18.0601 19.5902V15.2302Z" fill="#E8433C"/>
</svg>
