<svg width="37" height="36" viewBox="0 0 37 36" fill="none" xmlns="http://www.w3.org/2000/svg">
<path d="M36.0195 30.5268C36.0195 33.5427 33.5734 36 30.5464 36H5.49269C2.47687 36 0.0195312 33.5538 0.0195312 30.5268V5.47316C0.0195312 2.45733 2.4657 0 5.49269 0H30.5464C33.5622 0 36.0195 2.44616 36.0195 5.47316V30.5268Z" fill="#FDFDFD"/>
<path d="M15.8495 15.82V15.04C15.5795 15 15.3095 14.98 15.0395 14.98C11.7195 14.98 9.01953 17.68 9.01953 21C9.01953 23.04 10.0395 24.84 11.5895 25.93C10.5895 24.85 9.96953 23.41 9.96953 21.83C9.96953 18.56 12.5895 15.89 15.8495 15.81V15.82Z" fill="#69C4D0"/>
<path d="M15.99 24.59C17.47 24.59 18.68 23.41 18.73 21.94V8.83002H21.13C21.08 8.56002 21.05 8.28 21.05 8H17.78V21.11C17.72 22.58 16.51 23.76 15.03 23.76C14.57 23.76 14.14 23.64 13.75 23.44C14.25 24.13 15.06 24.59 15.98 24.59H15.99Z" fill="#69C4D0"/>
<path d="M25.6089 13.28V12.55C24.6989 12.55 23.8489 12.2801 23.1289 11.8101C23.7689 12.5401 24.6289 13.07 25.6089 13.28Z" fill="#69C4D0"/>
<path d="M23.1289 11.8198C22.4289 11.0198 22.0089 9.97984 22.0089 8.83984H21.1289C21.3589 10.0898 22.0989 11.1598 23.1289 11.8198Z" fill="#E83658"/>
<path d="M15.0391 18.2598C13.5191 18.2598 12.2891 19.4898 12.2891 21.0098C12.2891 22.0698 12.889 22.9798 13.759 23.4398C13.429 22.9898 13.2391 22.4298 13.2391 21.8398C13.2391 20.3198 14.4691 19.0898 15.9891 19.0898C16.2691 19.0898 16.5391 19.1398 16.7991 19.2198V15.8798C16.5291 15.8398 16.2591 15.8198 15.9891 15.8198C15.9391 15.8198 15.8991 15.8198 15.8491 15.8198V18.3898C15.5891 18.3098 15.3191 18.2598 15.0391 18.2598Z" fill="#E83658"/>
<path d="M25.6098 13.2798V15.8198C23.9098 15.8198 22.3398 15.2798 21.0598 14.3598V21.0098C21.0598 24.3298 18.3599 27.0298 15.0399 27.0298C13.7599 27.0298 12.5698 26.6298 11.5898 25.9398C12.6898 27.1198 14.2599 27.8598 15.9899 27.8598C19.3099 27.8598 22.0098 25.1598 22.0098 21.8398V15.1898C23.2898 16.1098 24.8598 16.6498 26.5598 16.6498V13.3798C26.2298 13.3798 25.9098 13.3398 25.6098 13.2798Z" fill="#E83658"/>
<path d="M21.059 21.0101V14.3601C22.339 15.2801 23.909 15.8201 25.609 15.8201V13.2801C24.629 13.0701 23.769 12.5401 23.129 11.8101C22.099 11.1401 21.369 10.0701 21.129 8.83008H18.729V21.9401C18.669 23.4101 17.459 24.5901 15.979 24.5901C15.059 24.5901 14.249 24.1401 13.749 23.4401C12.869 22.9801 12.279 22.0601 12.279 21.0101C12.279 19.4901 13.509 18.2601 15.029 18.2601C15.309 18.2601 15.579 18.3101 15.839 18.3901V15.8201C12.589 15.9001 9.95898 18.5701 9.95898 21.8401C9.95898 23.4201 10.569 24.8601 11.579 25.9401C12.559 26.6301 13.749 27.0301 15.029 27.0301C18.349 27.0301 21.049 24.3301 21.049 21.0101H21.059Z" fill="black"/>
</svg>
