<svg width="29" height="30" viewBox="0 0 29 30" fill="none" xmlns="http://www.w3.org/2000/svg">
<path d="M11.789 17.711L14.7364 14.7636M11.789 17.711L16.947 28.0271C17.0117 28.1682 17.1155 28.2878 17.2461 28.3716C17.3767 28.4554 17.5287 28.5 17.6839 28.5C17.8391 28.5 17.991 28.4554 18.1217 28.3716C18.2523 28.2878 18.3561 28.1682 18.4208 28.0271L20.9585 20.9974M11.789 17.711L1.47288 12.553C1.33178 12.4883 1.21221 12.3845 1.12839 12.2539C1.04456 12.1233 1 11.9713 1 11.8161C1 11.6609 1.04456 11.509 1.12839 11.3783C1.21221 11.2477 1.33178 11.1439 1.47288 11.0792L8.50551 8.54M17.6839 11.8161L28 1.5M28 1.5L12.8471 6.97196M28 1.5L22.5251 16.6632M1.47288 1.5L28 28.0271" stroke="white" stroke-width="2" stroke-linecap="round" stroke-linejoin="round"/>
</svg>
