<svg width="37" height="37" viewBox="0 0 37 37" fill="none" xmlns="http://www.w3.org/2000/svg">
<path d="M29.2182 28.5185C29.2182 29.204 28.7686 29.7856 28.1529 29.9863V30.2979C28.1529 30.6164 27.8901 30.8795 27.5719 30.8795C27.2537 30.8795 26.9908 30.6164 26.9908 30.2979V30.0071C26.645 29.9171 26.3406 29.7094 26.1262 29.4186C25.9394 29.1555 25.9948 28.7955 26.2576 28.6085C26.5205 28.4216 26.8802 28.477 27.0669 28.7401C27.1361 28.837 27.2537 28.8993 27.3782 28.8993H27.6826C27.8901 28.8993 28.063 28.7262 28.063 28.5185C28.063 28.3108 27.8901 28.1377 27.6826 28.1377H27.4681C26.6173 28.1377 25.9256 27.4454 25.9256 26.5938C25.9256 25.9083 26.3752 25.3267 26.9908 25.1259V24.8144C26.9908 24.4959 27.2537 24.2328 27.5719 24.2328C27.8901 24.2328 28.1529 24.4959 28.1529 24.8144V25.1052C28.4988 25.1952 28.8031 25.4029 29.0176 25.6937C29.2043 25.9568 29.149 26.3168 28.8861 26.5037C28.6233 26.6907 28.2636 26.6353 28.0768 26.3722C28.0077 26.2753 27.8901 26.213 27.7656 26.213H27.4612C27.2537 26.213 27.0808 26.386 27.0808 26.5938C27.0808 26.8015 27.2537 26.9746 27.4612 26.9746H27.6756C28.5265 26.9746 29.2182 27.6669 29.2182 28.5185ZM27.5719 31.5926C25.3515 31.5926 23.5392 29.7856 23.5392 27.5561C23.5392 25.3267 25.3515 23.5196 27.5719 23.5196C29.7923 23.5196 31.6046 25.3336 31.6046 27.5561C31.6046 29.7786 29.7992 31.5926 27.5719 31.5926ZM27.5719 22.3565C24.7082 22.3565 22.3771 24.6897 22.3771 27.5561C22.3771 30.4225 24.7082 32.7558 27.5719 32.7558C30.4356 32.7558 32.7667 30.4225 32.7667 27.5561C32.7667 24.6897 30.4356 22.3565 27.5719 22.3565ZM35.8448 28.4493H34.9456C34.6689 28.4493 34.4337 28.6432 34.3784 28.9132C34.1985 29.8063 33.8527 30.6372 33.3477 31.3988C33.1955 31.6272 33.2232 31.9388 33.4169 32.1327L34.0533 32.7697L32.7874 34.0367L32.1511 33.3997C31.9574 33.2058 31.6461 33.1712 31.4178 33.3305C30.6639 33.8359 29.8269 34.1821 28.9346 34.3621C28.6648 34.4175 28.4642 34.6529 28.4642 34.9298V35.8299H26.6726V34.9298C26.6726 34.6529 26.479 34.4175 26.2023 34.3621C25.31 34.1821 24.4799 33.8359 23.719 33.3305C23.4907 33.1781 23.1795 33.2058 22.9858 33.3997L22.3494 34.0367L21.0836 32.7697L21.7199 32.1327C21.9136 31.9388 21.9482 31.6272 21.7891 31.3988C21.2842 30.6441 20.9383 29.8063 20.7585 28.9132C20.7031 28.6432 20.4679 28.4493 20.1913 28.4493H19.292V26.6561H20.1913C20.4679 26.6561 20.7031 26.4622 20.7585 26.1853C20.9383 25.2921 21.2842 24.4613 21.7891 23.6997C21.9413 23.4712 21.9136 23.1596 21.7199 22.9658L21.0836 22.3288L22.3494 21.0618L22.9858 21.6987C23.1795 21.8926 23.4907 21.9272 23.719 21.768C24.473 21.2625 25.31 20.9164 26.2023 20.7363C26.4721 20.681 26.6726 20.4455 26.6726 20.1686V19.2685H28.4642V20.1686C28.4642 20.4455 28.6579 20.681 28.9346 20.7363C29.8269 20.9164 30.6569 21.2625 31.4178 21.768C31.6461 21.9203 31.9574 21.8926 32.1511 21.6987L32.7874 21.0618L34.0533 22.3288L33.4169 22.9658C33.2232 23.1596 33.1886 23.4712 33.3477 23.6997C33.8527 24.4543 34.1985 25.2921 34.3784 26.1853C34.4337 26.4553 34.6689 26.6561 34.9456 26.6561H35.8448V28.4493ZM18.1438 26.0745V26.9746H2.87063C2.4141 26.9746 1.99215 26.7945 1.66704 26.4691C1.34193 26.1437 1.16209 25.7144 1.16209 25.2644V16.3606C1.83997 17.0045 2.75304 17.4061 3.75603 17.4061H12.4786V19.2893C12.4786 20.0024 13.0596 20.5771 13.7652 20.5771H17.6042C18.3167 20.5771 18.8908 19.9955 18.8908 19.2893V17.4061H27.6134C28.6164 17.4061 29.5364 17.0045 30.2073 16.3606V19.8917C30.0136 19.8224 29.82 19.767 29.6263 19.7116V18.6869C29.6263 18.3685 29.3634 18.1054 29.0452 18.1054H26.0916C25.7734 18.1054 25.5106 18.3685 25.5106 18.6869V19.7116C24.7981 19.8986 24.1202 20.1824 23.4838 20.5494L22.7644 19.8293C22.5362 19.6009 22.1696 19.6009 21.9413 19.8293L19.8523 21.9203C19.7416 22.0311 19.6794 22.1765 19.6794 22.3288C19.6794 22.4811 19.7416 22.6334 19.8523 22.7373L20.5717 23.4573C20.1982 24.0943 19.9215 24.7728 19.7347 25.486H18.711C18.3928 25.486 18.1299 25.7491 18.1299 26.0676L18.1438 26.0745ZM13.6476 17.4061H17.7426V19.2893C17.7426 19.3585 17.6803 19.4139 17.6181 19.4139H13.779C13.7099 19.4139 13.6545 19.3585 13.6545 19.2893V17.4061H13.6476ZM1.16209 6.84057C1.16209 6.41823 1.50103 6.07897 1.92298 6.07897H29.4464C29.8684 6.07897 30.2073 6.41823 30.2073 6.84057V13.6534C30.2073 15.0866 29.0452 16.2498 27.6134 16.2498H3.75603C2.32417 16.2498 1.16209 15.0866 1.16209 13.6534V6.84749V6.84057ZM19.4995 4.91579H11.8768V3.37874H19.4995V4.91579ZM9.6633 2.5756C9.6633 1.79323 10.2997 1.15625 11.0813 1.15625H20.3088C21.0905 1.15625 21.7269 1.79323 21.7269 2.5756V4.91579H20.6685V2.79716C20.6685 2.47867 20.4057 2.21557 20.0875 2.21557H11.3096C10.9914 2.21557 10.7285 2.47867 10.7285 2.79716V4.91579H9.67022V2.5756H9.6633ZM36.4259 25.4929H35.4021C35.2154 24.7798 34.9318 24.1012 34.5652 23.4643L35.2845 22.7442C35.3952 22.6334 35.4575 22.488 35.4575 22.3357C35.4575 22.1834 35.3952 22.0311 35.2845 21.9272L33.1955 19.8363C32.9673 19.6078 32.6007 19.6078 32.3724 19.8363L31.653 20.5563C31.5631 20.5009 31.4663 20.4525 31.3763 20.3971V6.84057C31.3763 5.78125 30.5117 4.91579 29.4534 4.91579H22.882V2.5756C22.882 1.15625 21.7269 0 20.3088 0H11.0813C9.6633 0 8.50813 1.15625 8.50813 2.5756V4.91579H1.92298C0.864648 4.91579 0 5.78125 0 6.84057V25.2644C0 26.026 0.297439 26.7461 0.843896 27.293C1.38344 27.8331 2.10974 28.1377 2.87063 28.1377H18.1368V29.0378C18.1368 29.3563 18.3997 29.6194 18.7179 29.6194H19.7416C19.9284 30.3325 20.212 31.011 20.5786 31.648L19.8592 32.3681C19.631 32.5966 19.631 32.9635 19.8592 33.192L21.9482 35.2829C22.0589 35.3937 22.2041 35.456 22.3563 35.456C22.5085 35.456 22.6607 35.3937 22.7644 35.2829L23.4838 34.5629C24.1202 34.9368 24.7981 35.2137 25.5106 35.4006V36.4253C25.5106 36.7438 25.7734 37.0069 26.0916 37.0069H29.0452C29.3634 37.0069 29.6263 36.7438 29.6263 36.4253V35.4006C30.3388 35.2137 31.0166 34.9298 31.653 34.5629L32.3724 35.2829C32.6007 35.5114 32.9673 35.5114 33.1955 35.2829L35.2845 33.192C35.3952 33.0812 35.4575 32.9358 35.4575 32.7835C35.4575 32.6312 35.3952 32.4789 35.2845 32.375L34.5652 31.6549C34.9387 31.018 35.2154 30.3394 35.4021 29.6263H36.4259C36.7441 29.6263 37.0069 29.3632 37.0069 29.0447V26.0883C37.0069 25.7698 36.7441 25.5067 36.4259 25.5067V25.4929ZM7.94784 9.92852H23.4216V12.3933H7.94784V9.92852ZM7.3668 13.5565H24.0026C24.3208 13.5565 24.5837 13.2934 24.5837 12.9749V9.34693C24.5837 9.02844 24.3208 8.76534 24.0026 8.76534H7.3668C7.04861 8.76534 6.78575 9.02844 6.78575 9.34693V12.9749C6.78575 13.2934 7.04861 13.5565 7.3668 13.5565Z" fill="#FF3E33"/>
</svg>
