<svg width="41" height="42" viewBox="0 0 41 42" fill="none" xmlns="http://www.w3.org/2000/svg">
<path d="M20.2492 38.8558C19.6644 38.8558 19.0897 38.8256 18.5048 38.7752C17.92 38.7248 17.3553 38.634 16.7806 38.5231C16.2058 38.4122 15.6512 38.271 15.0866 38.0996C14.532 37.9282 13.9875 37.7366 13.443 37.5148C12.9086 37.2929 12.3842 37.0408 11.87 36.7686C11.3557 36.4963 10.8616 36.1938 10.3776 35.8712C9.89364 35.5485 9.4298 35.2057 8.97605 34.8326C8.5223 34.4595 8.0988 34.0763 7.68539 33.6629C7.27197 33.2495 6.8888 32.826 6.51572 32.3723C6.14263 31.9185 5.7998 31.4547 5.47713 30.9707C5.15446 30.4867 4.85196 29.9926 4.57971 29.4783C4.30746 28.9641 4.05538 28.4397 3.83355 27.9053C3.61171 27.3709 3.42013 26.8163 3.24871 26.2617C3.07729 25.7072 2.93613 25.1425 2.82521 24.5677C2.71429 23.993 2.62354 23.4182 2.57313 22.8435C2.51263 22.2687 2.49246 21.6839 2.49246 21.0991C2.50254 11.298 10.4482 3.34228 20.2492 3.34228C30.0503 3.34228 37.9455 11.2275 38.006 20.9881C38.0665 30.7791 30.0402 38.8558 20.2492 38.8558ZM20.1887 0.851696C8.8853 0.881946 -0.149379 10.0679 0.00187168 21.3713C0.0321217 23.6602 0.435456 25.8887 1.22196 28.0364C2.00846 30.1842 3.12771 32.1504 4.57971 33.9251C4.81163 34.2074 4.94271 34.5402 4.97296 34.9032C5.00321 35.2662 4.93263 35.609 4.75113 35.9317L3.00671 39.0575C2.52271 39.9247 3.30921 40.9532 4.27721 40.7011L10.1861 39.1987C10.6096 39.0878 11.023 39.1281 11.4162 39.3298C14.0581 40.6104 16.8512 41.2859 19.7854 41.3464C31.1393 41.5985 40.4664 32.5235 40.5067 21.1696C40.5369 9.92671 31.4216 0.811362 20.1887 0.851696Z" fill="#E8433C"/>
<path d="M17.0837 12.468V12.4882L18.1526 14.5855C18.3845 15.0494 18.4551 15.5435 18.3643 16.0577C18.2736 16.572 18.0316 17.0056 17.6484 17.3686C17.2652 17.7215 17.0333 18.1551 16.9325 18.6693C16.8417 19.1836 16.9123 19.6676 17.1342 20.1314C17.7694 21.412 18.8685 23.1665 20.5524 24.437C20.9356 24.7294 21.3692 24.8907 21.8532 24.9109C22.3372 24.9412 22.7808 24.8202 23.1943 24.5681L23.8799 24.1546C24.5353 23.7513 25.221 23.6908 25.9369 23.9631L28.6493 24.9916C28.9418 25.1025 29.2039 25.2638 29.4258 25.4756C29.6577 25.6873 29.8291 25.9394 29.9602 26.2217C30.0913 26.5041 30.1518 26.8066 30.1619 27.1192C30.1619 27.4317 30.1215 27.7342 30.0106 28.0267C29.9804 28.1073 29.94 28.188 29.8997 28.2687L29.1535 29.7207C29.0325 29.9627 28.8712 30.1643 28.6796 30.3559C28.488 30.5374 28.2662 30.6887 28.0242 30.7895C27.7822 30.9004 27.5301 30.9609 27.2578 30.9811C26.9856 31.0012 26.7335 30.9811 26.4713 30.9105C22.2162 29.8114 12.0622 25.9797 11.2455 14.404C11.2152 13.9301 11.3161 13.4965 11.5379 13.0831C11.7698 12.6697 12.0925 12.3571 12.516 12.1454L13.8974 11.4395C14.1797 11.2984 14.4722 11.2177 14.7847 11.1875C15.0973 11.1572 15.3998 11.1875 15.6922 11.2883C15.9847 11.379 16.2569 11.5303 16.4989 11.732C16.7409 11.9336 16.9224 12.1756 17.0737 12.4479L17.0837 12.468Z" fill="#E8433C"/>
</svg>
