<svg width="46" height="45" viewBox="0 0 46 45" fill="none" xmlns="http://www.w3.org/2000/svg">
<mask id="mask0_55_10344" style="mask-type:luminance" maskUnits="userSpaceOnUse" x="0" y="0" width="46" height="45">
<path d="M45.8496 0.530273H0.849609V44.7803H45.8496V0.530273Z" fill="white"/>
</mask>
<g mask="url(#mask0_55_10344)">
<path d="M22.9192 8.45053C18.9292 8.72053 15.7592 12.0505 15.7592 16.1105V21.0105C15.7592 25.2405 19.1992 28.6905 23.4392 28.6905C27.6792 28.6905 31.1192 25.2505 31.1192 21.0105V16.6205C26.7292 16.3605 23.1992 12.8305 22.9292 8.44053M23.4392 29.7405C18.6192 29.7405 14.6992 25.8205 14.6992 21.0005V16.1005C14.6992 11.4605 18.3392 7.65053 22.9092 7.38053V5.04053H23.9692V7.89053C23.9692 12.1205 27.4092 15.5705 31.6492 15.5705C31.9392 15.5705 32.1792 15.8105 32.1792 16.1005V21.0005C32.1792 25.8205 28.2592 29.7405 23.4392 29.7405Z" fill="#E8433C"/>
<path d="M31.6489 13.9204C28.3289 13.9204 25.6289 11.2204 25.6289 7.90039H26.6889C26.6889 10.6304 28.9089 12.8604 31.6489 12.8604V13.9204Z" fill="#E8433C"/>
<path d="M13.519 33.8306H12.459V13.5806C12.459 7.53059 17.379 2.60059 23.439 2.60059C29.499 2.60059 34.419 7.52059 34.419 13.5806V24.3306H33.359V13.5806C33.359 8.11059 28.909 3.66059 23.439 3.66059C17.969 3.66059 13.519 8.11059 13.519 13.5806V33.8306Z" fill="#E8433C"/>
<path d="M34.4196 33.8304H33.3496V26.6104H34.4196V33.8304Z" fill="#E8433C"/>
<path d="M36.4994 13.7405H35.4394V13.5805C35.4394 6.97051 30.0594 1.59051 23.4494 1.59051C16.8394 1.59051 11.4594 6.97051 11.4594 13.5805V13.7405H10.3994V13.5805C10.3994 6.38051 16.2594 0.520508 23.4594 0.520508C30.6594 0.520508 36.5194 6.38051 36.5194 13.5805V13.7405" fill="#E8433C"/>
<path d="M11.8595 14.1103C10.5995 14.1103 9.57953 15.1303 9.57953 16.3903C9.57953 17.6503 10.5995 18.6703 11.8595 18.6703H12.4595V14.1103H11.8595ZM12.9895 19.7303H11.8595C10.0195 19.7303 8.51953 18.2303 8.51953 16.3903C8.51953 14.5503 10.0195 13.0503 11.8595 13.0503H12.9895C13.2795 13.0503 13.5195 13.2903 13.5195 13.5803V19.2003C13.5195 19.4903 13.2795 19.7303 12.9895 19.7303Z" fill="#E8433C"/>
<path d="M34.4194 18.6703H35.0194C36.2794 18.6703 37.2994 17.6503 37.2994 16.3903C37.2994 15.1303 36.2794 14.1103 35.0194 14.1103H34.4194V18.6703ZM35.0194 19.7303H33.8894C33.5994 19.7303 33.3594 19.4903 33.3594 19.2003V13.5803C33.3594 13.2903 33.5994 13.0503 33.8894 13.0503H35.0194C36.8594 13.0503 38.3594 14.5503 38.3594 16.3903C38.3594 18.2303 36.8594 19.7303 35.0194 19.7303Z" fill="#E8433C"/>
<path d="M21.4487 17.9206C21.3487 17.9206 21.2387 17.8906 21.1487 17.8306C20.3387 17.2706 19.3387 17.2706 18.5287 17.8306C18.2887 18.0006 17.9587 17.9306 17.7887 17.6906C17.6187 17.4506 17.6787 17.1206 17.9287 16.9506C19.0887 16.1506 20.5887 16.1506 21.7587 16.9506C21.9987 17.1206 22.0587 17.4506 21.8987 17.6906C21.7987 17.8406 21.6287 17.9206 21.4587 17.9206" fill="#E8433C"/>
<path d="M28.6489 17.9206C28.5489 17.9206 28.4389 17.8906 28.3489 17.8306C27.5389 17.2706 26.5389 17.2706 25.7289 17.8306C25.4889 18.0006 25.1589 17.9306 24.9889 17.6906C24.8189 17.4506 24.8789 17.1206 25.1289 16.9506C26.2889 16.1506 27.7889 16.1506 28.9589 16.9506C29.1989 17.1206 29.2589 17.4506 29.0989 17.6906C28.9989 17.8406 28.8289 17.9206 28.6589 17.9206" fill="#E8433C"/>
<path d="M19.2289 31.6804H18.1689V27.7104H19.2289V31.6804Z" fill="#E8433C"/>
<path d="M28.7094 31.6804H27.6494V27.7104H28.7094V31.6804Z" fill="#E8433C"/>
<path d="M16.2791 35.1104L19.0591 40.1004L22.6891 36.0804L18.7291 32.4304L16.2791 35.1104ZM1.92914 44.4704H0.869141C0.869141 40.7904 3.35914 37.5904 6.92914 36.6904L15.3491 34.5604L18.3091 31.3204C18.4091 31.2204 18.5391 31.1504 18.6791 31.1504C18.8191 31.1504 18.9591 31.1904 19.0591 31.2904L23.7991 35.6604C24.0091 35.8604 24.0291 36.1904 23.8291 36.4104L19.3491 41.3704C19.2391 41.5004 19.0691 41.5604 18.8991 41.5404C18.7291 41.5204 18.5791 41.4204 18.4991 41.2704L15.3691 35.6604L7.18914 37.7304C4.08914 38.5104 1.92914 41.2904 1.92914 44.4804V44.4704Z" fill="#E8433C"/>
<path d="M5.43906 41.2704L4.65906 40.5504C5.41906 39.7304 6.39906 39.1504 7.47906 38.8704L14.3691 37.1304L14.6291 38.1604L7.73906 39.9004C6.84906 40.1204 6.05906 40.6004 5.43906 41.2704ZM4.31906 43.3704L3.28906 43.1204C3.38906 42.6804 3.54906 42.2604 3.74906 41.8604L4.69906 42.3404C4.52906 42.6704 4.40906 43.0104 4.31906 43.3704Z" fill="#E8433C"/>
<path d="M24.1895 36.0804L27.8195 40.1004L30.5995 35.1104L28.1495 32.4304L24.1895 36.0804ZM46.0095 44.4704H44.9495C44.9495 41.2804 42.7895 38.5004 39.6895 37.7204L31.5095 35.6504L28.3795 41.2604C28.2995 41.4104 28.1495 41.5104 27.9795 41.5304C27.8095 41.5504 27.6395 41.4904 27.5295 41.3604L23.0495 36.4004C22.8495 36.1804 22.8695 35.8504 23.0795 35.6504L27.8195 31.2804C27.9195 31.1804 28.0595 31.1304 28.1995 31.1404C28.3395 31.1404 28.4695 31.2104 28.5695 31.3104L31.5295 34.5504L39.9495 36.6804C43.5195 37.5804 46.0095 40.7804 46.0095 44.4604V44.4704Z" fill="#E8433C"/>
<path d="M23.9692 44.4703H22.9092V36.0503H23.9692V44.4703Z" fill="#E8433C"/>
<path d="M32.6089 25.1205H25.1689V24.0605H32.6089C34.1689 24.0605 35.4389 22.7905 35.4389 21.2305V19.0405H36.4989V21.2305C36.4989 23.3705 34.7589 25.1205 32.6089 25.1205Z" fill="#E8433C"/>
<path d="M22.2387 25.2806H24.6387V23.8906H22.2387V25.2806ZM25.1687 26.3406H21.7087C21.4187 26.3406 21.1787 26.1006 21.1787 25.8106V23.3606C21.1787 23.0706 21.4187 22.8306 21.7087 22.8306H25.1687C25.4587 22.8306 25.6987 23.0706 25.6987 23.3606V25.8106C25.6987 26.1006 25.4587 26.3406 25.1687 26.3406Z" fill="#E8433C"/>
</g>
</svg>
