<svg width="37" height="37" viewBox="0 0 37 37" fill="none" xmlns="http://www.w3.org/2000/svg">
<path d="M15.2631 7.0909C15.2631 7.0909 15.2745 7.0909 15.2858 7.0909C15.5818 7.23887 15.9232 7.35268 16.2874 7.45512C16.9362 7.62585 17.676 7.7169 18.45 7.7169C19.224 7.7169 19.9638 7.62585 20.6126 7.45512C20.9768 7.36407 21.3182 7.23887 21.6142 7.0909C21.6142 7.0909 21.6255 7.0909 21.6369 7.0909C21.9784 6.92017 22.2515 6.73806 22.4337 6.54457C21.9442 6.38523 21.4434 6.24864 20.9426 6.14621C20.1345 5.98686 19.3036 5.89581 18.45 5.89581C17.5964 5.89581 16.7655 5.97548 15.9574 6.14621C15.4452 6.24864 14.9444 6.38523 14.4663 6.54457C14.6598 6.73806 14.9216 6.92017 15.2631 7.0909Z" fill="#FF3E33"/>
<path d="M13.5786 11.3591C13.7834 10.5168 14.0338 9.73149 14.3184 9.00305C14.4777 8.60469 14.6371 8.22909 14.8192 7.88763C14.2615 7.60309 13.829 7.26163 13.5672 6.88603C11.3477 7.83072 9.44695 9.39004 8.09251 11.3591H13.5786Z" fill="#FF3E33"/>
<path d="M22.4678 12.4176H14.4208C14.068 14.1021 13.8745 15.9688 13.8403 17.9151H23.0483C23.0141 15.9688 22.8206 14.0907 22.4678 12.4176Z" fill="#FF3E33"/>
<path d="M21.5914 9.39004C21.432 8.98029 21.2613 8.61607 21.0906 8.27462C20.3052 8.51363 19.3947 8.63883 18.45 8.63883C17.5053 8.63883 16.6061 8.51363 15.8094 8.27462C15.6387 8.61607 15.468 8.99167 15.3086 9.39004C15.0696 9.99328 14.8533 10.6534 14.6712 11.3591H22.2174C22.0353 10.6534 21.819 10.0047 21.58 9.39004H21.5914Z" fill="#FF3E33"/>
<path d="M22.5702 9.00305C22.8548 9.72011 23.1052 10.5168 23.3101 11.3591H28.7961C27.4417 9.39004 25.5409 7.83072 23.3214 6.88603C23.0597 7.26163 22.6385 7.60309 22.0694 7.88763C22.2402 8.22909 22.4109 8.60469 22.5702 9.00305Z" fill="#FF3E33"/>
<path d="M15.8094 28.6254C16.5948 28.3864 17.5053 28.2612 18.45 28.2612C19.3947 28.2612 20.2939 28.3864 21.0906 28.6254C21.2613 28.2839 21.432 27.9083 21.5914 27.51C21.8418 26.8726 22.0581 26.1783 22.2515 25.4385H14.6485C14.842 26.1783 15.0582 26.8726 15.3086 27.51C15.468 27.9197 15.6387 28.2839 15.8094 28.6254Z" fill="#FF3E33"/>
<path d="M23.0483 18.9736H13.8403C13.8745 20.8857 14.068 22.7182 14.3981 24.3686H22.4792C22.8206 22.7182 23.0141 20.8857 23.0369 18.9736H23.0483Z" fill="#FF3E33"/>
<path d="M13.3395 12.4176H7.43236C6.53319 14.068 5.97548 15.9346 5.89581 17.9151H12.7705C12.8046 15.9801 12.9981 14.1135 13.3282 12.4176H13.3395Z" fill="#FF3E33"/>
<path d="M23.5718 24.38H29.5132C30.3896 22.7637 30.9131 20.9312 30.9928 18.985H24.1182C24.084 20.8857 23.9019 22.7182 23.5718 24.38Z" fill="#FF3E33"/>
<path d="M22.5702 27.8856C22.4109 28.2839 22.2515 28.6595 22.0694 29.001C22.6271 29.2855 23.0597 29.627 23.3214 30.0026C25.5864 29.0465 27.51 27.4417 28.8644 25.4271H23.3328C23.1166 26.3035 22.8662 27.1344 22.5702 27.8856Z" fill="#FF3E33"/>
<path d="M18.45 0C8.26323 0 0 8.26323 0 18.45C0 28.6368 8.26323 36.9 18.45 36.9C28.6368 36.9 36.9 28.6368 36.9 18.45C36.9 8.26323 28.6368 0 18.45 0Z" fill="#FF3E33"/>
<path d="M21.6255 29.8091C21.6255 29.8091 21.6142 29.8091 21.6028 29.8091C21.3069 29.6611 20.9654 29.5473 20.6012 29.4449C19.9524 29.2742 19.2126 29.1831 18.4386 29.1831C17.6647 29.1831 16.9248 29.2742 16.2761 29.4449C15.9118 29.5359 15.5704 29.6611 15.2745 29.8091C15.2745 29.8091 15.2631 29.8091 15.2517 29.8091C14.9102 29.9798 14.6371 30.1619 14.455 30.3554C14.9444 30.5148 15.4452 30.6514 15.946 30.7538C16.7541 30.9131 17.585 31.0042 18.4386 31.0042C19.2923 31.0042 20.1231 30.9245 20.9312 30.7538C21.4434 30.6514 21.9442 30.5148 22.4223 30.3554C22.2288 30.1619 21.967 29.9798 21.6255 29.8091Z" fill="#FF3E33"/>
<path d="M14.3184 27.8856C14.0225 27.1344 13.7721 26.3149 13.5558 25.4271H8.02421C9.37866 27.4417 11.3022 29.0465 13.5672 30.0026C13.829 29.627 14.2501 29.2855 14.8192 29.001C14.6485 28.6595 14.4777 28.2839 14.3184 27.8856Z" fill="#FF3E33"/>
<path d="M12.7818 18.9736H5.90719C5.98686 20.9199 6.51043 22.7523 7.38683 24.3686H13.3282C12.9981 22.6954 12.816 20.8743 12.7818 18.9736Z" fill="#FF3E33"/>
<path d="M25.2351 24.4286C25.3131 24.5096 25.3576 24.6079 25.3576 24.7236C25.3576 24.8392 25.3186 24.9376 25.2407 25.0243C25.1627 25.1053 25.068 25.1458 24.951 25.1458C24.8396 25.1458 24.7449 25.1053 24.6669 25.0185L23.4524 23.7577C23.3744 23.6767 23.3354 23.5784 23.3354 23.4627V21.3632C23.3354 21.2475 23.3744 21.1492 23.4524 21.0682C23.5304 20.9872 23.6251 20.9467 23.7365 20.9467C23.8479 20.9467 23.9427 20.9872 24.0206 21.0682C24.0986 21.1492 24.1376 21.2475 24.1376 21.3632V23.2892L25.2351 24.4286ZM24.1376 28.0608V27.2395C24.1376 27.1238 24.0986 27.0255 24.0206 26.9445C23.9427 26.8636 23.8479 26.8231 23.7365 26.8231C23.6251 26.8231 23.5304 26.8636 23.4524 26.9445C23.3744 27.0255 23.3354 27.1238 23.3354 27.2395V28.0608C23.0792 28.0377 22.8285 27.9914 22.5778 27.9162C22.3271 27.8468 22.0876 27.7543 21.8536 27.6386C21.6196 27.5229 21.3968 27.3899 21.1851 27.2395C20.9734 27.0834 20.7784 26.9156 20.5946 26.7248C20.4107 26.5339 20.2492 26.3315 20.0988 26.1117C19.9484 25.8919 19.8202 25.6605 19.7144 25.4176C19.603 25.1747 19.5138 24.926 19.447 24.6657C19.3801 24.4055 19.3356 24.1452 19.3077 23.8791H20.0988C20.2102 23.8791 20.3049 23.8386 20.3829 23.7577C20.4609 23.6767 20.4999 23.5784 20.4999 23.4627C20.4999 23.347 20.4609 23.2487 20.3829 23.1677C20.3049 23.0868 20.2102 23.0463 20.0988 23.0463H19.3077C19.33 22.7802 19.3746 22.5199 19.447 22.2597C19.5138 21.9994 19.603 21.7507 19.7144 21.5078C19.8258 21.2649 19.9539 21.0335 20.0988 20.8137C20.2492 20.5939 20.4107 20.3915 20.5946 20.2006C20.7784 20.0098 20.9734 19.842 21.1851 19.6859C21.3968 19.5297 21.6196 19.3967 21.8536 19.2868C22.0876 19.1711 22.3271 19.0786 22.5778 19.0092C22.8285 18.9398 23.0792 18.8935 23.3354 18.8646V19.6859C23.3354 19.8016 23.3744 19.8999 23.4524 19.9809C23.5304 20.0618 23.6251 20.1023 23.7365 20.1023C23.8479 20.1023 23.9427 20.0618 24.0206 19.9809C24.0986 19.8999 24.1376 19.8016 24.1376 19.6859V18.8646C24.3939 18.8877 24.6446 18.934 24.8953 19.0092C25.146 19.0786 25.3855 19.1711 25.6195 19.2868C25.8535 19.4025 26.0763 19.5355 26.288 19.6859C26.4997 19.842 26.6946 20.0098 26.8785 20.2006C27.0623 20.3915 27.2239 20.5939 27.3743 20.8137C27.5247 21.0335 27.6528 21.2649 27.7587 21.5078C27.8645 21.7507 27.9592 21.9994 28.0261 22.2597C28.0929 22.5199 28.1375 22.7802 28.1653 23.0463H27.3743C27.2629 23.0463 27.1682 23.0868 27.0902 23.1677C27.0122 23.2487 26.9732 23.347 26.9732 23.4627C26.9732 23.5784 27.0122 23.6767 27.0902 23.7577C27.1682 23.8386 27.2629 23.8791 27.3743 23.8791H28.1653C28.1431 24.1452 28.0985 24.4055 28.0261 24.6657C27.9592 24.926 27.8701 25.1747 27.7587 25.4176C27.6473 25.6605 27.5191 25.8919 27.3743 26.1117C27.2239 26.3315 27.0623 26.5339 26.8785 26.7248C26.6946 26.9156 26.4997 27.0834 26.288 27.2395C26.0763 27.3957 25.8535 27.5287 25.6195 27.6386C25.3855 27.7543 25.146 27.8468 24.8953 27.9162C24.6446 27.9856 24.3939 28.0319 24.1376 28.0608ZM23.731 18.0028C23.3856 18.0028 23.0457 18.0375 22.7059 18.1069C22.3661 18.1763 22.0374 18.2804 21.7199 18.4192C21.4023 18.558 21.096 18.7258 20.8118 18.9224C20.5222 19.1191 20.2603 19.3504 20.0152 19.5991C19.7701 19.8478 19.5528 20.1254 19.3634 20.4262C19.174 20.727 19.0125 21.0393 18.8788 21.369C18.7451 21.6986 18.6448 22.0399 18.5779 22.3927C18.5111 22.7455 18.4777 23.0983 18.4777 23.4569C18.4777 23.8155 18.5111 24.1683 18.5779 24.5211C18.6448 24.8739 18.7451 25.2152 18.8788 25.5449C19.0125 25.8745 19.174 26.1926 19.3634 26.4876C19.5528 26.7826 19.7757 27.0602 20.0152 27.3147C20.2548 27.5692 20.5222 27.7948 20.8118 27.9914C21.1015 28.1881 21.4023 28.3616 21.7199 28.4946C22.0374 28.6334 22.3661 28.7375 22.7059 28.8069C23.0457 28.8763 23.3856 28.911 23.731 28.911C24.0764 28.911 24.4162 28.8763 24.756 28.8069C25.0958 28.7375 25.4245 28.6334 25.742 28.4946C26.0596 28.3558 26.366 28.1881 26.6501 27.9914C26.9398 27.7948 27.2016 27.5634 27.4467 27.3147C27.6918 27.0602 27.9091 26.7884 28.0985 26.4876C28.2879 26.1869 28.4495 25.8745 28.5832 25.5449C28.7169 25.2152 28.8171 24.8739 28.884 24.5211C28.9508 24.1683 28.9843 23.8155 28.9843 23.4569C28.9843 23.0983 28.9508 22.7455 28.884 22.3927C28.8171 22.0399 28.7169 21.6986 28.5832 21.369C28.4495 21.0393 28.2879 20.7212 28.0985 20.4262C27.9091 20.1254 27.6863 19.8536 27.4467 19.5991C27.2072 19.3446 26.9398 19.1191 26.6501 18.9224C26.3604 18.7258 26.0596 18.5523 25.742 18.4192C25.4245 18.2804 25.0958 18.1763 24.756 18.1069C24.4162 18.0375 24.0764 18.0028 23.731 18.0028ZM23.3243 15.0646V14.226H21.7087V15.4521C21.7087 15.5678 21.6697 15.6661 21.5918 15.7471C21.5138 15.8281 21.4191 15.8686 21.3076 15.8686C21.1962 15.8686 21.1015 15.8281 21.0235 15.7471C20.9455 15.6661 20.9065 15.5678 20.9065 15.4521V13.8095C20.9065 13.6939 20.9455 13.5955 21.0235 13.5146C21.1015 13.4336 21.1962 13.3931 21.3076 13.3931H23.7365C23.8479 13.3931 23.9427 13.4336 24.0206 13.5146C24.0986 13.5955 24.1376 13.6939 24.1376 13.8095V15.0704C24.1376 15.1861 24.0986 15.2844 24.0206 15.3654C23.9427 15.4464 23.8479 15.4868 23.7365 15.4868C23.6251 15.4868 23.5304 15.4464 23.4524 15.3654C23.3744 15.2844 23.3354 15.1861 23.3354 15.0704L23.3243 15.0646ZM8.36102 8.34385H9.57546V8.76607C9.57546 8.9338 9.60888 9.09575 9.67016 9.24613C9.73144 9.40229 9.82058 9.53532 9.93199 9.65678C10.0434 9.77245 10.1771 9.86499 10.3275 9.92861C10.4779 9.99224 10.6283 10.0269 10.7899 10.0269C10.9515 10.0269 11.1074 9.99224 11.2523 9.92861C11.3971 9.86499 11.5308 9.77245 11.6478 9.65678C11.7592 9.5411 11.8484 9.40229 11.9096 9.24613C11.9709 9.08997 12.0043 8.9338 12.0043 8.76607V8.34385H15.241V8.76607C15.241 8.9338 15.2744 9.09575 15.3357 9.24613C15.397 9.40229 15.4861 9.53532 15.5975 9.65678C15.709 9.77245 15.8427 9.86499 15.9931 9.92861C16.1435 9.99224 16.2939 10.0269 16.4554 10.0269C16.617 10.0269 16.773 9.99224 16.9178 9.92861C17.0627 9.86499 17.1964 9.77245 17.3134 9.65678C17.4303 9.5411 17.5139 9.40229 17.5752 9.24613C17.6365 9.08997 17.6699 8.9338 17.6699 8.76607V8.34385H20.9065V8.76607C20.9065 8.9338 20.94 9.09575 21.0012 9.24613C21.0625 9.39651 21.1517 9.53532 21.2631 9.65678C21.3745 9.77245 21.5082 9.86499 21.6586 9.92861C21.809 9.99224 21.9594 10.0269 22.121 10.0269C22.2825 10.0269 22.4385 9.99224 22.5834 9.92861C22.7338 9.86499 22.8619 9.77245 22.9789 9.65678C23.0903 9.5411 23.1794 9.40229 23.2407 9.24613C23.302 9.08997 23.3354 8.9338 23.3354 8.76607V8.34385H24.5499C24.7114 8.34385 24.8674 8.37856 25.0123 8.44218C25.1571 8.5058 25.2908 8.59834 25.4078 8.71402C25.5192 8.82969 25.6083 8.9685 25.6696 9.12467C25.7309 9.28083 25.7643 9.43699 25.7643 9.60472V10.8656H7.15214V9.60472C7.15214 9.43699 7.18557 9.27505 7.24685 9.12467C7.30813 8.9685 7.39726 8.83548 7.50868 8.71402C7.62009 8.59834 7.75379 8.5058 7.90421 8.44218C8.05462 8.37856 8.20503 8.34385 8.36659 8.34385H8.36102ZM10.3832 6.66655C10.3832 6.55088 10.4222 6.45255 10.5002 6.37158C10.5782 6.29061 10.6729 6.25012 10.7843 6.25012C10.8957 6.25012 10.9905 6.29061 11.0684 6.37158C11.1464 6.45255 11.1854 6.55088 11.1854 6.66655V8.76607C11.1854 8.88175 11.1464 8.98007 11.0684 9.06105C10.9905 9.14202 10.8957 9.18251 10.7843 9.18251C10.6729 9.18251 10.5782 9.14202 10.5002 9.06105C10.4222 8.98007 10.3832 8.88175 10.3832 8.76607V6.66655ZM16.0432 6.66655C16.0432 6.55088 16.0822 6.45255 16.1602 6.37158C16.2382 6.29061 16.3329 6.25012 16.4443 6.25012C16.5557 6.25012 16.6504 6.29061 16.7284 6.37158C16.8064 6.45255 16.8454 6.55088 16.8454 6.66655V8.76607C16.8454 8.88175 16.8064 8.98007 16.7284 9.06105C16.6504 9.14202 16.5557 9.18251 16.4443 9.18251C16.3329 9.18251 16.2382 9.14202 16.1602 9.06105C16.0822 8.98007 16.0432 8.88175 16.0432 8.76607V6.66655ZM21.7032 6.66655C21.7032 6.55088 21.7422 6.45255 21.8202 6.37158C21.8982 6.29061 21.9929 6.25012 22.1043 6.25012C22.2157 6.25012 22.3104 6.29061 22.3884 6.37158C22.4664 6.45255 22.5054 6.55088 22.5054 6.66655V8.76607C22.5054 8.88175 22.4664 8.98007 22.3884 9.06105C22.3104 9.14202 22.2157 9.18251 22.1043 9.18251C21.9929 9.18251 21.8982 9.14202 21.8202 9.06105C21.7422 8.98007 21.7032 8.88175 21.7032 8.76607V6.66655ZM16.4443 26.8231H8.35544C8.19389 26.8231 8.03791 26.7884 7.89306 26.7248C7.74265 26.6611 7.61452 26.5686 7.49753 26.4529C7.38612 26.3372 7.29699 26.1984 7.23571 26.0423C7.17443 25.8861 7.141 25.7299 7.141 25.5622V11.7042H25.742V15.4811C25.742 15.5967 25.781 15.6951 25.859 15.776C25.937 15.857 26.0317 15.8975 26.1431 15.8975C26.2546 15.8975 26.3493 15.857 26.4272 15.776C26.5052 15.6951 26.5442 15.5967 26.5442 15.4811V9.60472C26.5442 9.3271 26.4941 9.06105 26.3882 8.80078C26.288 8.54629 26.1376 8.31494 25.9482 8.11829C25.7587 7.92164 25.5415 7.77126 25.2908 7.66137C25.0457 7.55726 24.7838 7.49942 24.5164 7.49942H23.302V6.66077C23.302 6.49304 23.2686 6.33109 23.2073 6.18072C23.146 6.02455 23.0569 5.89153 22.9455 5.77007C22.8341 5.65439 22.7004 5.56185 22.5499 5.49823C22.3995 5.43461 22.2491 5.3999 22.0876 5.3999C21.926 5.3999 21.77 5.43461 21.6252 5.49823C21.4748 5.56185 21.3466 5.65439 21.2297 5.77007C21.1182 5.88574 21.0291 6.02455 20.9678 6.18072C20.9065 6.33688 20.8731 6.49304 20.8731 6.66077V7.49942H17.6365V6.66077C17.6365 6.49304 17.603 6.33109 17.5418 6.18072C17.4805 6.02455 17.3913 5.89153 17.2799 5.77007C17.1685 5.64861 17.0348 5.56185 16.8844 5.49823C16.734 5.43461 16.5836 5.3999 16.422 5.3999C16.2605 5.3999 16.1045 5.43461 15.9596 5.49823C15.8092 5.56185 15.6811 5.65439 15.5641 5.77007C15.4527 5.88574 15.3636 6.02455 15.3023 6.18072C15.241 6.33688 15.2076 6.49304 15.2076 6.66077V7.49942H11.9709V6.66077C11.9709 6.49304 11.9375 6.33109 11.8762 6.18072C11.8149 6.02455 11.7258 5.89153 11.6144 5.77007C11.503 5.65439 11.3693 5.56185 11.2189 5.49823C11.0684 5.43461 10.918 5.3999 10.7565 5.3999C10.5949 5.3999 10.4389 5.43461 10.2941 5.49823C10.1437 5.56185 10.0156 5.65439 9.89857 5.77007C9.78715 5.88574 9.69802 6.02455 9.63674 6.18072C9.57546 6.33688 9.54203 6.49304 9.54203 6.66077V7.49942H8.32759C8.06019 7.49942 7.80393 7.55147 7.55324 7.66137C7.30813 7.76548 7.08529 7.92164 6.89588 8.11829C6.70648 8.31494 6.56163 8.5405 6.45579 8.80078C6.35551 9.05526 6.2998 9.3271 6.2998 9.60472V25.5622C6.2998 25.8398 6.34994 26.1059 6.45579 26.3662C6.55606 26.6207 6.70648 26.852 6.89588 27.0487C7.08529 27.2453 7.30256 27.3957 7.55324 27.5056C7.79836 27.6097 8.06019 27.6675 8.32759 27.6675H16.4164C16.5279 27.6675 16.6226 27.627 16.7006 27.5461C16.7786 27.4651 16.8175 27.3668 16.8175 27.2511C16.8175 27.1354 16.7786 27.0371 16.7006 26.9561C16.6226 26.8751 16.5279 26.8347 16.4164 26.8347L16.4443 26.8231ZM23.7254 29.7613C23.3243 29.7613 22.9343 29.7208 22.5444 29.6398C22.1544 29.5588 21.7756 29.4374 21.4079 29.2812C21.0402 29.125 20.6893 28.9284 20.3606 28.697C20.0319 28.4657 19.7255 28.2054 19.4414 27.9162C19.1573 27.627 18.9066 27.3031 18.6894 26.9619C18.4665 26.6207 18.2827 26.2563 18.1267 25.8745C17.9763 25.4928 17.8593 25.0995 17.7813 24.6946C17.7033 24.2898 17.6643 23.8791 17.6643 23.4685C17.6643 23.052 17.7033 22.6472 17.7813 22.2423C17.8593 21.8375 17.9763 21.4442 18.1267 21.0624C18.2771 20.6807 18.4665 20.3163 18.6894 19.9751C18.9122 19.6338 19.1629 19.3157 19.4414 19.0207C19.72 18.7258 20.0319 18.4655 20.3606 18.2399C20.6893 18.0086 21.0402 17.8177 21.4079 17.6558C21.7756 17.4996 22.1544 17.3781 22.5444 17.2972C22.9343 17.2162 23.3299 17.1757 23.7254 17.1757C24.1209 17.1757 24.5164 17.2162 24.9064 17.2972C25.2964 17.3781 25.6752 17.4996 26.0429 17.6558C26.4105 17.8119 26.7615 18.0086 27.0902 18.2399C27.4189 18.4713 27.7253 18.7316 28.0094 19.0207C28.2935 19.3157 28.5442 19.6338 28.7614 19.9751C28.9843 20.3163 29.1681 20.6807 29.3241 21.0624C29.4745 21.4442 29.5915 21.8375 29.6695 22.2423C29.7475 22.6472 29.7865 23.0578 29.7865 23.4685C29.7865 23.8791 29.7475 24.2898 29.6695 24.6946C29.5915 25.0995 29.4745 25.4928 29.3241 25.8745C29.1737 26.2563 28.9843 26.6207 28.7614 26.9619C28.5386 27.3031 28.2879 27.6212 28.0094 27.9162C27.7308 28.2112 27.4189 28.4715 27.0902 28.697C26.7615 28.9284 26.4105 29.1193 26.0429 29.2812C25.6752 29.4374 25.2964 29.5588 24.9064 29.6398C24.5164 29.7208 24.1209 29.7613 23.7254 29.7613ZM23.7254 16.3255C23.2742 16.3255 22.8285 16.3718 22.3828 16.4643C21.9427 16.5568 21.5082 16.6899 21.0904 16.8692C20.6726 17.0485 20.277 17.2683 19.9038 17.5285C19.5305 17.7888 19.1796 18.0838 18.862 18.4134C18.5445 18.7431 18.2604 19.1075 18.0097 19.495C17.759 19.8825 17.5473 20.299 17.3746 20.727C17.2019 21.155 17.0738 21.6061 16.9847 22.0688C16.8955 22.5257 16.851 22.9942 16.851 23.4627C16.851 23.9312 16.8955 24.3939 16.9847 24.8566C17.0738 25.3135 17.2019 25.7646 17.3746 26.1984C17.5473 26.6322 17.759 27.0429 18.0097 27.4304C18.2604 27.8179 18.5445 28.1823 18.862 28.512C19.1796 28.8416 19.5305 29.1366 19.9038 29.3969C20.277 29.6571 20.6781 29.8769 21.0904 30.0562C21.5082 30.2355 21.9372 30.3686 22.3828 30.4611C22.8285 30.5536 23.2742 30.5999 23.7254 30.5999C24.1766 30.5999 24.6223 30.5536 25.068 30.4611C25.5081 30.3686 25.9426 30.2355 26.3604 30.0562C26.7782 29.8769 27.1737 29.6571 27.547 29.3969C27.9202 29.1366 28.2712 28.8416 28.5887 28.512C28.9063 28.1823 29.1904 27.8179 29.4411 27.4304C29.6918 27.0429 29.9035 26.6264 30.0761 26.1984C30.2488 25.7646 30.377 25.3193 30.4661 24.8566C30.5552 24.3997 30.5998 23.9312 30.5998 23.4627C30.5998 22.9942 30.5552 22.5315 30.4661 22.0688C30.377 21.6061 30.2488 21.1607 30.0761 20.7327C29.9035 20.299 29.6918 19.8883 29.4411 19.5008C29.1904 19.1133 28.9063 18.7489 28.5887 18.4192C28.2712 18.0896 27.9202 17.7946 27.547 17.5343C27.1737 17.274 26.7782 17.0543 26.3604 16.875C25.9426 16.6957 25.5136 16.5626 25.0735 16.4701C24.6334 16.3775 24.1822 16.3313 23.731 16.3313L23.7254 16.3255ZM15.2299 24.3013H13.6143V22.624H15.2299V24.3013ZM15.6365 21.7796H13.2076C13.0962 21.7796 13.0015 21.8201 12.9235 21.9011C12.8455 21.982 12.8065 22.0804 12.8065 22.196V24.7178C12.8065 24.8335 12.8455 24.9318 12.9235 25.0128C13.0015 25.0937 13.0962 25.1342 13.2076 25.1342H15.6365C15.7479 25.1342 15.8427 25.0937 15.9206 25.0128C15.9986 24.9318 16.0376 24.8335 16.0376 24.7178V22.196C16.0376 22.0804 15.9986 21.982 15.9206 21.9011C15.8427 21.8201 15.7479 21.7796 15.6365 21.7796ZM11.1854 24.3013H9.56989V22.624H11.1854V24.3013ZM11.5921 21.7796H9.16322C9.0518 21.7796 8.95709 21.8201 8.8791 21.9011C8.80111 21.982 8.76212 22.0804 8.76212 22.196V24.7178C8.76212 24.8335 8.80111 24.9318 8.8791 25.0128C8.95709 25.0937 9.0518 25.1342 9.16322 25.1342H11.5921C11.7035 25.1342 11.7982 25.0937 11.8762 25.0128C11.9542 24.9318 11.9932 24.8335 11.9932 24.7178V22.196C11.9932 22.0804 11.9542 21.982 11.8762 21.9011C11.7982 21.8201 11.7035 21.7796 11.5921 21.7796ZM15.2299 20.1023H13.6143V18.425H15.2299V20.1023ZM16.0376 18.0028C16.0376 17.8871 15.9986 17.7888 15.9206 17.7078C15.8427 17.6268 15.7479 17.5864 15.6365 17.5864H13.2076C13.0962 17.5864 13.0015 17.6268 12.9235 17.7078C12.8455 17.7888 12.8065 17.8871 12.8065 18.0028V20.5245C12.8065 20.6402 12.8455 20.7385 12.9235 20.8195C13.0015 20.9005 13.0962 20.941 13.2076 20.941H15.6365C15.7479 20.941 15.8427 20.9005 15.9206 20.8195C15.9986 20.7385 16.0376 20.6402 16.0376 20.5245V18.0028ZM11.1854 20.1023H9.56989V18.425H11.1854V20.1023ZM11.9932 18.0028C11.9932 17.8871 11.9542 17.7888 11.8762 17.7078C11.7982 17.6268 11.7035 17.5864 11.5921 17.5864H9.16322C9.0518 17.5864 8.95709 17.6268 8.8791 17.7078C8.80111 17.7888 8.76212 17.8871 8.76212 18.0028V20.5245C8.76212 20.6402 8.80111 20.7385 8.8791 20.8195C8.95709 20.9005 9.0518 20.941 9.16322 20.941H11.5921C11.7035 20.941 11.7982 20.9005 11.8762 20.8195C11.9542 20.7385 11.9932 20.6402 11.9932 20.5245V18.0028ZM19.2743 15.9033H17.6587V14.226H19.2743V15.9033ZM17.2521 13.3815C17.1407 13.3815 17.046 13.422 16.968 13.503C16.89 13.584 16.851 13.6823 16.851 13.798V16.3197C16.851 16.4354 16.89 16.5337 16.968 16.6147C17.046 16.6957 17.1407 16.7361 17.2521 16.7361H19.681C19.7924 16.7361 19.8871 16.6957 19.9651 16.6147C20.0431 16.5337 20.0821 16.4354 20.0821 16.3197V13.798C20.0821 13.6823 20.0431 13.584 19.9651 13.503C19.8871 13.422 19.7924 13.3815 19.681 13.3815H17.2521ZM15.2299 15.9033H13.6143V14.226H15.2299V15.9033ZM16.0376 13.8038C16.0376 13.6881 15.9986 13.5898 15.9206 13.5088C15.8427 13.4278 15.7479 13.3873 15.6365 13.3873H13.2076C13.0962 13.3873 13.0015 13.4278 12.9235 13.5088C12.8455 13.5898 12.8065 13.6881 12.8065 13.8038V16.3255C12.8065 16.4412 12.8455 16.5395 12.9235 16.6205C13.0015 16.7014 13.0962 16.7419 13.2076 16.7419H15.6365C15.7479 16.7419 15.8427 16.7014 15.9206 16.6205C15.9986 16.5395 16.0376 16.4412 16.0376 16.3255V13.8038Z" fill="#FCFCFC"/>
</svg>
