<svg width="27" height="21" viewBox="0 0 27 21" fill="none" xmlns="http://www.w3.org/2000/svg">
<path fill-rule="evenodd" clip-rule="evenodd" d="M17.076 10.9427L13.7915 7.64463C13.5763 7.42855 13.2252 7.42855 13.0214 7.64463L9.73687 10.9427C9.52168 11.1588 9.52168 11.5114 9.73687 11.7161C9.95206 11.9208 10.3032 11.9322 10.507 11.7161L12.8628 9.35054V20.1206C12.8628 20.4276 13.112 20.6665 13.4064 20.6665C13.7009 20.6665 13.9501 20.4163 13.9501 20.1206V9.36192L16.3059 11.7275C16.5211 11.9435 16.8722 11.9435 17.076 11.7275C17.2912 11.5114 17.2912 11.1588 17.076 10.9541V10.9427ZM8.52501 6.21166C8.87611 3.82338 10.9261 1.98099 13.4064 1.98099C15.8868 1.98099 17.9368 3.82338 18.2879 6.21166C18.3105 6.37088 18.4125 6.51872 18.5484 6.60971C18.6956 6.68932 18.8655 6.71206 19.0127 6.6552C19.4884 6.48461 19.9868 6.38225 20.5191 6.38225C22.9428 6.38225 24.9022 8.34974 24.9022 10.7835C24.9022 13.2173 22.9428 15.1848 20.5191 15.1848H16.6796C16.3738 15.1848 16.136 15.435 16.136 15.7307C16.136 16.0264 16.3851 16.2766 16.6796 16.2766H20.5191C23.5431 16.2766 26.0008 13.8087 26.0008 10.7721C26.0008 7.73561 23.5431 5.26772 20.5191 5.26772C20.0774 5.26772 19.647 5.32458 19.2393 5.41556C18.571 2.79983 16.2153 0.866455 13.3951 0.866455C10.575 0.866455 8.21921 2.79983 7.55098 5.41556C7.14325 5.31321 6.71287 5.26772 6.27116 5.26772C3.25849 5.27909 0.800781 7.74698 0.800781 10.7835C0.800781 13.82 3.25849 16.2879 6.28249 16.2879H10.122C10.4277 16.2879 10.6656 16.0377 10.6656 15.742C10.6656 15.4464 10.4164 15.1962 10.122 15.1962H6.28249C3.85876 15.1962 1.89939 13.2287 1.89939 10.7949C1.89939 8.36111 3.85876 6.39362 6.28249 6.39362C6.8148 6.39362 7.32447 6.48461 7.78883 6.66657C7.94739 6.72343 8.11728 6.71206 8.25319 6.62108C8.40042 6.54147 8.49103 6.39362 8.51368 6.22303L8.52501 6.21166Z" fill="#E8433C" stroke="#FF3E33" stroke-width="0.45"/>
</svg>
