<svg width="59" height="66" viewBox="0 0 59 66" fill="none" xmlns="http://www.w3.org/2000/svg">
<g clip-path="url(#clip0_561_4566)">
<path d="M58.12 16.5289V60.8789C58.12 63.1989 56.24 65.0789 53.92 65.0789H4.2C1.88 65.0789 0 63.1989 0 60.8789V5.04889C0 2.73889 1.88 0.858887 4.2 0.858887H42.52V10.5289C42.52 13.8389 45.21 16.5289 48.52 16.5289H58.12Z" fill="#2D98DB"/>
<path d="M42.5996 11.4589C42.5996 11.4589 42.8296 16.9889 48.8896 16.9889H58.1196V16.5289L42.5996 11.4589Z" fill="#216896"/>
<path d="M58.1195 16.4489V16.5289H48.5195C45.2095 16.5289 42.5195 13.8389 42.5195 10.5289V0.858887L58.1195 16.4489Z" fill="#6EBFF1"/>
<g clip-path="url(#clip1_561_4566)">
<path d="M9 43.3101H13.54C15.4 43.3101 16.85 43.8101 17.89 44.8201C18.93 45.8301 19.45 47.3301 19.45 49.3101C19.45 50.3201 19.31 51.2001 19.02 51.9601C18.73 52.7201 18.31 53.3601 17.77 53.8801C17.23 54.4001 16.56 54.7901 15.78 55.0501C15 55.3101 14.11 55.4401 13.13 55.4401H9V43.3101ZM13.17 53.2801C13.83 53.2801 14.39 53.1901 14.85 53.0001C15.31 52.8101 15.69 52.5501 15.98 52.2001C16.27 51.8501 16.48 51.4401 16.62 50.9601C16.76 50.4801 16.82 49.9401 16.82 49.3401C16.82 48.7401 16.76 48.2201 16.64 47.7401C16.52 47.2601 16.33 46.8601 16.07 46.5301C15.81 46.2001 15.47 45.9501 15.06 45.7701C14.65 45.5901 14.14 45.5001 13.54 45.5001H11.53V53.2901H13.16L13.17 53.2801Z" fill="#FDFCFD"/>
<path d="M26.9406 55.76C26.0306 55.76 25.2206 55.61 24.5106 55.32C23.8006 55.03 23.1906 54.6 22.6906 54.04C22.1906 53.48 21.8106 52.82 21.5406 52.03C21.2706 51.25 21.1406 50.36 21.1406 49.38C21.1406 48.4 21.2706 47.51 21.5406 46.73C21.8106 45.95 22.1906 45.28 22.7006 44.72C23.2006 44.16 23.8106 43.74 24.5306 43.44C25.2506 43.14 26.0506 43 26.9506 43C27.8506 43 28.6706 43.15 29.3806 43.44C30.0906 43.73 30.7006 44.16 31.1906 44.72C31.6806 45.28 32.0606 45.94 32.3206 46.73C32.5806 47.52 32.7106 48.4 32.7106 49.38C32.7106 50.36 32.5806 51.25 32.3306 52.03C32.0706 52.81 31.7006 53.48 31.2106 54.04C30.7206 54.6 30.1106 55.02 29.4006 55.32C28.6906 55.61 27.8706 55.76 26.9506 55.76H26.9406ZM26.9206 53.58C27.9906 53.58 28.7806 53.22 29.3006 52.49C29.8206 51.76 30.0806 50.73 30.0806 49.38C30.0806 48.03 29.8206 47.01 29.3006 46.28C28.7806 45.55 27.9806 45.18 26.9206 45.18C25.8606 45.18 25.0606 45.55 24.5406 46.28C24.0206 47.01 23.7606 48.05 23.7606 49.38C23.7606 50.71 24.0206 51.77 24.5406 52.49C25.0606 53.22 25.8606 53.58 26.9206 53.58Z" fill="#FDFCFD"/>
<path d="M45.1797 51.25C45.1197 51.9 44.9697 52.49 44.7297 53.04C44.4897 53.59 44.1497 54.07 43.7297 54.47C43.2997 54.87 42.7797 55.19 42.1697 55.41C41.5497 55.64 40.8297 55.75 40.0197 55.75C39.0997 55.75 38.2897 55.6 37.5997 55.29C36.8997 54.98 36.3197 54.55 35.8497 54C35.3797 53.44 35.0297 52.77 34.7897 51.98C34.5497 51.19 34.4297 50.32 34.4297 49.37C34.4297 48.42 34.5597 47.5 34.8197 46.72C35.0797 45.94 35.4497 45.27 35.9397 44.71C36.4297 44.15 37.0197 43.73 37.7097 43.43C38.3997 43.13 39.1797 42.99 40.0597 42.99C40.8297 42.99 41.4997 43.09 42.0797 43.28C42.6497 43.47 43.1297 43.75 43.5297 44.11C43.9197 44.47 44.2397 44.91 44.4697 45.42C44.7097 45.93 44.8797 46.5 44.9997 47.14L42.4797 47.46C42.3597 46.75 42.1097 46.18 41.7597 45.78C41.3997 45.37 40.8397 45.17 40.0697 45.17C39.0897 45.17 38.3497 45.54 37.8497 46.27C37.3497 47 37.0897 48.04 37.0897 49.37C37.0897 50.7 37.3597 51.76 37.8997 52.48C38.4397 53.21 39.1597 53.57 40.0697 53.57C40.8497 53.57 41.4297 53.37 41.7997 52.97C42.1697 52.57 42.3997 51.99 42.4897 51.24H45.2097L45.1797 51.25Z" fill="#FDFCFD"/>
</g>
</g>
<defs>
<clipPath id="clip0_561_4566">
<rect width="58.12" height="64.22" fill="white" transform="translate(0 0.858887)"/>
</clipPath>
<clipPath id="clip1_561_4566">
<rect width="36.18" height="12.76" fill="white" transform="translate(9 43)"/>
</clipPath>
</defs>
</svg>
