<svg width="29" height="30" viewBox="0 0 29 30" fill="none" xmlns="http://www.w3.org/2000/svg">
<path d="M28.9364 5.57733C28.9364 2.7883 26.6754 0.527344 23.8864 0.527344H5.04998C2.26095 0.527344 0 2.7883 0 5.57732V24.4138C0 27.2028 2.26095 29.4637 5.04998 29.4637H23.8864C26.6754 29.4637 28.9364 27.2028 28.9364 24.4138V5.57733Z" fill="#FDFDFD"/>
<path d="M15.7181 7.66886C15.7165 7.66731 15.7176 7.66465 15.7198 7.66465H17.3684C17.7469 7.66465 18.0537 7.35782 18.0537 6.97933V5.63203C18.0537 4.80694 17.3848 4.13808 16.5597 4.13808H15.0743C15.0696 4.13808 15.0658 4.14192 15.0658 4.14665C15.0658 4.15126 15.0619 4.15505 15.0573 4.15523C11.1364 4.30106 10.3281 6.4938 10.26 8.82199C10.2599 8.8243 10.258 8.82615 10.2557 8.82615C10.2534 8.82615 10.2515 8.82806 10.2515 8.83042V10.1055C10.2515 10.7516 9.72768 11.2754 9.08155 11.2754C8.43542 11.2754 7.91164 11.7992 7.91164 12.4453V13.6405C7.91164 14.2866 8.43542 14.8104 9.08155 14.8104C9.72768 14.8104 10.2515 15.3342 10.2515 15.9803V23.4416C10.2515 24.6014 11.1916 25.5416 12.3514 25.5416C13.5112 25.5416 14.4514 24.6014 14.4514 23.4416V16.4434C14.4514 15.5415 15.1825 14.8104 16.0844 14.8104C16.8812 14.8104 17.5617 14.2353 17.6946 13.4495L17.7367 13.2004C17.9069 12.1935 17.1309 11.2754 16.1098 11.2754C15.1985 11.2754 14.4598 10.5367 14.4598 9.6254V9.08706C14.4598 8.31483 14.9788 7.67653 15.7163 7.67308C15.7185 7.67307 15.7196 7.67041 15.7181 7.66886Z" fill="#212146"/>
</svg>
