<svg width="27" height="28" viewBox="0 0 27 28" fill="none" xmlns="http://www.w3.org/2000/svg">
<path d="M13.4846 2.60209C7.55157 2.60209 2.7212 7.65711 2.7212 13.8661C2.7212 20.0751 7.55157 25.1301 13.4846 25.1301C19.4177 25.1301 24.248 20.0751 24.248 13.8661C24.248 7.65711 19.4177 2.60209 13.4846 2.60209ZM13.4846 27.1521C10.0887 27.1521 6.90751 25.7735 4.50697 23.2613C2.10643 20.7491 0.789062 17.4097 0.789062 13.8661C0.789062 10.3225 2.10643 6.9831 4.50697 4.47091C6.90751 1.95872 10.0985 0.580078 13.4846 0.580078C16.8707 0.580078 20.0617 1.95872 22.4622 4.47091C24.8628 6.9831 26.1801 10.3225 26.1801 13.8661C26.1801 17.4097 24.8628 20.7491 22.4622 23.2613C20.0617 25.7735 16.8707 27.1521 13.4846 27.1521Z" fill="#FDFDFD"/>
<path d="M17.7002 18.9927C17.5148 18.9927 17.3196 18.9314 17.1537 18.8191L12.4307 15.4287C12.1672 15.2346 12.0111 14.9283 12.0111 14.5913V6.299C12.0209 5.73733 12.46 5.28799 12.9967 5.28799C13.5334 5.28799 13.9628 5.74754 13.9628 6.299V14.05L18.2466 17.1341C18.6858 17.4507 18.8029 18.0838 18.5004 18.5434C18.315 18.8293 18.0124 18.9825 17.7002 18.9825V18.9927Z" fill="#FDFDFD"/>
</svg>
