<svg width="19" height="28" viewBox="0 0 19 28" fill="none" xmlns="http://www.w3.org/2000/svg">
<path d="M9.92095 15.6643C9.92095 15.777 9.87997 15.8693 9.80824 15.941C9.72626 16.023 9.63401 16.0537 9.53153 16.0537C9.41881 16.0537 9.32659 16.0127 9.25486 15.941C9.17288 15.859 9.14215 15.7668 9.14215 15.6643C9.14215 15.5618 9.18313 15.4594 9.25486 15.3876C9.33684 15.3056 9.42906 15.2749 9.53153 15.2749C9.63401 15.2749 9.73651 15.3159 9.80824 15.3876C9.89022 15.4696 9.92095 15.5618 9.92095 15.6643Z" fill="#FDFDFD"/>
<path d="M9.92095 17.2322C9.92095 17.3449 9.87997 17.4372 9.80824 17.5089C9.72626 17.5909 9.63401 17.6216 9.53153 17.6216C9.42906 17.6216 9.32659 17.5806 9.25486 17.5089C9.17288 17.4269 9.14215 17.3347 9.14215 17.2322C9.14215 17.1297 9.18313 17.0273 9.25486 16.9555C9.33684 16.8736 9.42906 16.8428 9.53153 16.8428C9.63401 16.8428 9.73651 16.8838 9.80824 16.9555C9.89022 17.0375 9.92095 17.1297 9.92095 17.2322Z" fill="#FDFDFD"/>
<path d="M10.9251 14.3013C10.9661 14.9879 11.2531 15.531 11.7859 15.9512L14.2863 18.2364C15.6185 19.4354 16.2539 21.0135 16.2744 23.1962V24.9486H2.7373V23.2065C2.76805 21.0237 3.39312 19.4354 4.72531 18.2364L7.22573 15.9512C7.76885 15.531 8.05579 14.9777 8.09678 14.2911C8.06604 13.625 7.7791 13.0818 7.25647 12.6822L5.6681 11.2373L4.71508 10.3662C3.38289 9.16726 2.75779 7.58913 2.72705 5.40639V3.37736H16.2641V5.38589C16.2436 7.56863 15.6083 9.15701 14.2761 10.356C13.9994 10.6019 13.7227 10.8581 13.4563 11.1041L11.7347 12.6822C11.2121 13.1023 10.9354 13.6352 10.9046 14.3013H10.9251ZM12.2983 13.2561L14.0097 11.6882L14.8295 10.9401C16.3154 9.59766 17.0532 7.78383 17.0737 5.38589V3.36712H18.3136C18.4264 3.36712 18.5186 3.33637 18.6006 3.25439C18.6826 3.17241 18.7235 3.08018 18.7235 2.96746V1.25611C18.7235 1.14338 18.6826 1.05116 18.6108 0.979423C18.5289 0.897442 18.4366 0.866699 18.3342 0.866699H0.708265C0.595542 0.866699 0.503325 0.90769 0.431591 0.979423C0.359858 1.05116 0.318851 1.15363 0.318851 1.25611V2.96746C0.318851 3.08018 0.359858 3.17241 0.431591 3.24414C0.513572 3.32613 0.605789 3.35687 0.708265 3.35687H1.94822V5.3654C1.97896 7.76334 2.7168 9.57717 4.2027 10.9094L5.15572 11.7804L6.74409 13.2253C7.09251 13.4918 7.28724 13.8402 7.31798 14.2706C7.27699 14.7215 7.07204 15.0801 6.70312 15.3466L4.2027 17.6318C2.7168 18.964 1.97896 20.7778 1.94822 23.1757V24.9281H0.708265C0.595542 24.9281 0.503315 24.9691 0.421334 25.0511C0.339353 25.133 0.308594 25.2253 0.308594 25.338V27.0493C0.308594 27.1621 0.3496 27.2543 0.421334 27.326C0.503315 27.408 0.595532 27.4387 0.698008 27.4387H18.3136C18.4264 27.4387 18.5186 27.3978 18.6006 27.326C18.6826 27.2543 18.7236 27.1518 18.7133 27.0391V25.338C18.7133 25.2253 18.6723 25.133 18.6006 25.0613C18.5186 24.9793 18.4264 24.9486 18.3239 24.9486H17.0737V23.186C17.043 20.788 16.3051 18.9742 14.8295 17.642L12.3188 15.3466C11.9601 15.0801 11.7552 14.7317 11.7142 14.2808C11.7552 13.8402 11.9396 13.4918 12.2983 13.2356V13.2561Z" fill="#FDFDFD"/>
<path d="M14.7369 8.56277C14.8394 8.38856 14.8189 8.23484 14.6754 8.09138C14.5422 7.94791 14.3885 7.91717 14.2142 8.00939C12.6464 8.80871 12.0623 9.10589 9.64382 8.32707C8.865 8.07088 8.06567 7.97865 7.25611 8.02989C6.4363 8.08113 5.66774 8.28608 4.92992 8.64475C4.81719 8.69598 4.74547 8.78821 4.71472 8.91118C4.68398 9.03416 4.71473 9.14688 4.78647 9.24936C4.94018 9.43381 8.38336 12.7335 8.42435 12.7335C8.69079 13.0307 8.83425 13.3894 8.86499 13.7788C8.88549 13.9428 8.96747 14.0862 9.09044 14.1887C9.22366 14.2912 9.36713 14.3424 9.54134 14.3322C9.7053 14.3527 9.84878 14.3014 9.97175 14.1989C10.0947 14.0965 10.1664 13.9633 10.1767 13.7993C10.2382 13.2767 10.4739 12.836 10.8735 12.4978C10.9248 12.4466 11.1502 12.2417 11.4474 11.9445C12.1852 11.2374 13.4252 10.0384 13.7633 9.74124C14.1528 9.39282 14.4807 8.99316 14.7369 8.54227V8.56277Z" fill="#FDFDFD"/>
<path d="M4.05938 23.6882C4.05938 23.8009 4.09014 23.8932 4.17212 23.9751C4.2541 24.0571 4.34633 24.0981 4.45905 24.0879H14.5734C14.6862 24.0879 14.7784 24.0469 14.8501 23.9751C14.9321 23.8932 14.9628 23.8009 14.9628 23.6984C14.9628 23.35 14.9116 23.0016 14.8399 22.6532C14.7681 22.3048 14.6554 21.9768 14.512 21.6489C14.3685 21.321 14.2045 21.0136 13.9996 20.7266C13.7946 20.4397 13.5692 20.163 13.3232 19.9171C13.067 19.6711 12.8006 19.4457 12.5034 19.2612C12.2062 19.0665 11.8988 18.9026 11.5709 18.7693C11.243 18.6361 10.9048 18.5337 10.5564 18.4722C10.2079 18.4004 9.85953 18.3697 9.51111 18.3697C9.16269 18.3697 8.80404 18.4004 8.46587 18.4722C8.11745 18.5439 7.77926 18.6361 7.45133 18.7693C7.12341 18.9026 6.81598 19.0665 6.5188 19.2612C6.22162 19.4559 5.94494 19.6711 5.699 19.9171C5.44281 20.163 5.21736 20.4295 5.02266 20.7266C4.8177 21.0136 4.65374 21.321 4.51028 21.6489C4.36681 21.9768 4.26433 22.3048 4.18234 22.6532C4.11061 23.0016 4.05938 23.35 4.05938 23.6984V23.6882Z" fill="#FDFDFD"/>
</svg>
