<svg width="27" height="28" viewBox="0 0 27 28" fill="none" xmlns="http://www.w3.org/2000/svg">
<path d="M24.6145 22.7108C24.6145 24.3551 23.2806 25.6893 21.6367 25.6893H5.40442C3.76053 25.6893 2.42663 24.3551 2.42663 22.7108V10.4959H24.6145V22.7108ZM6.1747 4.25692V5.89183C6.1747 6.33345 6.53166 6.6905 6.97316 6.6905C7.41466 6.6905 7.77162 6.33345 7.77162 5.89183V4.25692C8.31645 4.5482 8.6922 5.12136 8.6922 5.77908C8.6922 6.72808 7.92192 7.49856 6.97316 7.49856C6.0244 7.49856 5.25412 6.72808 5.25412 5.77908C5.25412 5.12136 5.63926 4.5482 6.1747 4.25692ZM18.781 4.22873V5.89183C18.781 6.33345 19.138 6.6905 19.5795 6.6905C20.021 6.6905 20.3779 6.33345 20.3779 5.89183V4.28511C20.8946 4.58578 21.2421 5.14015 21.2421 5.77908C21.2421 6.72808 20.4719 7.49856 19.5231 7.49856C18.5743 7.49856 17.8041 6.72808 17.8041 5.77908C17.8041 5.09317 18.208 4.50122 18.781 4.22873ZM20.3873 3.38309V1.54146C20.3873 1.09984 20.0304 0.742794 19.5888 0.742794C19.1473 0.742794 18.7904 1.09984 18.7904 1.54146V3.39248H7.78102V1.54146C7.78102 1.09045 7.42406 0.733398 6.98255 0.733398C6.54105 0.733398 6.18409 1.09045 6.18409 1.53206V3.38309H5.40442C2.86813 3.38309 0.820312 5.44082 0.820312 7.96836V22.7202C0.820312 25.2571 2.86813 27.3054 5.40442 27.3054H21.6273C24.1636 27.3054 26.2114 25.2571 26.2114 22.7202V7.96836C26.2114 5.43143 24.1636 3.38309 21.6273 3.38309H20.3873Z" fill="#FDFDFD"/>
<path d="M7.80024 12.253H5.59273C5.41115 12.253 5.26395 12.4002 5.26395 12.5818V14.7899C5.26395 14.9715 5.41115 15.1188 5.59273 15.1188H7.80024C7.98182 15.1188 8.12902 14.9715 8.12902 14.7899V12.5818C8.12902 12.4002 7.98182 12.253 7.80024 12.253Z" fill="#FDFDFD"/>
<path d="M7.80024 16.8102H5.59273C5.41115 16.8102 5.26395 16.9574 5.26395 17.139V19.3471C5.26395 19.5287 5.41115 19.6759 5.59273 19.6759H7.80024C7.98182 19.6759 8.12902 19.5287 8.12902 19.3471V17.139C8.12902 16.9574 7.98182 16.8102 7.80024 16.8102Z" fill="#FDFDFD"/>
<path d="M5.58334 21.3671H7.80964C7.98812 21.3671 8.13842 21.508 8.13842 21.696V23.9134C8.13842 24.092 7.99751 24.2423 7.80964 24.2423H5.59273C5.41425 24.2423 5.26395 24.1014 5.26395 23.9134V21.6866C5.26395 21.508 5.40486 21.3671 5.58334 21.3671Z" fill="#FDFDFD"/>
<path d="M12.3558 12.253H10.1483C9.96671 12.253 9.81951 12.4002 9.81951 12.5818V14.7899C9.81951 14.9715 9.96671 15.1188 10.1483 15.1188H12.3558C12.5374 15.1188 12.6846 14.9715 12.6846 14.7899V12.5818C12.6846 12.4002 12.5374 12.253 12.3558 12.253Z" fill="#FDFDFD"/>
<path d="M12.3558 16.8102H10.1483C9.96671 16.8102 9.81951 16.9574 9.81951 17.139V19.3471C9.81951 19.5287 9.96671 19.6759 10.1483 19.6759H12.3558C12.5374 19.6759 12.6846 19.5287 12.6846 19.3471V17.139C12.6846 16.9574 12.5374 16.8102 12.3558 16.8102Z" fill="#FDFDFD"/>
<path d="M10.1389 21.3671H12.3652C12.5437 21.3671 12.694 21.508 12.694 21.696V23.9134C12.694 24.092 12.5531 24.2423 12.3652 24.2423H10.1483C9.96981 24.2423 9.81951 24.1014 9.81951 23.9134V21.6866C9.81951 21.508 9.96042 21.3671 10.1389 21.3671Z" fill="#FDFDFD"/>
<path d="M16.9114 12.253H14.7039C14.5223 12.253 14.3751 12.4002 14.3751 12.5818V14.7899C14.3751 14.9715 14.5223 15.1188 14.7039 15.1188H16.9114C17.0929 15.1188 17.2401 14.9715 17.2401 14.7899V12.5818C17.2401 12.4002 17.0929 12.253 16.9114 12.253Z" fill="#FDFDFD"/>
<path d="M16.9114 16.8102H14.7039C14.5223 16.8102 14.3751 16.9574 14.3751 17.139V19.3471C14.3751 19.5287 14.5223 19.6759 14.7039 19.6759H16.9114C17.0929 19.6759 17.2401 19.5287 17.2401 19.3471V17.139C17.2401 16.9574 17.0929 16.8102 16.9114 16.8102Z" fill="#FDFDFD"/>
<path d="M14.6945 21.3671H16.9208C17.0992 21.3671 17.2495 21.508 17.2495 21.696V23.9134C17.2495 24.092 17.1086 24.2423 16.9208 24.2423H14.7039C14.5254 24.2423 14.3751 24.1014 14.3751 23.9134V21.6866C14.3751 21.508 14.516 21.3671 14.6945 21.3671Z" fill="#FDFDFD"/>
<path d="M21.4678 12.253H19.2603C19.0787 12.253 18.9315 12.4002 18.9315 12.5818V14.7899C18.9315 14.9715 19.0787 15.1188 19.2603 15.1188H21.4678C21.6494 15.1188 21.7966 14.9715 21.7966 14.7899V12.5818C21.7966 12.4002 21.6494 12.253 21.4678 12.253Z" fill="#FDFDFD"/>
<path d="M21.4678 16.8102H19.2603C19.0787 16.8102 18.9315 16.9574 18.9315 17.139V19.3471C18.9315 19.5287 19.0787 19.6759 19.2603 19.6759H21.4678C21.6494 19.6759 21.7966 19.5287 21.7966 19.3471V17.139C21.7966 16.9574 21.6494 16.8102 21.4678 16.8102Z" fill="#FDFDFD"/>
</svg>
