<svg width="28" height="29" viewBox="0 0 28 29" fill="none" xmlns="http://www.w3.org/2000/svg">
<path d="M28 14.5C28 10.7612 26.5493 7.24642 23.8955 4.60447C21.2536 1.96251 17.7388 0.5 14 0.5C10.2612 0.5 6.74642 1.96251 4.10447 4.60447C1.46251 7.24642 0 10.7612 0 14.5C0 18.2388 1.45072 21.7536 4.10447 24.3955C6.74642 27.0375 10.2612 28.5 14 28.5C17.7388 28.5 21.2536 27.0493 23.8955 24.3955C26.5375 21.7536 28 18.2388 28 14.5ZM26.1719 14.5C26.1719 17.7553 24.9099 20.81 22.6099 23.1099C20.31 25.4099 17.2553 26.6719 14 26.6719C10.7447 26.6719 7.68997 25.4099 5.39006 23.1099C3.09014 20.81 1.82814 17.7553 1.82814 14.5C1.82814 11.2447 3.09014 8.18997 5.39006 5.89006C7.68997 3.59014 10.7447 2.32814 14 2.32814C17.2553 2.32814 20.31 3.59014 22.6099 5.89006C24.9099 8.18997 26.1719 11.2447 26.1719 14.5Z" fill="#FDFDFD"/>
<path d="M18.9653 15.42L11.299 19.3003C10.6621 19.6188 9.90721 19.1588 9.90721 18.4511V10.6786C9.90721 9.95914 10.6621 9.49916 11.299 9.8294L18.9653 13.7216C19.6612 14.0754 19.6612 15.0779 18.9653 15.4318" fill="#FDFDFD"/>
</svg>
