<svg width="39" height="40" viewBox="0 0 39 40" fill="none" xmlns="http://www.w3.org/2000/svg">
<path fill-rule="evenodd" clip-rule="evenodd" d="M19.1056 5.18649C16.9733 5.18649 15.2412 6.9186 15.2412 9.05092C15.2412 11.1832 16.9733 12.9154 19.1056 12.9154C21.238 12.9154 22.9701 11.1832 22.9701 9.05092C22.9701 6.9186 21.238 5.18649 19.1056 5.18649ZM20.7393 2.22092C21.461 2.39151 22.1499 2.68019 22.7864 3.06729L24.1182 2.4768L25.6863 4.04488L25.0958 5.37676C25.4895 6.01318 25.7716 6.70208 25.9422 7.42379L27.3003 7.94867V10.1663L25.9422 10.6912C25.7716 11.4129 25.4829 12.1018 25.0958 12.7382L25.6863 14.0701L24.1182 15.6382L22.7864 15.0477C22.1565 15.4413 21.461 15.7235 20.7393 15.894L20.2144 17.2522H17.9968L17.4719 15.894C16.7437 15.7235 16.0548 15.4348 15.4249 15.0477L14.093 15.6382L12.5249 14.0701L13.1154 12.7382C12.7218 12.1083 12.4397 11.4129 12.2625 10.6912L10.9044 10.1663V7.94867L12.2625 7.42379C12.4397 6.69552 12.7218 6.00662 13.1154 5.37676L12.5249 4.04488L14.093 2.4768L15.4249 3.06729C16.0613 2.67363 16.7502 2.39151 17.4719 2.22092L17.9968 0.862793H20.2144L20.7393 2.22092ZM22.6026 27.0871C25.4632 26.2145 28.2648 25.8602 31.3419 25.7224C31.6962 25.7093 31.9652 25.4075 31.9521 25.0598C31.9389 24.7055 31.6371 24.4365 31.2894 24.4496C28.1008 24.5939 25.2008 24.9613 22.2352 25.8668C21.9006 25.9717 21.7103 26.326 21.8153 26.6606C21.9203 26.9953 22.2746 27.1855 22.6092 27.0805L22.6026 27.0871ZM22.6026 31.5355C25.3255 30.6825 28.2385 30.302 31.3419 30.1511C31.6896 30.1314 31.9652 29.8362 31.9455 29.4819C31.9258 29.1276 31.6306 28.8586 31.2763 28.8783C28.0614 29.0292 25.0368 29.436 22.2221 30.3217C21.8875 30.4267 21.6972 30.7875 21.8022 31.1221C21.9072 31.4567 22.268 31.647 22.6026 31.542V31.5355ZM22.5895 22.6322C25.6207 21.7399 28.291 21.4184 31.3353 21.2937C31.6896 21.2806 31.9586 20.9788 31.9455 20.6311C31.9324 20.2768 31.6306 20.0078 31.2828 20.0209C28.1336 20.1521 25.3714 20.4867 22.2352 21.4118C21.9006 21.5103 21.7038 21.8646 21.8022 22.1992C21.9006 22.5338 22.2549 22.7306 22.5895 22.6322ZM28.4879 7.50909C30.0428 7.36474 31.8602 7.28601 34.2156 7.27945C34.3206 7.27945 34.4256 7.31882 34.4977 7.39755C34.5699 7.46972 34.6158 7.5747 34.6158 7.67967V33.4775C34.6158 33.694 34.4387 33.8777 34.2222 33.8777C28.9274 33.904 23.5868 34.501 19.742 36.4693V18.5184H20.2144C20.7393 18.5184 22.2483 18.2691 22.5895 18.1773C25.8241 17.2719 28.337 16.9897 31.3419 16.8716C31.6962 16.8585 31.9652 16.5633 31.9521 16.209C31.9389 15.8547 31.6437 15.5857 31.2894 15.5988C29.203 15.6841 27.3397 15.8416 25.3255 16.2221L26.5852 14.9624C26.9591 14.5884 27.0641 14.0242 26.8476 13.5452L26.5392 12.8497C28.1598 12.5939 29.6557 12.4954 31.3419 12.4364C31.6962 12.4233 31.9652 12.128 31.9586 11.7803C31.9455 11.426 31.6503 11.157 31.3025 11.1636C29.9969 11.2095 28.8028 11.2817 27.5759 11.426L27.7596 11.3538C28.2517 11.1636 28.5732 10.6912 28.5732 10.1663V7.94867C28.5732 7.79777 28.5469 7.65343 28.4944 7.51565L28.4879 7.50909ZM15.976 21.4118C12.8333 20.4867 10.0777 20.1521 6.92842 20.0209C6.57412 20.0078 6.27888 20.2768 6.26575 20.6311C6.25263 20.9854 6.52163 21.2806 6.87593 21.2937C9.92023 21.425 12.584 21.7399 15.6217 22.6322C15.9563 22.7306 16.3106 22.5403 16.4091 22.1992C16.5075 21.8646 16.3172 21.5103 15.976 21.4118ZM15.9892 30.3217C13.1679 29.436 10.1433 29.0357 6.93498 28.8848C6.58724 28.8651 6.28544 29.1407 6.26575 29.4884C6.24607 29.8362 6.52163 30.138 6.86937 30.1577C9.96616 30.3086 12.8858 30.6891 15.6086 31.542C15.9432 31.647 16.3041 31.4633 16.4091 31.1221C16.514 30.7875 16.3303 30.4267 15.9892 30.3217ZM15.9892 25.8668C13.0236 24.9613 10.1236 24.5939 6.93498 24.4496C6.58068 24.4365 6.28544 24.7055 6.27232 25.0598C6.25919 25.4141 6.52819 25.7093 6.88249 25.7224C9.9596 25.8602 12.7611 26.2145 15.6217 27.0871C15.9563 27.1921 16.3172 27.0018 16.4156 26.6672C16.5206 26.3326 16.3303 25.9717 15.9957 25.8733L15.9892 25.8668ZM18.4758 18.5053V36.4562C14.631 34.4945 9.29694 33.8974 3.99565 33.8646C3.77914 33.8646 3.60199 33.6875 3.60199 33.4644C3.60199 30.4135 3.60199 10.724 3.60199 7.66655C3.60199 7.56157 3.64135 7.4566 3.72009 7.38443C3.79226 7.31226 3.89723 7.26633 4.00221 7.26633C6.35761 7.27289 8.175 7.35162 9.72996 7.49596C9.67747 7.63375 9.65123 7.77809 9.65123 7.92899V10.1466C9.65123 10.6715 9.97272 11.1439 10.4648 11.3341L10.6485 11.4063C9.42816 11.262 8.23405 11.1898 6.92842 11.1439C6.57412 11.1308 6.28544 11.4063 6.27232 11.7606C6.25919 12.1149 6.53476 12.4036 6.88905 12.4167C8.57523 12.4758 10.0711 12.5807 11.6851 12.8301C11.6064 13.0006 11.3768 13.5255 11.3768 13.5255C11.1603 14.0045 11.2652 14.5687 11.6392 14.9427L12.8924 16.1959C10.8781 15.8153 9.01481 15.6513 6.92842 15.5726C6.57412 15.5594 6.27888 15.835 6.26575 16.1827C6.25263 16.537 6.52819 16.8323 6.87593 16.8454C9.8743 16.9635 12.3937 17.2456 15.6283 18.151C15.9695 18.2429 17.4719 18.4922 18.0034 18.4922H18.4758V18.5053ZM19.7486 37.8996C23.554 35.7017 29.1374 35.1375 34.6224 35.1375C35.3244 35.1375 35.8952 34.5667 35.8952 33.8646V9.51675H37.811C38.0276 9.51675 38.2113 9.6939 38.2113 9.91697V36.6071C38.2113 36.7121 38.1719 36.8171 38.0932 36.8892C38.021 36.9614 37.916 37.0073 37.811 37.0073H21.9137V37.6569C21.9137 38.4311 21.2773 39.0741 20.4966 39.0741H17.7409C16.9602 39.0741 16.3238 38.4376 16.3238 37.6569V37.0073H0.400221C0.183708 37.0073 0 36.8302 0 36.6071V9.91697C0 9.812 0.039366 9.70702 0.118098 9.63485C0.190269 9.56268 0.295245 9.51675 0.400221 9.51675H2.32259V33.8712C2.32259 34.5732 2.8934 35.144 3.59543 35.144C9.08698 35.144 14.6638 35.7148 18.4692 37.9062C18.8629 38.1358 19.3484 38.1358 19.742 37.9062L19.7486 37.8996Z" fill="#E8433C"/>
</svg>
