<svg width="39" height="35" viewBox="0 0 39 35" fill="none" xmlns="http://www.w3.org/2000/svg">
<path fill-rule="evenodd" clip-rule="evenodd" d="M3.54174 30.1501C4.15796 30.1501 4.6605 30.6527 4.6605 31.2689C4.6605 31.8851 4.15796 32.3877 3.54174 32.3877C2.92553 32.3877 2.42297 31.8851 2.42297 31.2689C2.42297 30.6527 2.92553 30.1501 3.54174 30.1501ZM24.3135 5.69301C25.1092 5.69301 25.7613 6.33913 25.7613 7.14081C25.7613 7.94249 25.1152 8.58862 24.3135 8.58862C23.5119 8.58862 22.8657 7.94249 22.8657 7.14081C22.8657 6.33913 23.5119 5.69301 24.3135 5.69301ZM28.6211 22.9051C29.3689 25.2623 29.4527 27.0152 28.4775 27.6015C29.0279 29.7553 28.0348 30.6168 27.5561 31.0535C27.4963 31.1433 27.1912 31.3646 27.269 31.8253C27.5502 33.5184 26.4135 34.6491 25.3126 34.679L14.508 34.9781C13.7841 34.9961 13.1559 34.8944 12.4739 34.6551L9.87139 33.7637C9.0398 33.4765 8.50136 32.7287 8.50136 31.8492V20.9309C8.50136 20.201 9.03381 19.7702 9.48849 19.1959L11.7619 16.3182C12.3901 15.5225 13.0422 14.9243 13.8858 14.3679L16.4404 12.6808L17.4096 9.46807C17.2779 6.73997 21.0829 7.51174 20.8077 12.1483C20.688 14.1525 19.4616 17.1199 18.5104 18.0652C18.0138 18.5557 18.2172 19.3993 19.5872 19.2437L20.5863 19.1361L26.1442 18.7053C29.9313 18.4121 29.3689 22.0496 28.6151 22.8991L28.6211 22.9051ZM31.4509 5.69301C32.2466 5.69301 32.8987 6.33913 32.8987 7.14081C32.8987 7.94249 32.2525 8.58862 31.4509 8.58862C30.6492 8.58862 30.003 7.94249 30.003 7.14081C30.003 6.33913 30.6492 5.69301 31.4509 5.69301ZM32.6653 11.903C32.6414 14.5234 30.5056 16.6353 27.8792 16.6353C25.2528 16.6353 23.123 14.5174 23.0991 11.903C23.0991 11.6398 23.2546 11.4184 23.4939 11.3287C23.7392 11.2389 24.0024 11.3107 24.164 11.5141C25.0434 12.591 26.3776 13.285 27.8792 13.285C29.3809 13.285 30.715 12.597 31.5944 11.5141C31.762 11.3107 32.0192 11.2389 32.2645 11.3287C32.5098 11.4184 32.6653 11.6398 32.6653 11.903ZM27.8792 0.829102C33.5867 0.829102 38.2113 5.4537 38.2113 11.1612C38.2113 15.8875 35.0405 19.8719 30.703 21.1043C30.703 20.7215 30.6671 20.3446 30.5834 20.0095C30.5176 19.7403 30.4278 19.489 30.3201 19.2617C33.7961 18.2147 36.3267 14.9841 36.3267 11.1671C36.3267 6.49468 32.5397 2.71364 27.8732 2.71364C24.6964 2.71364 21.9265 4.46656 20.4846 7.05705C20.2812 6.9015 20.0658 6.7639 19.8265 6.65023C19.4736 6.48272 19.1026 6.38101 18.7317 6.35708C20.4607 3.0726 23.9067 0.835084 27.8792 0.835084V0.829102ZM1.42985 20.0813H5.64165C6.42537 20.0813 7.07151 20.7215 7.07151 21.5112V33.1953C7.07151 33.979 6.43136 34.6252 5.64165 34.6252H1.42985C0.646118 34.6252 0 33.985 0 33.1953V21.5112C0 20.7274 0.640135 20.0813 1.42985 20.0813Z" fill="#E8433C"/>
</svg>
