<svg width="56" height="56" viewBox="0 0 56 56" fill="none" xmlns="http://www.w3.org/2000/svg">
<path d="M52.1393 15.5587C52.005 15.3264 51.8218 15.1674 51.5653 15.0941C51.3089 15.0207 51.0646 15.0452 50.8326 15.1674C50.6006 15.2897 50.4418 15.4854 50.3563 15.7299C50.2708 15.9745 50.2952 16.2313 50.4174 16.4636C59.3933 32.9834 46.7781 53.9297 27.9713 53.6973C27.1409 53.6973 26.3105 53.6607 25.4801 53.5751C24.6496 53.4895 23.8314 53.3672 23.0132 53.2082C22.195 53.0493 21.389 52.8414 20.5952 52.5968C19.8014 52.3523 19.0198 52.071 18.2504 51.7531C17.4811 51.4352 16.7361 51.0806 16.0034 50.6893C15.2707 50.298 14.5623 49.87 13.8663 49.4054C13.1702 48.9407 12.5107 48.4516 11.8635 47.9258C11.2162 47.4 10.6056 46.8375 10.0194 46.2506C9.43322 45.6637 8.87146 45.0523 8.34634 44.4042C7.82121 43.7561 7.32051 43.0958 6.86866 42.3988C6.4046 41.7018 5.97717 40.9926 5.58638 40.259C5.19559 39.5253 4.84144 38.7794 4.52392 38.009C4.2064 37.2387 3.92552 36.4561 3.68128 35.6613C3.43703 34.8665 3.24164 34.0594 3.07067 33.2402C2.91191 32.4209 2.78979 31.6016 2.7043 30.7702C2.61882 29.9387 2.58218 29.1072 2.58218 28.2757C2.36236 9.46926 23.2819 -3.14987 39.7805 5.83759C40.0126 5.95987 40.269 5.98433 40.5255 5.91096C40.7819 5.83759 40.9773 5.67863 41.0995 5.43407C41.2216 5.20175 41.246 4.94496 41.1727 4.68818C41.0995 4.43139 40.9407 4.23575 40.6965 4.11347C39.7805 3.63658 38.8402 3.20861 37.8877 2.82954C36.9229 2.45048 35.9459 2.13256 34.9445 1.87577C33.9431 1.60676 32.9295 1.41112 31.9159 1.25215C30.8901 1.10542 29.8642 1.0076 28.8384 0.983141C27.8004 0.946458 26.7745 0.983141 25.7487 1.05651C24.7229 1.1421 23.6971 1.28884 22.6835 1.48448C21.6698 1.68013 20.6684 1.93691 19.6915 2.25484C18.7023 2.57276 17.7497 2.9396 16.7972 3.35534C15.8568 3.78332 14.9409 4.2602 14.0494 4.786C13.1579 5.3118 12.3031 5.88651 11.4849 6.51012C10.6667 7.13374 9.87286 7.80627 9.12792 8.51549C8.38298 9.2247 7.67467 9.98283 7.01521 10.7776C6.35575 11.5724 5.73293 12.4039 5.17117 13.2599C4.59719 14.1281 4.08428 15.0207 3.62022 15.9378C3.15615 16.8549 2.74094 17.8086 2.37457 18.7746C2.02042 19.7406 1.71511 20.7311 1.45866 21.7338C1.21441 22.7365 1.01902 23.7514 0.884684 24.7785C0.750349 25.8057 0.677076 26.8328 0.664864 27.8722C0.652652 28.9115 0.689289 29.9387 0.786986 30.9658C0.884684 31.9929 1.04344 33.0201 1.26326 34.0228C1.48308 35.0377 1.75175 36.0281 2.08148 37.0064C2.41121 37.9846 2.78979 38.9506 3.22943 39.8799C3.66907 40.8214 4.15755 41.7263 4.69489 42.6067C5.23223 43.4871 5.81841 44.3308 6.46566 45.1501C7.10069 45.9694 7.78458 46.7397 8.5051 47.4734C9.22562 48.2071 9.99498 48.904 10.801 49.5521C11.607 50.2002 12.4374 50.7994 13.3167 51.3618C14.196 51.9243 15.0875 52.4257 16.0156 52.8781C16.9437 53.3305 17.8963 53.734 18.8733 54.0764C19.8502 54.4188 20.8394 54.7123 21.8408 54.9446C22.8422 55.1769 23.868 55.3481 24.8939 55.4704C25.9197 55.5927 26.9455 55.6416 27.9836 55.6416C48.2436 55.8984 61.8236 33.338 52.1515 15.5465L52.1393 15.5587Z" fill="#212146"/>
<path d="M27.9714 20.4985C28.8262 20.4985 29.6444 20.633 30.4504 20.9143C30.7069 20.9999 30.9511 20.9877 31.1954 20.8654C31.4396 20.7431 31.5984 20.5597 31.6961 20.3029C32.1235 18.5788 29.0827 18.6399 27.9714 18.5421C15.0264 19.0801 15.0264 37.5441 27.9714 38.0822C28.6064 38.0822 29.2414 38.021 29.8765 37.8988C30.4993 37.7765 31.1099 37.5931 31.7083 37.3363C32.2945 37.0917 32.8562 36.786 33.3936 36.4314C33.9309 36.0768 34.4194 35.6733 34.8713 35.2209C35.3231 34.7684 35.7261 34.2793 36.0803 33.7413C36.4344 33.2033 36.7397 32.6408 36.984 32.0538C37.2282 31.4669 37.4114 30.8555 37.5457 30.2197C37.6678 29.5961 37.7289 28.9602 37.7289 28.3121C37.6312 27.1749 37.6923 24.1669 35.9826 24.5949C35.7261 24.6805 35.5429 24.8517 35.4208 25.0962C35.2987 25.3408 35.2865 25.5853 35.372 25.8421C35.6406 26.6491 35.775 27.4684 35.775 28.3121C35.3842 38.6691 20.5586 38.6691 20.1678 28.3121C20.1678 27.7986 20.2166 27.2972 20.3143 26.7836C20.412 26.2823 20.5586 25.7932 20.7539 25.3163C20.9493 24.8394 21.1936 24.387 21.4745 23.9712C21.7553 23.5433 22.0851 23.152 22.4392 22.7851C22.8056 22.4183 23.1964 22.1004 23.6238 21.8191C24.0512 21.5379 24.5031 21.2934 24.9672 21.0977C25.4312 20.9021 25.9319 20.7553 26.4326 20.6575C26.9333 20.5597 27.4462 20.5108 27.9591 20.5108L27.9714 20.4985Z" fill="#212146"/>
<path d="M37.3015 13.3942C37.4358 13.1619 37.4603 12.9051 37.387 12.6483C37.3137 12.3915 37.155 12.1959 36.9229 12.0614C34.1386 10.5207 31.1466 9.7381 27.9592 9.7381C3.37602 10.753 3.37602 45.8347 27.9592 46.8618C28.7652 46.8618 29.559 46.8129 30.3528 46.7029C31.1466 46.605 31.9404 46.4461 32.7097 46.2382C33.4913 46.0303 34.2485 45.7735 34.9934 45.4678C35.7383 45.1621 36.4589 44.8075 37.155 44.4162C37.8511 44.0127 38.5227 43.5725 39.1578 43.0956C39.7928 42.6065 40.4034 42.0807 40.9774 41.5183C41.5514 40.9558 42.0765 40.3566 42.5772 39.7208C43.0657 39.0849 43.5175 38.4246 43.9327 37.7276C44.3357 37.0306 44.7021 36.3214 45.0196 35.5755C45.3371 34.8296 45.6058 34.0837 45.8134 33.3011C46.0332 32.5308 46.192 31.7482 46.3141 30.9412C46.424 30.1464 46.4973 29.3516 46.4973 28.5445C46.4973 27.7375 46.4729 26.9427 46.3752 26.1356C46.2775 25.3408 46.1431 24.546 45.9478 23.7634C45.7524 22.9809 45.5081 22.2227 45.215 21.4768C44.9219 20.7309 44.58 20.0095 44.1892 19.3003C44.0549 19.0679 43.8595 18.909 43.603 18.8356C43.3465 18.7622 43.0901 18.7867 42.8581 18.9212C42.626 19.0557 42.4673 19.2514 42.394 19.5081C42.3207 19.7649 42.3452 20.0217 42.4795 20.254C48.6589 30.9901 40.3546 45.101 27.9714 44.8809C26.8845 44.8809 25.8098 44.7709 24.7352 44.563C23.6727 44.3551 22.6347 44.0372 21.621 43.6214C20.6196 43.2057 19.6549 42.6921 18.7512 42.0807C17.8475 41.4693 17.0048 40.7846 16.2355 40.0142C15.4661 39.2439 14.7822 38.4002 14.1716 37.4953C13.561 36.5904 13.0603 35.6367 12.6329 34.6218C12.2177 33.6191 11.9001 32.5797 11.6925 31.5037C11.4849 30.4276 11.375 29.3516 11.375 28.2633C11.1674 15.8643 25.2481 7.53709 35.9704 13.7366C36.2024 13.8711 36.4589 13.8956 36.7153 13.8222C36.9718 13.7488 37.1672 13.5899 37.3015 13.3575V13.3942Z" fill="#212146"/>
<path d="M53.4825 9.6648L46.375 16.7814C46.1796 16.9648 45.9598 17.0626 45.6911 17.0626H45.6179L40.9406 16.6958L28.6429 29.0092C28.4475 29.1927 28.2155 29.2782 27.959 29.2782C27.6904 29.2782 27.4705 29.1804 27.2751 28.997C27.0797 28.8136 26.9943 28.5813 26.9943 28.3122C26.9943 28.0432 27.0797 27.8109 27.2629 27.6275L39.5606 15.3141L39.1943 10.6308C39.1698 10.3373 39.2675 10.0805 39.4751 9.87267L46.5826 2.75607C46.8757 2.4626 47.2177 2.38923 47.6085 2.53597C47.9992 2.6827 48.2069 2.95171 48.2435 3.36746L48.561 7.67166L52.8475 7.98958C53.2627 8.02627 53.5436 8.24637 53.6779 8.62543C53.8123 9.00449 53.7512 9.3591 53.4581 9.65257L53.4825 9.6648Z" fill="#212146"/>
</svg>
