<svg width="39" height="38" viewBox="0 0 39 38" fill="none" xmlns="http://www.w3.org/2000/svg">
<path d="M34.629 17.3639C34.1224 16.8513 33.4369 16.5711 32.7098 16.5711C32.6442 16.5711 32.5786 16.5711 32.5131 16.5771C31.9051 16.6188 31.3388 16.8632 30.8858 17.2745C30.856 17.3043 30.8262 17.3281 30.7964 17.3579L28.3526 19.7242L26.4989 21.5124C26.0042 21.0653 25.3426 20.7912 24.6273 20.7912H18.333C17.9992 20.7912 17.6714 20.7315 17.3793 20.6243C17.2899 20.5885 17.2005 20.5527 17.1171 20.511C16.0084 19.9388 14.8163 19.6467 13.5765 19.6467C12.9686 19.6467 12.3666 19.7183 11.7765 19.8554C11.2877 19.9686 10.8109 20.1295 10.3459 20.3322C10.2029 20.3978 10.0598 20.4633 9.92275 20.5348C9.30882 20.8448 8.72469 21.2382 8.20612 21.7031C8.02731 21.8581 7.86041 22.019 7.69352 22.1919C7.24052 22.6687 6.85905 23.1873 6.54314 23.7356C6.22128 23.5866 5.86961 23.5091 5.50005 23.5091C4.82056 23.5091 4.17682 23.7774 3.69402 24.2542L0.290575 27.6577C-0.0968582 28.0451 -0.0968582 28.6769 0.290575 29.0643L8.55779 37.3316C8.94523 37.719 9.57704 37.719 9.96447 37.3316L13.3679 33.9281C14.0534 33.2426 14.268 32.2711 14.0117 31.4009L14.2322 31.1803C14.8819 30.5247 15.77 30.1611 16.6939 30.1611H26.2426C26.9698 30.1611 27.6552 29.8332 28.1082 29.267L32.5071 23.8429L34.6946 21.1488C35.1714 20.6421 35.4277 19.9865 35.4277 19.2891C35.4277 18.5917 35.1416 17.8765 34.6231 17.3639M12.5692 32.3247C12.5633 32.3665 12.5513 32.4082 12.5394 32.4439C12.5275 32.4857 12.5096 32.5214 12.4917 32.5631C12.4619 32.6287 12.4262 32.6883 12.3785 32.7479C12.3546 32.7837 12.3248 32.8135 12.295 32.8493L9.26709 35.8772L1.7509 28.361L4.77883 25.3331C4.92189 25.19 5.09474 25.1006 5.27952 25.0589C5.29144 25.0589 5.2974 25.0589 5.30932 25.0529C5.31528 25.0529 5.3272 25.0529 5.33316 25.0529C5.39277 25.041 5.44641 25.035 5.50601 25.035C5.70271 25.035 5.89941 25.0887 6.07226 25.2019C6.13187 25.2377 6.18551 25.2854 6.2332 25.3331L12.301 31.4009C12.3904 31.4903 12.456 31.5856 12.5036 31.6929C12.5275 31.7406 12.5454 31.7823 12.5573 31.83C12.5871 31.9254 12.599 32.0207 12.599 32.1221C12.599 32.1936 12.5931 32.2592 12.5752 32.3307L12.5692 32.3247ZM33.5502 20.1415L30.7845 23.5509L30.713 23.6343L29.3182 25.3509L26.9221 28.3073C26.7552 28.516 26.4989 28.6352 26.2366 28.6352H16.4674C15.2872 28.6352 14.1547 29.1061 13.3143 29.9405L13.1533 30.1015L7.75313 24.7012C7.79485 24.6238 7.83061 24.5522 7.8783 24.4747C7.89022 24.4509 7.9081 24.4271 7.92002 24.4032C7.94982 24.3496 7.98558 24.2959 8.01539 24.2423C8.02731 24.2184 8.04519 24.1946 8.05711 24.1708C8.09883 24.1052 8.14056 24.0396 8.18824 23.9741C8.18824 23.9741 8.18824 23.9681 8.1942 23.9621C8.1942 23.9621 8.1942 23.9562 8.20016 23.9502C8.24785 23.8787 8.30149 23.8072 8.35514 23.7416C8.37302 23.7237 8.38494 23.6999 8.40282 23.682C8.44454 23.6343 8.48031 23.5807 8.52203 23.533C8.53991 23.5091 8.55779 23.4913 8.57568 23.4674C8.62336 23.4138 8.677 23.3542 8.72469 23.3005C8.73661 23.2886 8.74257 23.2826 8.75449 23.2707C8.81409 23.2052 8.8737 23.1456 8.93927 23.0859C8.95715 23.0681 8.97503 23.0502 8.99291 23.0323C9.04059 22.9846 9.08828 22.9429 9.13596 22.9012C9.15384 22.8833 9.17769 22.8654 9.19557 22.8475C9.24921 22.7998 9.30882 22.7522 9.36246 22.7045C9.37438 22.6926 9.3863 22.6866 9.39822 22.6747C9.46975 22.621 9.53532 22.5674 9.60684 22.5137C9.62472 22.5018 9.64261 22.4899 9.66049 22.478C9.71413 22.4363 9.77374 22.3945 9.82738 22.3588C9.85122 22.3409 9.8691 22.329 9.89295 22.317C9.95255 22.2753 10.0181 22.2336 10.0777 22.1978C10.0896 22.1919 10.1075 22.1799 10.1194 22.174C10.1969 22.1263 10.2744 22.0786 10.3519 22.0369C10.3638 22.0309 10.3817 22.019 10.3996 22.0131C10.4652 21.9773 10.5307 21.9415 10.5963 21.9117C10.6201 21.8998 10.638 21.8879 10.6619 21.876C10.7274 21.8402 10.7989 21.8104 10.8645 21.7806C10.8764 21.7746 10.8943 21.7687 10.9062 21.7627C10.9897 21.727 11.0731 21.6912 11.1625 21.6554C11.1625 21.6554 11.1625 21.6554 11.1685 21.6554C11.1983 21.6435 11.2281 21.6316 11.2579 21.6197C11.2996 21.6018 11.3354 21.5899 11.3771 21.572C11.4308 21.5541 11.4904 21.5303 11.55 21.5124C11.5798 21.5064 11.6036 21.4945 11.6334 21.4885C11.6751 21.4766 11.7169 21.4647 11.7586 21.4528L11.842 21.4289C11.8838 21.417 11.9255 21.4051 11.9612 21.3932C11.991 21.3872 12.0208 21.3812 12.0506 21.3693C12.0924 21.3574 12.1341 21.3514 12.1699 21.3395C12.1997 21.3336 12.2295 21.3276 12.2593 21.3216C12.301 21.3157 12.3427 21.3038 12.3844 21.2978C12.4142 21.2978 12.444 21.2859 12.4738 21.2799C12.5156 21.274 12.5573 21.268 12.605 21.262C12.6348 21.262 12.6586 21.2561 12.6884 21.2501C12.7003 21.2501 12.7123 21.2501 12.7242 21.2501C12.754 21.2501 12.7838 21.2442 12.8136 21.2382C12.8434 21.2382 12.8732 21.2322 12.903 21.2263C12.9447 21.2263 12.9864 21.2203 13.0341 21.2143C13.0639 21.2143 13.0937 21.2143 13.1235 21.2084C13.1712 21.2084 13.2189 21.2024 13.2666 21.2024C13.2904 21.2024 13.3202 21.2024 13.3441 21.2024C13.4096 21.2024 13.4812 21.2024 13.5467 21.2024C13.5467 21.2024 13.5587 21.2024 13.5646 21.2024C14.5123 21.2024 15.4839 21.417 16.4078 21.8998C16.4793 21.9356 16.5508 21.9713 16.6283 22.0011C16.6283 22.0011 16.6343 22.0011 16.6402 22.0011C16.7952 22.0667 16.9502 22.1263 17.1111 22.168C17.5105 22.2872 17.9337 22.3409 18.3509 22.3409H24.6214C24.6512 22.3409 24.6869 22.3409 24.7227 22.3409C24.7346 22.3409 24.7406 22.3409 24.7525 22.3409C24.7882 22.3409 24.818 22.3468 24.8538 22.3528C24.8538 22.3528 24.8538 22.3528 24.8598 22.3528C24.8896 22.3528 24.9253 22.3647 24.9551 22.3766C24.9611 22.3766 24.973 22.3766 24.979 22.3826C25.0088 22.3945 25.0445 22.4005 25.0744 22.4124C25.0744 22.4124 25.0744 22.4124 25.0803 22.4124C25.1101 22.4243 25.1399 22.4363 25.1638 22.4482C25.1697 22.4482 25.1816 22.4541 25.1876 22.4601C25.2174 22.472 25.2472 22.4899 25.277 22.5078C25.277 22.5078 25.277 22.5078 25.283 22.5078C25.3128 22.5257 25.3366 22.5376 25.3605 22.5555C25.3664 22.5555 25.3724 22.5674 25.3843 22.5674C25.4081 22.5853 25.4379 22.6091 25.4618 22.627C25.4618 22.627 25.4618 22.627 25.4677 22.627C25.4916 22.6449 25.5095 22.6687 25.5333 22.6866C25.5393 22.6926 25.5452 22.6985 25.5512 22.7045C25.575 22.7283 25.5929 22.7522 25.6168 22.776C25.6168 22.776 25.6168 22.782 25.6227 22.7879C25.6346 22.8058 25.6466 22.8177 25.6585 22.8356C25.6585 22.8416 25.6704 22.8475 25.6764 22.8594C25.6764 22.8654 25.6883 22.8714 25.6942 22.8833C25.7121 22.9131 25.73 22.9369 25.7419 22.9667C25.7419 22.9667 25.7419 22.9667 25.7419 22.9727C25.7598 23.0025 25.7717 23.0263 25.7836 23.0561C25.7836 23.0621 25.7896 23.074 25.7956 23.08C25.8075 23.1098 25.8194 23.1455 25.8313 23.1754C25.8433 23.2052 25.8492 23.2409 25.8552 23.2767C25.8552 23.2826 25.8552 23.2946 25.8552 23.3005C25.8611 23.3363 25.8671 23.372 25.8731 23.4019C25.879 23.4793 25.879 23.5628 25.8731 23.6403C25.8433 23.9264 25.7181 24.1827 25.5273 24.3734C25.3128 24.588 25.0147 24.7191 24.6869 24.7191H18.5893C18.4045 24.7191 18.2377 24.7847 18.1065 24.892C17.9694 25.0052 17.8681 25.1721 17.8383 25.3569C17.8323 25.3986 17.8264 25.4403 17.8264 25.4821C17.8264 25.5119 17.8264 25.5417 17.8264 25.5655C17.8264 25.5715 17.8264 25.5834 17.8264 25.5894C17.8264 25.6072 17.8264 25.6251 17.8383 25.643C17.8383 25.6549 17.8383 25.6609 17.8443 25.6728C17.8443 25.6907 17.8562 25.7086 17.8562 25.7205C17.8562 25.7324 17.8621 25.7384 17.8681 25.7503C17.8741 25.7682 17.88 25.7801 17.886 25.798C17.886 25.8099 17.8919 25.8159 17.8979 25.8278C17.9039 25.8457 17.9158 25.8576 17.9217 25.8755C17.9217 25.8814 17.9277 25.8933 17.9337 25.8993C17.9456 25.9172 17.9575 25.9351 17.9694 25.947C17.9694 25.947 17.9754 25.9589 17.9813 25.9589C17.9992 25.9828 18.0171 26.0006 18.035 26.0185C18.0529 26.0364 18.0708 26.0543 18.0946 26.0662C18.1065 26.0781 18.1184 26.0841 18.1304 26.096C18.1363 26.096 18.1423 26.102 18.1482 26.1079C18.1661 26.1198 18.184 26.1318 18.2078 26.1437C18.2138 26.1437 18.2198 26.1496 18.2257 26.1556C18.2377 26.1616 18.2555 26.1675 18.2675 26.1735C18.2734 26.1735 18.2853 26.1794 18.2913 26.1854C18.3032 26.1854 18.3151 26.1973 18.333 26.1973C18.3449 26.1973 18.3509 26.1973 18.3628 26.2033C18.3747 26.2033 18.3926 26.2093 18.4045 26.2152C18.4105 26.2152 18.4224 26.2152 18.4343 26.2152C18.4522 26.2152 18.4642 26.2152 18.482 26.2212C18.488 26.2212 18.4999 26.2212 18.5059 26.2212C18.5297 26.2212 18.5536 26.2212 18.5774 26.2212H24.6333C24.7227 26.2212 24.8121 26.2212 24.9015 26.2092C25.0922 26.1914 25.283 26.1616 25.4677 26.102C25.5512 26.0781 25.6287 26.0483 25.7062 26.0185C25.7121 26.0185 25.724 26.0185 25.73 26.0066C25.7598 25.9947 25.7896 25.9827 25.8194 25.9649C25.8313 25.9649 25.8433 25.9529 25.8492 25.947C25.8731 25.9351 25.9029 25.9231 25.9267 25.9112C25.9386 25.9053 25.9505 25.8993 25.9625 25.8933C25.9863 25.8814 26.0101 25.8695 26.034 25.8576C26.0459 25.8516 26.0578 25.8397 26.0757 25.8337C26.0996 25.8218 26.1174 25.8099 26.1413 25.792C26.1532 25.7861 26.1711 25.7741 26.183 25.7682C26.2009 25.7563 26.2247 25.7443 26.2426 25.7264C26.2545 25.7145 26.2724 25.7086 26.2843 25.6966C26.3022 25.6847 26.3201 25.6728 26.338 25.6549C26.3499 25.643 26.3618 25.6311 26.3797 25.6251C26.3976 25.6132 26.4155 25.5953 26.4333 25.5834C26.4453 25.5715 26.4572 25.5596 26.4751 25.5476C26.493 25.5357 26.5049 25.5178 26.5228 25.5059C26.5347 25.494 26.5466 25.4821 26.5645 25.4701C26.5824 25.4582 26.5943 25.4403 26.6122 25.4284C26.6241 25.4165 26.636 25.4046 26.6479 25.3867C26.6598 25.3748 26.6777 25.3569 26.6896 25.345C26.6896 25.345 26.7016 25.3331 26.7016 25.3271C26.7075 25.3211 26.7194 25.3092 26.7254 25.3033C26.7373 25.2854 26.7493 25.2735 26.7671 25.2556C26.7791 25.2436 26.791 25.2258 26.8029 25.2138C26.8148 25.196 26.8267 25.184 26.8387 25.1662C26.8506 25.1483 26.8625 25.1364 26.8744 25.1185C26.8863 25.1006 26.8983 25.0887 26.9102 25.0708C26.9221 25.0529 26.934 25.041 26.9459 25.0231C26.9579 25.0052 26.9698 24.9933 26.9757 24.9754C26.9877 24.9575 26.9936 24.9456 27.0056 24.9277C27.0175 24.9099 27.0234 24.8979 27.0354 24.8801C27.0473 24.8622 27.0532 24.8443 27.0652 24.8324C27.0711 24.8145 27.083 24.8026 27.095 24.7847C27.1069 24.7668 27.1128 24.7489 27.1248 24.731C27.1307 24.7132 27.1426 24.7012 27.1486 24.6834C27.1546 24.6655 27.1665 24.6476 27.1724 24.6297C27.1784 24.6118 27.1903 24.5999 27.1963 24.582C27.2023 24.5641 27.2142 24.5463 27.2201 24.5284C27.2261 24.5105 27.2321 24.4926 27.238 24.4807C27.244 24.4628 27.2499 24.4449 27.2619 24.4271C27.2678 24.4092 27.2738 24.3913 27.2797 24.3794C27.2857 24.3615 27.2917 24.3436 27.2976 24.3198C27.2976 24.3019 27.3095 24.284 27.3155 24.2721C27.3155 24.2542 27.3274 24.2304 27.3334 24.2125C27.3334 24.1946 27.3453 24.1767 27.3453 24.1648C27.3453 24.1469 27.3572 24.1231 27.3572 24.1052C27.3572 24.0873 27.3632 24.0694 27.3691 24.0515C27.3691 24.0337 27.3751 24.0098 27.3811 23.9919C27.3811 23.9741 27.387 23.9562 27.393 23.9383C27.393 23.9204 27.3989 23.8966 27.4049 23.8787C27.4049 23.8608 27.4049 23.8429 27.4109 23.825C27.4109 23.8072 27.4109 23.7833 27.4168 23.7654C27.4168 23.7476 27.4168 23.7297 27.4168 23.7118C27.4168 23.6939 27.4168 23.6701 27.4168 23.6522C27.4168 23.6343 27.4168 23.6164 27.4168 23.5986C27.4168 23.5807 27.4168 23.5568 27.4168 23.5389C27.4168 23.5211 27.4168 23.5032 27.4168 23.4853C27.4168 23.4674 27.4168 23.4436 27.4168 23.4257C27.4168 23.4078 27.4168 23.3899 27.4168 23.3721C27.4168 23.3542 27.4168 23.3303 27.4168 23.3124C27.4168 23.2826 27.4168 23.2588 27.4109 23.229C27.4109 23.1754 27.3989 23.1217 27.393 23.074C27.3811 22.9906 27.3632 22.9012 27.3393 22.8177L31.8932 18.4189C32.0005 18.3116 32.1256 18.2281 32.2627 18.1685C32.2866 18.1566 32.3044 18.1506 32.3283 18.1447C32.3521 18.1387 32.376 18.1268 32.3998 18.1208C32.5131 18.0851 32.6263 18.0732 32.7396 18.0732C32.7515 18.0732 32.7574 18.0732 32.7694 18.0732C32.8349 18.0732 32.9005 18.0791 32.9661 18.091C32.9661 18.091 32.978 18.091 32.9839 18.091C33.1508 18.1268 33.3058 18.1983 33.4429 18.2997C33.4906 18.3354 33.5383 18.3712 33.58 18.4189C33.8184 18.6513 33.9317 18.9613 33.9317 19.2653C33.9317 19.5692 33.8184 19.8792 33.58 20.1117L33.5502 20.1415Z" fill="#E8433C"/>
<path d="M5.61332 26.8888C5.13052 26.8888 4.74308 27.2762 4.74308 27.759C4.74308 28.2418 5.13052 28.6293 5.61332 28.6293C6.09612 28.6293 6.48355 28.2418 6.48355 27.759C6.48355 27.2762 6.09612 26.8888 5.61332 26.8888Z" fill="#E8433C"/>
<path d="M35.0701 3.36863C35.0701 5.19254 33.5919 6.67671 31.7621 6.67671C29.9322 6.67671 28.454 5.1985 28.454 3.36863C28.454 1.53875 29.9322 0.0605469 31.7621 0.0605469C33.5919 0.0605469 35.0701 1.53875 35.0701 3.36863Z" fill="#E8433C"/>
<path d="M14.6614 3.36863C14.6614 5.19254 13.1832 6.67671 11.3533 6.67671C9.52343 6.67671 8.04523 5.1985 8.04523 3.36863C8.04523 1.53875 9.52939 0.0605469 11.3593 0.0605469C13.1891 0.0605469 14.6673 1.53875 14.6673 3.36863" fill="#E8433C"/>
<path d="M33.568 7.43369H29.956C28.8235 7.43369 27.7804 7.84496 26.9698 8.53042C26.4929 8.92977 26.5346 9.67484 27.0532 10.0205C27.393 10.247 27.7148 10.5093 28.0069 10.8073C28.7221 11.5226 29.2467 12.3809 29.5447 13.3167C29.6699 13.7041 30.0275 13.9604 30.4328 13.9604H36.3277C37.3649 13.9604 38.2113 13.114 38.2113 12.0769C38.2113 9.52583 36.1191 7.43369 33.568 7.43369Z" fill="#E8433C"/>
<path d="M16.0679 10.0205C16.5865 9.67484 16.6282 8.92977 16.1514 8.53042C15.3407 7.85092 14.2976 7.43369 13.1651 7.43369H9.55308C7.00199 7.43369 4.90985 9.52583 4.90985 12.0769C4.90985 13.114 5.75624 13.9604 6.79337 13.9604H12.6883C13.0936 13.9604 13.4513 13.6982 13.5764 13.3167C13.8744 12.3809 14.399 11.5226 15.1142 10.8073C15.4123 10.5093 15.7282 10.247 16.0679 10.0205Z" fill="#E8433C"/>
<path d="M23.596 9.98473H19.519C16.6401 9.98473 14.2857 12.3391 14.2857 15.2181C14.2857 16.3863 15.2394 17.34 16.4076 17.34H26.7074C27.8757 17.34 28.8293 16.3863 28.8293 15.2181C28.8293 12.3391 26.4749 9.98473 23.596 9.98473Z" fill="#E8433C"/>
<path d="M25.2888 5.40114C25.2888 7.45751 23.6198 9.12645 21.5635 9.12645C19.5071 9.12645 17.8381 7.45751 17.8381 5.40114C17.8381 3.34476 19.5071 1.67582 21.5635 1.67582C23.6198 1.67582 25.2888 3.34476 25.2888 5.40114Z" fill="#E8433C"/>
</svg>
