<svg width="68" height="48" viewBox="0 0 68 48" fill="none" xmlns="http://www.w3.org/2000/svg">
<path d="M35.4412 10.5883C29.2786 10.3635 23.1466 11.6001 17.5564 14.2164C11.0667 17.2517 5.32318 21.6871 0.754891 27.1956C-0.0729194 28.1972 -0.0729194 29.6382 0.754891 30.6295C5.32318 36.1482 11.0667 40.5734 17.5564 43.6087C27.9806 48.4836 40.0299 48.4836 50.4542 43.6087C56.9336 40.5734 62.6771 36.138 67.2454 30.6295C68.0732 29.6382 68.0732 28.1972 67.2454 27.1956C62.6771 21.6769 56.9336 17.2517 50.4542 14.2164C45.7428 12.0191 40.6329 10.7825 35.4412 10.5883ZM33.7242 12.4688C42.7075 12.3155 50.0863 19.4796 50.2396 28.4424V28.9126C50.352 37.8856 43.1776 45.2541 34.2046 45.3768C25.2213 45.4892 17.8527 38.3148 17.7403 29.3418V28.9126C17.6279 19.9599 24.7716 12.6016 33.714 12.4585L33.7242 12.4688ZM22.7787 14.4105C14.7663 20.614 13.2947 32.1318 19.4879 40.134C20.4384 41.3706 21.5421 42.4743 22.7787 43.4248C21.2969 42.9547 19.8354 42.3824 18.4353 41.7181C12.2216 38.8156 6.73352 34.5744 2.35941 29.2907C2.17545 29.0659 2.17545 28.749 2.35941 28.5242C6.73352 23.2405 12.2216 19.0095 18.4353 16.0968C19.8456 15.4427 21.2969 14.8704 22.7787 14.4003V14.4105ZM45.2114 14.4105C46.6933 14.8807 48.1445 15.453 49.5548 16.1173C55.7685 19.0197 61.2566 23.261 65.6307 28.5446C65.8146 28.7695 65.8146 29.0863 65.6307 29.3111C61.2566 34.5948 55.7583 38.8258 49.5548 41.7385C48.1445 42.3926 46.6933 42.9649 45.2114 43.4452C53.2238 37.252 54.6954 25.7239 48.5022 17.7218C47.5517 16.4852 46.448 15.3814 45.2114 14.431V14.4105Z" fill="#212146"/>
<path d="M40.1628 28.9229C40.2241 25.5197 37.5363 22.7092 34.1331 22.6275C30.7299 22.5559 27.9194 25.254 27.8479 28.6572V28.9127C27.7763 32.3057 30.4744 35.1264 33.8776 35.1979C37.2808 35.2695 40.0913 32.5714 40.173 29.1682V28.9127" fill="#212146"/>
<path d="M12.2422 7.56326L16.4119 11.038C16.8616 11.3957 17.5156 11.3242 17.8835 10.8745C18.231 10.4453 18.1799 9.80141 17.7507 9.4335L13.581 5.95874C13.1313 5.60104 12.4772 5.67258 12.1093 6.12225C11.7516 6.56171 11.8129 7.19534 12.2422 7.56326Z" fill="#212146"/>
<path d="M54.4196 5.95876L50.2499 9.43352C49.8105 9.80143 49.7491 10.4657 50.1171 10.9052C50.4952 11.3549 51.1493 11.406 51.5989 11.038L55.7687 7.56328C56.1979 7.18514 56.2592 6.52085 55.8709 6.09161C55.5029 5.66238 54.8693 5.61128 54.4298 5.95876" fill="#212146"/>
<path d="M32.9577 1.04304V6.46979C32.9781 7.04211 33.4584 7.502 34.041 7.47134C34.5928 7.4509 35.0221 7.01145 35.0425 6.46979V1.04304C35.0221 0.470723 34.5417 0.0108283 33.949 0.041488C33.4073 0.0619277 32.9679 0.501383 32.9474 1.04304" fill="#212146"/>
</svg>
